<?xml version="1.0" encoding="UTF-8"?><svg id="a" xmlns="http://www.w3.org/2000/svg" viewBox="0 0 24 24"><rect x="6.64" y="3.7" width="7.99" height="7.94" transform="translate(-2.19 4.93) rotate(-23.76)" fill="#9a8bff"/><rect x="3.34" y="4.18" width="5.45" height="11.08" rx="1.23" ry="1.23" transform="translate(-3.4 3.27) rotate(-23.76)" fill="#ff8bf5"/><ellipse cx="15.7" cy="6.42" rx="3.44" ry="5.16" transform="translate(.78 14.49) rotate(-50.65)" fill="#9a8bff"/><path d="M13.44,18.29l.29-.29-.29-.29c-1.17-1.17-1.17-3.09,0-4.26,1.17-1.17,3.09-1.18,4.26,0l.29,.29,.29-.29s.03-.02,.05-.04l-3.49-2.92h0c-1.53-1.28-3.87-.2-3.89,1.8l-.06,7.21c0,1.26,.93,2.2,2.05,2.36-.62-1.14-.46-2.6,.5-3.56Z" fill="#6e85f8"/><path d="M20.14,18l1.36-1.36c.59-.59,.59-1.55,0-2.14h0c-.59-.59-1.55-.59-2.14,0l-1.36,1.36-1.36-1.36c-.59-.59-1.55-.59-2.14,0h0c-.59,.59-.59,1.55,0,2.14l1.36,1.36-1.36,1.36c-.59,.59-.59,1.55,0,2.14h0c.59,.59,1.55,.59,2.14,0l1.36-1.36,1.36,1.35c.59,.59,1.55,.59,2.14,0h0c.59-.59,.59-1.55,0-2.14,0,0-1.35-1.36-1.36-1.35Z" fill="#ff8bf5"/></svg>