<?xml version="1.0" encoding="UTF-8"?><svg id="a" xmlns="http://www.w3.org/2000/svg" viewBox="0 0 24 24"><g><path d="m8.67,19.38c-2.38-.54-5.15-2.19-6.74-4.02l-.08-.1c-1.19-1.68-1.33-3.8-.35-5.27.82-1.22,2.25-1.74,3.84-1.38,1.23.28,2.12.8,2.49,1.02l.09.05-1.2,2.19-.15-.08c-.3-.18-.93-.54-1.79-.74-.86-.19-1.12.2-1.2.33-.33.5-.34,1.47.28,2.38,1.25,1.4,3.54,2.76,5.36,3.17l-.55,2.44h0Z" fill="#9a8bff"/><path d="m13.05,20.09l-1.74-3.95c-.25-.58-.27-1.22-.04-1.81.23-.59.67-1.05,1.25-1.31l1.37-.6c.83-.37,1.76-.2,2.43.33.06-.1.11-.2.18-.29,1.2-1.46,3.54-1.47,5.4-.04v-1.24c0-1.39-1.13-2.52-2.52-2.52h-10.43c-1.39,0-2.52,1.13-2.52,2.52v2.96c0,3.88,3.15,7.02,7.02,7.02h.56c-.42-.25-.75-.62-.95-1.07Z" fill="#ff8bf5"/><ellipse cx="14.17" cy="9.44" rx="6.9" ry="1.32" fill="#9a8bff"/><path d="m13.74,2.89c-1.34,2.02,1.44,2.02,0,4.03" fill="none" stroke="#ff8bf5" stroke-linecap="round" stroke-miterlimit="10" stroke-width="2"/></g><g><path d="m19.43,17.24l2.77,2.31c.67.56.52,1.62-.27,1.99l-2.8,1.3c-.79.36-1.69-.22-1.68-1.09l.03-3.61c.01-1,1.18-1.54,1.95-.9h0Z" fill="#6e85f8"/><rect x="15.32" y="13.85" width="3.99" height="3.97" transform="translate(-4.91 8.32) rotate(-23.76)" fill="#9a8bff"/><rect x="13.67" y="14.09" width="2.73" height="5.54" rx=".62" ry=".62" transform="translate(-5.52 7.49) rotate(-23.76)" fill="#ff8bf5"/><ellipse cx="19.85" cy="15.21" rx="1.72" ry="2.58" transform="translate(-4.5 20.92) rotate(-50.65)" fill="#9a8bff"/></g></svg>