<?xml version="1.0" encoding="UTF-8"?><svg id="a" xmlns="http://www.w3.org/2000/svg" viewBox="0 0 18.7 21.79"><path d="M3.4,3.78H12c.8,0,1.5,.7,1.5,1.5v.5c0,.8-.7,1.5-1.5,1.5H3.4c-.8,0-1.4-.7-1.4-1.5v-.5c0-.8,.6-1.5,1.4-1.5Z" fill="#ff8bf5"/><path d="M8.6,.38l1.5,1.9c.5,.7,.1,1.7-.8,1.7h-3.1c-.9,0-1.3-1-.8-1.7L6.9,.38c.5-.5,1.2-.5,1.7,0h0Z" fill="#ff8bf5"/><path d="M4.2,15.48c0-1.6,.5-3.1,1.3-4.4H2c-1.1,0-1.9,.8-1.7,1.7l1.6,7.9c.1,.6,.9,1.1,1.7,1.1h3.9c-2-1.4-3.3-3.7-3.3-6.3Z" fill="#9a8bff"/><path d="M12,7.68c1.2,0,2.4,.3,3.4,.8-.2-.7-.8-1.2-1.5-1.2H1.6c-.9,0-1.6,.7-1.6,1.6v.6c0,.9,.7,1.6,1.6,1.6h3.9c1.4-2.1,3.8-3.4,6.5-3.4Z" fill="#ff8bf5"/><g><g><path d="M16.16,12.56c-1.43-2.47-6.37-3.05-7.93,.32" fill="none" stroke="#6e85f8" stroke-linecap="round" stroke-miterlimit="4.79" stroke-width="2.5"/><g><rect x="7.46" y="10.67" width="1.49" height="4.35" transform="translate(-6.98 11.51) rotate(-52.4)" fill="#6e85f8"/><g><path d="M5.95,14.95l-.52-4.22c-.07-.45,.26-.91,.71-.97l.39-.06c.46,0,.91,.32,.97,.78l.52,4.16c.06,.45-.26,.91-.71,.97l-.39,.07c-.52,.06-.91-.26-.98-.72h0Z" fill="#6e85f8"/><path d="M6.67,13.6l4.16-.52c.45-.07,.91,.26,.97,.72l.07,.39c.07,.45-.26,.91-.72,.97l-4.16,.52c-.46,.07-.91-.26-.97-.72l-.06-.39c-.13-.46,.2-.91,.72-.97h0Z" fill="#6e85f8"/></g></g></g><g><path d="M7.97,18.4c1.43,2.53,6.37,3.06,7.93-.32" fill="none" stroke="#ff8bf5" stroke-linecap="round" stroke-miterlimit="4.79" stroke-width="2.5"/><g><rect x="15.09" y="15.89" width="1.49" height="4.35" transform="translate(-8.14 19.59) rotate(-52.4)" fill="#ff8bf5"/><g><path d="M18.17,16.06l.52,4.16c.07,.46-.26,.91-.72,.97l-.39,.07c-.46,.07-.91-.26-.97-.72l-.52-4.16c-.07-.45,.26-.91,.72-.97l.39-.07c.46-.13,.91,.2,.97,.72Z" fill="#ff8bf5"/><path d="M17.46,17.37l-4.16,.52c-.45,.07-.91-.26-.97-.72l-.07-.39c-.07-.45,.26-.91,.72-.97l4.16-.52c.46-.07,.91,.26,.97,.72l.07,.39c.07,.45-.26,.91-.72,.97Z" fill="#ff8bf5"/></g></g></g></g></svg>