<?xml version="1.0" encoding="utf-8"?>
<!-- Generator: Adobe Illustrator 27.0.0, SVG Export Plug-In . SVG Version: 6.00 Build 0)  -->
<svg version="1.1" id="a" xmlns="http://www.w3.org/2000/svg" xmlns:xlink="http://www.w3.org/1999/xlink" x="0px" y="0px"
	 viewBox="0 0 24 24" style="enable-background:new 0 0 24 24;" xml:space="preserve">
<style type="text/css">
	.st0{fill:#FF8BF5;}
	.st1{fill:#9A8BFF;}
	.st2{fill:none;stroke:#6E85F8;stroke-width:2.275;stroke-linecap:round;stroke-miterlimit:7.371;}
	.st3{fill:#6E85F8;}
	.st4{fill:none;stroke:#FF8BF5;stroke-width:2.275;stroke-linecap:round;stroke-miterlimit:7.371;}
</style>
<path class="st0" d="M7.6,4.5h8.6c0.8,0,1.5,0.7,1.5,1.5v0.5c0,0.8-0.7,1.5-1.5,1.5H7.6C6.8,8,6.2,7.3,6.2,6.5V6
	C6.2,5.2,6.8,4.5,7.6,4.5z"/>
<path class="st0" d="M12.8,1.1L14.3,3c0.5,0.7,0.1,1.7-0.8,1.7h-3.1c-0.9,0-1.3-1-0.8-1.7l1.5-1.9C11.6,0.6,12.3,0.6,12.8,1.1z"/>
<path class="st1" d="M8.4,16.2c0-1.6,0.5-3.1,1.3-4.4H6.2c-1.1,0-1.9,0.8-1.7,1.7l1.6,7.9C6.2,22,7,22.5,7.8,22.5h3.9
	C9.7,21.1,8.4,18.8,8.4,16.2z"/>
<path class="st0" d="M16.2,8.4c1.2,0,2.4,0.3,3.4,0.8C19.4,8.5,18.8,8,18.1,8H5.8C4.9,8,4.2,8.7,4.2,9.6v0.6c0,0.9,0.7,1.6,1.6,1.6
	h3.9C11.1,9.7,13.5,8.4,16.2,8.4z"/>
<g transform="translate(8.399999999999999 8.399999999999999) scale(0.65 0.65)">
	<g>
		<path class="st2" d="M18.4,7.5C16.2,3.7,8.6,2.8,6.2,8"/>
		<g>
			<rect x="5.1" y="4.6" transform="matrix(0.6101 -0.7923 0.7923 0.6101 -3.9389 8.0426)" class="st3" width="2.3" height="6.7"/>
			<g>
				<path class="st3" d="M2.7,11.2L1.9,4.7C1.8,4,2.3,3.3,3,3.2l0.6-0.1C4.3,3.1,5,3.6,5.1,4.3l0.8,6.4c0.1,0.7-0.4,1.4-1.1,1.5
					l-0.6,0.1C3.4,12.4,2.8,11.9,2.7,11.2z"/>
				<path class="st3" d="M3.8,9.1l6.4-0.8c0.7-0.1,1.4,0.4,1.5,1.1l0.1,0.6c0.1,0.7-0.4,1.4-1.1,1.5l-6.4,0.8
					c-0.7,0.1-1.4-0.4-1.5-1.1l-0.1-0.6C2.5,9.9,3,9.2,3.8,9.1z"/>
			</g>
		</g>
	</g>
	<g>
		<path class="st4" d="M5.8,16.5c2.2,3.9,9.8,4.7,12.2-0.5"/>
		<g>
			
				<rect x="16.8" y="12.6" transform="matrix(0.6101 -0.7923 0.7923 0.6101 -5.6863 20.4636)" class="st0" width="2.3" height="6.7"/>
			<g>
				<path class="st0" d="M21.5,12.9l0.8,6.4c0.1,0.7-0.4,1.4-1.1,1.5l-0.6,0.1c-0.7,0.1-1.4-0.4-1.5-1.1l-0.8-6.4
					c-0.1-0.7,0.4-1.4,1.1-1.5l0.6-0.1C20.7,11.6,21.4,12.1,21.5,12.9z"/>
				<path class="st0" d="M20.4,14.9l-6.4,0.8c-0.7,0.1-1.4-0.4-1.5-1.1L12.4,14c-0.1-0.7,0.4-1.4,1.1-1.5l6.4-0.8
					c0.7-0.1,1.4,0.4,1.5,1.1l0.1,0.6C21.6,14.1,21.1,14.8,20.4,14.9z"/>
			</g>
		</g>
	</g>
</g>
</svg>
