<?xml version="1.0" encoding="UTF-8"?><svg id="a" xmlns="http://www.w3.org/2000/svg" viewBox="0 0 24.04 23.46"><path d="M11.41,17.84c.12-.44,.34-.83,.64-1.14-.3-.31-.52-.7-.64-1.13-.18-.68-.09-1.38,.26-1.99l.29-.51c.6-1.03,1.8-1.5,2.9-1.23,.32-1.09,1.33-1.89,2.52-1.89h.59c.68,0,1.29,.26,1.75,.69l2.97-2.97c.9-.9,.9-2.35,0-3.25l-3.73-3.73c-.9-.9-2.35-.9-3.25,0L2.68,13.72c-.9,.9-.9,2.35,0,3.25l3.73,3.73c.9,.9,2.35,.9,3.25,0l1.71-1.71c-.07-.38-.07-.77,.04-1.15Z" fill="#ff8bf5"/><path d="M11.41,17.84c.12-.44,.34-.83,.64-1.14-.3-.31-.52-.7-.64-1.13-.18-.68-.09-1.38,.26-1.99l.29-.51c.6-1.03,1.8-1.5,2.9-1.23,.28-.96,1.09-1.69,2.09-1.85L7.65,.67c-.9-.9-2.35-.9-3.25,0L.67,4.4c-.9,.9-.9,2.35,0,3.25l10.66,10.66c.01-.16,.04-.32,.08-.47Z" fill="#ff8bf5"/><path d="M11.41,17.84c.12-.44,.34-.83,.64-1.14-.3-.31-.52-.7-.64-1.13-.18-.68-.09-1.38,.26-1.99l.29-.51c.6-1.03,1.8-1.5,2.9-1.23,.28-.96,1.09-1.69,2.09-1.86l-4.1-4.1c-.64-.64-1.69-.64-2.33,0l-4.65,4.65c-.64,.64-.64,1.69,0,2.33l4.65,4.65c.24,.24,.55,.4,.86,.45,0-.04,0-.08,.02-.11Z" fill="#6e85f8"/><g><path d="M21.99,17.56l-.81-.47c.02-.14,.02-.27,.02-.41,0-.12,0-.24-.02-.36l.8-.46c.53-.31,.72-.99,.41-1.53l-.3-.51c-.31-.54-.99-.72-1.53-.41l-.78,.45c-.21-.15-.44-.3-.68-.4v-.9c0-.62-.5-1.12-1.12-1.12h-.59c-.62,0-1.12,.5-1.12,1.12v.9c-.24,.11-.47,.24-.68,.4l-.79-.45c-.54-.31-1.22-.12-1.53,.41l-.29,.51c-.31,.53-.12,1.22,.41,1.53l.8,.46c0,.11-.02,.24-.02,.36,0,.14,0,.28,.03,.41l-.81,.47c-.54,.31-.72,.99-.41,1.53l.29,.51c.31,.53,.99,.72,1.53,.41l.83-.48c.2,.15,.41,.27,.64,.37v.95c0,.62,.5,1.12,1.12,1.12h.59c.62,0,1.12-.5,1.12-1.12v-.95c.23-.1,.44-.23,.64-.37l.82,.48c.53,.31,1.22,.12,1.53-.41l.3-.51c.31-.53,.12-1.22-.41-1.53h.02Zm-2.25-.19c-.65,.74-1.34,1.07-2.01,1.52-.67-.43-1.35-.78-2.01-1.51-.73-1.01-.26-2.36,.99-2.08,.54,.12,.91,.36,1.01,.42,.11-.06,.48-.3,1.01-.42,1.24-.28,1.72,1.07,.99,2.08h.01Z" fill="#ff958b"/><path d="M17.73,15.69c.11-.06,.48-.3,1.01-.42,1.24-.28,1.72,1.07,.99,2.08-.65,.74-1.34,1.07-2.01,1.52-.67-.43-1.35-.78-2.01-1.51-.73-1.01-.26-2.36,.99-2.08,.54,.12,.91,.36,1.01,.42" fill="none"/></g><path d="M11.68,13.57l.29-.51c.57-.98,1.67-1.45,2.73-1.26,.29-1.15-.36-2.25-1.67-1.95-.7,.16-1.19,.48-1.33,.56-.14-.08-.62-.4-1.33-.56-1.63-.37-2.26,1.42-1.3,2.78,.75,.86,1.53,1.32,2.3,1.81,.05-.3,.15-.59,.31-.87Z" fill="#ff8bf5"/></svg>