<?xml version="1.0"?>
<svg id="a" xmlns="http://www.w3.org/2000/svg" viewBox="0 0 24 24">
  <g>
    <g>
      <rect x="1.48" y="7.07" width="23.04" height="9.87" rx="2.3" ry="2.3" transform="translate(-4.68 12.71) rotate(-45)" fill="#1ecd86"/>
      <rect x="6.06" y=".48" width="9.87" height="23.04" rx="2.3" ry="2.3" transform="translate(-5.27 11.29) rotate(-45)" fill="#1ecd86"/>
      <rect x="7.07" y="8.07" width="9.87" height="9.87" rx="1.65" ry="1.65" transform="translate(12.71 -4.68) rotate(45)" fill="#106e49"/>
    </g>
    <path d="M12.01,11.73c.14-.08,.63-.4,1.33-.56,1.63-.37,2.26,1.43,1.3,2.78-.86,.99-1.75,1.44-2.63,2.02-.88-.58-1.77-1.04-2.63-2.02-.96-1.36-.33-3.15,1.3-2.78,.71,.16,1.19,.48,1.33,.56" fill="#1ecd86"/>
  </g>
  <g transform="translate(12 12) scale(0.5 0.5)" stroke="#000000" stroke-width="6" stroke-alignment="outside">
    <path d="M20.59,13.75l-1.61-.93c.03-.27,.05-.54,.05-.82,0-.24-.01-.48-.04-.72l1.59-.92c1.07-.62,1.44-1.99,.82-3.06l-.59-1.02c-.62-1.07-1.99-1.44-3.06-.82l-1.57,.9c-.42-.31-.88-.59-1.37-.8v-1.8c0-1.24-1-2.24-2.24-2.24h-1.18c-1.24,0-2.24,1-2.24,2.24v1.8c-.49,.21-.94,.48-1.36,.8l-1.57-.91c-1.07-.62-2.44-.25-3.06,.82l-.59,1.02c-.62,1.07-.25,2.44,.82,3.06l1.6,.92c-.02,.23-.04,.47-.04,.71,0,.28,.02,.55,.05,.81l-1.62,.93c-1.07,.62-1.44,1.99-.82,3.06l.59,1.02c.62,1.07,1.99,1.44,3.06,.82l1.65-.95c.4,.29,.82,.54,1.28,.74v1.91c0,1.24,1,2.24,2.24,2.24h1.18c1.24,0,2.24-1,2.24-2.24v-1.91c.46-.2,.88-.45,1.28-.74l1.65,.95c1.07,.62,2.44,.25,3.06-.82l.59-1.02c.62-1.07,.25-2.44-.82-3.06Zm-4.5-.41c-1.31,1.48-2.67,2.15-4.01,3.03-1.34-.87-2.7-1.55-4.01-3.03-1.46-2.03-.51-4.72,1.97-4.16,1.08,.24,1.81,.72,2.03,.84,.22-.12,.96-.6,2.03-.84,2.48-.56,3.44,2.13,1.97,4.16Z" fill="#ff958b" stroke="#000000" stroke-width="6" stroke-alignment="outside"/>
    <path d="M12.08,10.02c.22-.12,.96-.6,2.03-.84,2.48-.56,3.44,2.13,1.97,4.16-1.31,1.48-2.67,2.15-4.01,3.03-1.34-.87-2.7-1.55-4.01-3.03-1.46-2.03-.51-4.72,1.97-4.16,1.08,.24,1.81,.72,2.03,.84" fill="none" stroke="#000000" stroke-width="6" stroke-alignment="outside"/>
  </g>
  <g transform="translate(12 12) scale(0.5 0.5)">
    <path d="M20.59,13.75l-1.61-.93c.03-.27,.05-.54,.05-.82,0-.24-.01-.48-.04-.72l1.59-.92c1.07-.62,1.44-1.99,.82-3.06l-.59-1.02c-.62-1.07-1.99-1.44-3.06-.82l-1.57,.9c-.42-.31-.88-.59-1.37-.8v-1.8c0-1.24-1-2.24-2.24-2.24h-1.18c-1.24,0-2.24,1-2.24,2.24v1.8c-.49,.21-.94,.48-1.36,.8l-1.57-.91c-1.07-.62-2.44-.25-3.06,.82l-.59,1.02c-.62,1.07-.25,2.44,.82,3.06l1.6,.92c-.02,.23-.04,.47-.04,.71,0,.28,.02,.55,.05,.81l-1.62,.93c-1.07,.62-1.44,1.99-.82,3.06l.59,1.02c.62,1.07,1.99,1.44,3.06,.82l1.65-.95c.4,.29,.82,.54,1.28,.74v1.91c0,1.24,1,2.24,2.24,2.24h1.18c1.24,0,2.24-1,2.24-2.24v-1.91c.46-.2,.88-.45,1.28-.74l1.65,.95c1.07,.62,2.44,.25,3.06-.82l.59-1.02c.62-1.07,.25-2.44-.82-3.06Zm-4.5-.41c-1.31,1.48-2.67,2.15-4.01,3.03-1.34-.87-2.7-1.55-4.01-3.03-1.46-2.03-.51-4.72,1.97-4.16,1.08,.24,1.81,.72,2.03,.84,.22-.12,.96-.6,2.03-.84,2.48-.56,3.44,2.13,1.97,4.16Z" fill="#ff958b"/>
    <path d="M12.08,10.02c.22-.12,.96-.6,2.03-.84,2.48-.56,3.44,2.13,1.97,4.16-1.31,1.48-2.67,2.15-4.01,3.03-1.34-.87-2.7-1.55-4.01-3.03-1.46-2.03-.51-4.72,1.97-4.16,1.08,.24,1.81,.72,2.03,.84" fill="none"/>
  </g>
</svg>