<?xml version="1.0" encoding="UTF-8"?><svg id="a" xmlns="http://www.w3.org/2000/svg" viewBox="0 0 24 24"><g><g><path d="M8.53,10.66c-.14,0-.29-.03-.44-.1-.53-.24-.76-.86-.52-1.39,.76-1.67,2.38-2.71,4.32-2.78,2.04-.08,3.99,.89,4.85,2.43,.28,.5,.1,1.15-.4,1.43s-1.15,.1-1.43-.4c-.47-.83-1.7-1.4-2.93-1.36-.68,.03-1.9,.26-2.5,1.56-.17,.38-.56,.61-.95,.61h0Z" fill="#6e85f8"/><g><rect x="7.84" y="7.59" width="1.37" height="4.05" transform="translate(-4.3 10.5) rotate(-52.4)" fill="#6e85f8"/><g><rect x="6.15" y="6.7" width="1.94" height="5.5" rx=".8" ry=".8" transform="translate(-1.16 1) rotate(-7.4)" fill="#6e85f8"/><rect x="6.36" y="10.01" width="5.5" height="1.94" rx=".8" ry=".8" transform="translate(-1.34 1.27) rotate(-7.4)" fill="#6e85f8"/></g></g></g><g><path d="M11.96,17.63c-1.95,0-3.78-.96-4.61-2.44-.28-.5-.1-1.15,.4-1.43s1.15-.1,1.43,.4c.47,.83,1.7,1.4,2.93,1.36,.68-.03,1.9-.26,2.5-1.56,.24-.53,.86-.76,1.39-.52,.53,.24,.76,.86,.52,1.39-.76,1.67-2.38,2.71-4.32,2.78h-.23Z" fill="#ff8bf5"/><g><rect x="14.89" y="12.38" width="1.37" height="4.05" transform="translate(-5.34 17.95) rotate(-52.4)" fill="#ff8bf5"/><g><rect x="15.99" y="11.82" width="1.94" height="5.5" rx=".8" ry=".8" transform="translate(-1.74 2.31) rotate(-7.4)" fill="#ff8bf5"/><rect x="12.23" y="12.06" width="5.5" height="1.94" rx=".8" ry=".8" transform="translate(-1.55 2.04) rotate(-7.4)" fill="#ff8bf5"/></g></g></g></g><path d="M5.79,16.08c-.46-.82-.46-1.77-.1-2.57-.02-.02-.05-.03-.07-.04-.55-.42-.9-1.04-.99-1.73l-.04-.34s0-.02,0-.03l-.45-3.5c-.18-1.42,.82-2.73,2.24-2.91l.34-.04c.73-.09,1.42,.13,1.96,.55,.85-.48,1.82-.77,2.87-.85v-.65c0-.83-.67-1.5-1.5-1.5H2.94c-.83,0-1.5,.67-1.5,1.5V20.02c0,.83,.67,1.5,1.5,1.5h7.1c.83,0,1.5-.67,1.5-1.5v-.61c-2.44-.13-4.67-1.4-5.75-3.33Z" fill="#ff8bf5"/><path d="M21.05,2.48h-7.1c-.83,0-1.5,.67-1.5,1.5v.63c2.46,.11,4.77,1.38,5.86,3.33,.46,.82,.46,1.77,.1,2.57,.56,.4,.96,1.02,1.06,1.76l.04,.35s0,.01,0,.02l.46,3.51c.18,1.42-.82,2.73-2.24,2.91l-.34,.04c-.11,.01-.23,.02-.34,.02-.61,0-1.17-.22-1.62-.58-.88,.49-1.88,.79-2.97,.86v.62c0,.83,.67,1.5,1.5,1.5h7.1c.83,0,1.5-.67,1.5-1.5V3.98c0-.83-.67-1.5-1.5-1.5Z" fill="#9a8bff"/></svg>