<?xml version="1.0" encoding="UTF-8"?><svg id="a" xmlns="http://www.w3.org/2000/svg" viewBox="0 0 23.42 22.14"><g><path d="M4.31,7.83l.9,1.65c.06,.11,.15,.2,.26,.26l1.65,.9c.46,.25,.46,.91,0,1.16l-1.65,.9c-.11,.06-.2,.15-.26,.26l-.9,1.65c-.25,.46-.91,.46-1.16,0l-.9-1.65c-.06-.11-.15-.2-.26-.26l-1.65-.9c-.46-.25-.46-.91,0-1.16l1.65-.9c.11-.06,.2-.15,.26-.26l.9-1.65c.25-.46,.91-.46,1.16,0Z" fill="#ff8bf5"/><path d="M11.79,.35l.9,1.65c.06,.11,.15,.2,.26,.26l1.65,.9c.46,.25,.46,.91,0,1.16l-1.65,.9c-.11,.06-.2,.15-.26,.26l-.9,1.65c-.25,.46-.91,.46-1.16,0l-.9-1.65c-.06-.11-.15-.2-.26-.26l-1.65-.9c-.46-.25-.46-.91,0-1.16l1.65-.9c.11-.06,.2-.15,.26-.26l.9-1.65c.25-.46,.91-.46,1.16,0Z" fill="#ff8bf5"/></g><g><path d="M18.25,14.88l3.48-3.48c.93-.93,.27-2.53-1.04-2.53h-6.94c-.82,0-1.48,.66-1.48,1.48v9.06c0,.81,.66,1.48,1.48,1.48h6.94c1.32,0,1.98-1.6,1.05-2.52l-3.48-3.48h0Z" fill="#9a8bff"/><path d="M18.25,14.88l3.48-3.48c.93-.93,.27-2.53-1.04-2.53h-2.09l-6.34,6.33v4.2c0,.4,.16,.77,.42,1.03l5.56-5.56h0Z" fill="#ff8bf5"/></g><path d="M11.01,14.07h-1.98c-.37,0-.67,.3-.67,.67v1.77c0,.37,.3,.67,.67,.67h1.98v-3.11Z" fill="#9a8bff"/></svg>