<?xml version="1.0" encoding="UTF-8"?><svg id="a" xmlns="http://www.w3.org/2000/svg" viewBox="0 0 21.1 16.6"><path d="M6.4,5.4c.7-.7,1.9-.7,2.6,0l1.6,1.6,1.6-1.6c.1-.1,.2-.2,.3-.2V1.9c0-1-.8-1.9-1.9-1.9H1.9C.9,0,0,.8,0,1.9V6.1c0,1,.8,1.9,1.9,1.9H6.3c-.6-.8-.6-1.9,.1-2.6Z" fill="#1785ff" isolation="isolate" opacity=".8"/><path d="M17.6,2.8H3.6C1.6,2.8,.1,4.3,.1,6.3v6.8c0,1.9,1.6,3.5,3.5,3.5h14c1.9,0,3.5-1.6,3.5-3.5V6.3c0-2-1.5-3.5-3.5-3.5Zm-2.8,8.4c.7,.7,.7,1.9,0,2.6-.7,.7-1.9,.7-2.6,0l-1.6-1.6-1.6,1.6c-.7,.7-1.9,.7-2.6,0-.7-.7-.7-1.9,0-2.6l1.6-1.6-1.6-1.6c-.7-.7-.7-1.9,0-2.6,.7-.7,1.9-.7,2.6,0l1.6,1.6,1.6-1.6c.7-.7,1.9-.7,2.6,0s.7,1.9,0,2.6l-1.6,1.6,1.6,1.6Z" fill="#6ee4f8" isolation="isolate" opacity=".8"/></svg>