<?xml version="1.0" encoding="UTF-8"?><svg id="a" xmlns="http://www.w3.org/2000/svg" viewBox="0 0 21.06 16.52"><path d="M17.58,2.74H3.48c-1.92,0-3.48,1.56-3.48,3.48v6.82c0,1.92,1.56,3.48,3.48,3.48h14.1c1.92,0,3.48-1.56,3.48-3.48V6.22c0-1.92-1.56-3.48-3.48-3.48Zm-2.86,8.45c.71,.71,.71,1.86,0,2.57-.71,.71-1.86,.71-2.57,0l-1.63-1.63-1.63,1.63c-.71,.71-1.86,.71-2.57,0-.71-.71-.71-1.86,0-2.57l1.63-1.63-1.63-1.63c-.71-.71-.71-1.86,0-2.57,.71-.71,1.86-.71,2.57,0l1.63,1.63,1.63-1.63c.71-.71,1.86-.71,2.57,0,.71,.71,.71,1.86,0,2.57l-1.63,1.63,1.63,1.63Z" fill="#6ee4f8" isolation="isolate" opacity=".8"/><path d="M3.48,2.74H12.44v-.88c0-1.03-.83-1.86-1.86-1.86H1.86C.83,0,0,.83,0,1.86V6.04s0,.06,0,.09c.05-1.88,1.58-3.39,3.47-3.39Z" fill="#1785ff" isolation="isolate" opacity=".8"/></svg>