<?xml version="1.0" encoding="utf-8"?>
<!-- Generator: Adobe Illustrator 27.0.0, SVG Export Plug-In . SVG Version: 6.00 Build 0)  -->
<svg version="1.1" id="a" xmlns="http://www.w3.org/2000/svg" xmlns:xlink="http://www.w3.org/1999/xlink" x="0px" y="0px"
	 viewBox="0 0 24 24" style="enable-background:new 0 0 24 24;" xml:space="preserve">
<style type="text/css">
	.st0{opacity:0.8;fill:#1785FF;enable-background:new    ;}
	.st1{opacity:0.8;fill:#6EE4F8;enable-background:new    ;}
</style>
<path class="st0" d="M7.8,9.1c0.7-0.7,1.9-0.7,2.6,0l1.6,1.6l1.6-1.6c0.1-0.1,0.2-0.2,0.3-0.2V5.6c0-1-0.8-1.9-1.9-1.9H3.3
	c-1,0-1.9,0.8-1.9,1.9v4.2c0,1,0.8,1.9,1.9,1.9h4.4C7.1,10.9,7.1,9.8,7.8,9.1z"/>
<path class="st1" d="M19,6.5H5C3,6.5,1.5,8,1.5,10v6.8c0,1.9,1.6,3.5,3.5,3.5H19c1.9,0,3.5-1.6,3.5-3.5V10C22.5,8,21,6.5,19,6.5z
	 M16.2,14.9c0.7,0.7,0.7,1.9,0,2.6c-0.7,0.7-1.9,0.7-2.6,0L12,15.9l-1.6,1.6c-0.7,0.7-1.9,0.7-2.6,0c-0.7-0.7-0.7-1.9,0-2.6l1.6-1.6
	l-1.6-1.6c-0.7-0.7-0.7-1.9,0-2.6c0.7-0.7,1.9-0.7,2.6,0l1.6,1.6l1.6-1.6c0.7-0.7,1.9-0.7,2.6,0c0.7,0.7,0.7,1.9,0,2.6l-1.6,1.6
	L16.2,14.9z"/>
</svg>
