<?xml version="1.0" encoding="UTF-8"?><svg id="a" xmlns="http://www.w3.org/2000/svg" viewBox="0 0 24 24"><path d="M20.05,5.96H3.96c-1.92,0-3.48,1.56-3.48,3.48v8.11c0,1.92,1.56,3.48,3.48,3.48H20.05c1.92,0,3.48-1.56,3.48-3.48V9.44c0-1.92-1.56-3.48-3.48-3.48Zm-3.86,8.97c.71,.71,.71,1.86,0,2.57-.71,.71-1.86,.71-2.57,0l-1.63-1.63-1.63,1.63c-.71,.71-1.86,.71-2.57,0-.71-.71-.71-1.86,0-2.57l1.63-1.63-1.63-1.63c-.71-.71-.71-1.86,0-2.57,.71-.71,1.86-.71,2.57,0l1.63,1.63,1.63-1.63c.71-.71,1.86-.71,2.57,0,.71,.71,.71,1.86,0,2.57l-1.63,1.63,1.63,1.63Z" fill="#6ee4f8" isolation="isolate" opacity=".8"/><path d="M3.96,5.96H14.1v-1.14c0-1.03-.83-1.86-1.86-1.86H2.34c-1.03,0-1.86,.83-1.86,1.86v4.62c0-1.92,1.56-3.48,3.48-3.48Z" fill="#1785ff" isolation="isolate" opacity=".8"/></svg>