<?xml version="1.0" encoding="UTF-8"?><svg id="a" xmlns="http://www.w3.org/2000/svg" viewBox="0 0 24 24"><path d="M11.67,23.29c-.02-.06-.04-.12-.06-.19-.04-.19-.06-.39-.06-.59V13.46c0-1.64,1.34-2.98,2.98-2.98h6.87V3.02c0-1.46-1.19-2.65-2.65-2.65H5.25C3.79,.37,2.6,1.56,2.6,3.02V20.99c0,1.46,1.19,2.65,2.65,2.65h6.52c-.05-.11-.07-.23-.1-.35Z" fill="#6e85f8"/><rect x="4.74" y="3.09" width="11.29" height="2.43" rx=".92" ry=".92" fill="#73ff9d"/><rect x="4.74" y="6.66" width="13.15" height="2.43" rx=".92" ry=".92" fill="#73ff9d"/><g><path d="M19.03,17.99l3.48-3.48c.93-.93,.27-2.53-1.04-2.53h-6.94c-.82,0-1.48,.66-1.48,1.48v9.06c0,.81,.66,1.48,1.48,1.48h6.94c1.32,0,1.98-1.6,1.05-2.52l-3.48-3.48h0Z" fill="#9a8bff"/><path d="M19.03,17.99l3.48-3.48c.93-.93,.27-2.53-1.04-2.53h-2.09l-6.34,6.33v4.2c0,.4,.16,.77,.42,1.03l5.56-5.56h0Z" fill="#ff8bf5"/></g><path d="M14.31,10.5c-.17-.17-.4-.27-.65-.27H5.66c-.51,0-.92,.41-.92,.92v.59c0,.51,.41,.92,.92,.92h6.01c.33-1.18,1.37-2.06,2.64-2.16Z" fill="#73ff9d"/></svg>