<?xml version="1.0" encoding="UTF-8"?><svg id="a" xmlns="http://www.w3.org/2000/svg" viewBox="0 0 19.52 22.25"><path d="M15.8,10.05c-.3,.2-.6,.4-.9,.6l-1.1,.7-1.1-.7c-.3-.2-.6-.4-1-.6-1.3-.8-2.8-1.8-4.3-3.5v-.2c-1.1-1.5-1.5-3.3-1.1-4.8H2.7C1.2,1.55,0,2.75,0,4.25v15.3c0,1.5,1.2,2.7,2.7,2.7H14.1c1.5,0,2.7-1.2,2.7-2.7V9.35c-.4,.3-.7,.5-1,.7Z" fill="#6e85f8"/><path d="M2.9,10.25h6.9c.5,0,.9,.4,.9,.9v.3c0,.5-.4,.9-.9,.9H2.9c-.5,0-.9-.4-.9-.9v-.3c0-.5,.4-.9,.9-.9Z" fill="#73ff9d"/><path d="M13.8,1.14c.28-.17,1.16-.71,2.48-1.05,3.03-.66,4.18,2.64,2.42,5.17-1.59,1.82-3.24,2.64-4.89,3.74-1.65-1.1-3.3-1.93-4.89-3.74C7.15,2.74,8.3-.62,11.33,.1c1.32,.28,2.2,.88,2.48,1.05" fill="#ff8bf5"/><path d="M8,7.15H2.9c-.5,0-1,.4-1,.9v.3c0,.5,.5,.9,1,.9h7.8c-.9-.6-1.8-1.2-2.7-2.1Z" fill="#73ff9d"/><path d="M6.3,3.95H2.9c-.5,0-1,.4-1,.9v.3c0,.5,.4,.9,.9,.9H7.1c-.3-.6-.7-1.4-.8-2.1Z" fill="#73ff9d"/></svg>