<?xml version="1.0" encoding="UTF-8"?><svg id="a" xmlns="http://www.w3.org/2000/svg" viewBox="0 0 24 24"><g><path d="M7.08,21.93v-.02s.87-3.24,.87-3.24c0-.01,0-.02,0-.03l.08-.29s.03-.06,.04-.1c.05-.15,.11-.29,.18-.43,.03-.06,.06-.13,.1-.19,.15-.26,.33-.52,.55-.74l2.35-2.35c.05-.84,.39-1.63,1-2.24l4.51-4.51c1.23-1.23,3.29-1.29,4.64-.23V3.02c0-1.46-1.19-2.65-2.65-2.65H5.25C3.79,.37,2.6,1.56,2.6,3.02V20.99c0,1.46,1.19,2.65,2.65,2.65h1.96c-.22-.54-.29-1.13-.14-1.71Z" fill="#6e85f8"/><path d="M15.43,23.42c-.08,.08-.18,.15-.27,.22h3.59c1.46,0,2.65-1.19,2.65-2.65v-3.55l-5.97,5.97Z" fill="#6e85f8"/></g><rect x="4.74" y="3.09" width="11.29" height="2.43" rx=".92" ry=".92" fill="#73ff9d"/><g><rect x="13.37" y="10.97" width="8.79" height="4.68" rx="1.21" ry="1.21" transform="translate(-4.2 16.46) rotate(-45)" fill="#1785ff"/><path d="M9.28,22.5l.96-3.57c.08-.32,.49-.44,.73-.2l2.61,2.61c.24,.24,.13,.65-.2,.73l-3.57,.96c-.32,.08-.62-.21-.54-.54Z" fill="#1785ff"/><rect x="9.2" y="13.57" width="14.42" height="4.68" rx="1.21" ry="1.21" transform="translate(-6.45 16.26) rotate(-45)" fill="#6ee4f8"/></g><path d="M16.76,7.79c.29-.29,.63-.5,.99-.66-.16-.27-.44-.47-.78-.47H5.66c-.51,0-.92,.41-.92,.92v.59c0,.51,.41,.92,.92,.92H15.46l1.3-1.3Z" fill="#73ff9d"/><path d="M12.25,12.3l1.9-1.9c-.15-.1-.31-.17-.5-.17H5.66c-.51,0-.92,.41-.92,.92v.59c0,.51,.41,.92,.92,.92h6.3c.09-.12,.19-.25,.3-.36Z" fill="#73ff9d"/></svg>