<?xml version="1.0" encoding="utf-8"?>
<!-- Generator: Adobe Illustrator 27.0.0, SVG Export Plug-In . SVG Version: 6.00 Build 0)  -->
<svg version="1.1" id="a" xmlns="http://www.w3.org/2000/svg" xmlns:xlink="http://www.w3.org/1999/xlink" x="0px" y="0px"
	 viewBox="0 0 24 24" style="enable-background:new 0 0 24 24;" xml:space="preserve">
<style type="text/css">
	.st0{fill:#6E85F8;}
	.st1{fill:#73FF9D;}
	.st2{fill:#FF8BF5;}
</style>
<path class="st0" d="M19.4,10.2c-0.3,0.2-0.6,0.4-0.9,0.6l-1.1,0.7l-1.1-0.7c-0.3-0.2-0.6-0.4-1-0.6c-1.3-0.8-2.8-1.8-4.3-3.5
	L11,6.5C9.9,5,9.5,3.2,9.9,1.7H6.3c-1.5,0-2.7,1.2-2.7,2.7v15.3c0,1.5,1.2,2.7,2.7,2.7h11.4c1.5,0,2.7-1.2,2.7-2.7V9.5
	C20,9.8,19.7,10,19.4,10.2z"/>
<path class="st1" d="M6.5,10.4h6.9c0.5,0,0.9,0.4,0.9,0.9v0.3c0,0.5-0.4,0.9-0.9,0.9H6.5c-0.5,0-0.9-0.4-0.9-0.9v-0.3
	C5.6,10.8,6,10.4,6.5,10.4z"/>
<g transform="translate(10.799999999999999 -2.5) scale(0.55 0.55)">
	<path class="st2" d="M12,6.9c0.5-0.3,2.1-1.3,4.5-1.9c5.5-1.2,7.6,4.8,4.4,9.4C18,17.7,15,19.2,12,21.2c-3-2-6-3.5-8.9-6.8
		C-0.1,9.8,2,3.7,7.5,5C9.9,5.5,11.5,6.6,12,6.9"/>
</g>
<path class="st1" d="M11.6,7.3H6.5C6,7.3,5.5,7.7,5.5,8.2v0.3C5.5,9,6,9.4,6.5,9.4h7.8C13.4,8.8,12.5,8.2,11.6,7.3z"/>
<path class="st1" d="M9.9,4.1H6.5C6,4.1,5.5,4.5,5.5,5v0.3c0,0.5,0.4,0.9,0.9,0.9h4.3C10.4,5.6,10,4.8,9.9,4.1z"/>
</svg>
