<?xml version="1.0" encoding="UTF-8"?><svg id="a" xmlns="http://www.w3.org/2000/svg" viewBox="0 0 24 24"><path d="M17.4,1.28c.26-.15,1.16-.74,2.47-1.03,3.02-.69,4.18,2.64,2.4,5.15-1.59,1.83-3.24,2.67-4.87,3.75-1.63-1.08-3.28-1.92-4.87-3.75C10.75,2.88,11.91-.44,14.93,.24c1.31,.3,2.21,.89,2.47,1.03" fill="#ff8bf5"/><path d="M19.37,10.16c-.31,.19-.61,.39-.92,.59l-1.07,.7-1.06-.71c-.32-.21-.64-.42-.96-.62-1.33-.84-2.85-1.8-4.3-3.47l-.12-.15c-1.37-1.93-1.56-4.35-.53-6.13H5.25C3.79,.37,2.6,1.56,2.6,3.02V20.99c0,1.46,1.19,2.65,2.65,2.65h13.5c1.46,0,2.65-1.19,2.65-2.65V8.79c-.7,.52-1.38,.96-2.03,1.36Z" fill="#6e85f8"/><rect x="4.74" y="10.23" width="9.84" height="2.43" rx=".92" ry=".92" fill="#73ff9d"/><g><path d="M17.4,6.85s.04-.02,.05-.04c-.09-.06-.19-.09-.29-.12,.08,.05,.16,.1,.24,.15Z" fill="#73ff9d"/><path d="M11.07,6.66H5.66c-.51,0-.92,.41-.92,.92v.59c0,.51,.41,.92,.92,.92H13.8c-.89-.63-1.82-1.39-2.72-2.43Z" fill="#73ff9d"/></g><path d="M9.77,3.09H5.66c-.51,0-.92,.41-.92,.92v.59c0,.51,.41,.92,.92,.92h4.72c-.38-.79-.58-1.62-.61-2.43Z" fill="#73ff9d"/></svg>