<?xml version="1.0" encoding="UTF-8"?><svg id="a" xmlns="http://www.w3.org/2000/svg" viewBox="0 0 19.29 22.32"><path d="M7.89,11.78c0-1.64,1.34-2.98,2.98-2.98h5.81V2.65c0-1.46-1.19-2.65-2.65-2.65H2.65C1.19,0,0,1.19,0,2.65v15.35c0,1.46,1.19,2.65,2.65,2.65H7.89V11.78Z" fill="#6e85f8"/><rect x="1.89" y="2.41" width="10.02" height="2.16" rx=".92" ry=".92" fill="#73ff9d"/><rect x="1.89" y="5.58" width="11.67" height="2.16" rx=".92" ry=".92" fill="#73ff9d"/><g><path d="M15.37,16.31l3.48-3.48c.93-.93,.27-2.53-1.04-2.53h-6.94c-.82,0-1.48,.66-1.48,1.48v9.06c0,.81,.66,1.48,1.48,1.48h6.94c1.32,0,1.98-1.6,1.05-2.52l-3.48-3.48h0Z" fill="#9a8bff"/><path d="M15.37,16.31l3.48-3.48c.93-.93,.27-2.53-1.04-2.53h-2.09l-6.34,6.33v4.2c0,.4,.16,.77,.42,1.03l5.56-5.56h0Z" fill="#ff8bf5"/></g><path d="M10.16,8.89c-.14-.08-.29-.14-.46-.14H2.81c-.51,0-.92,.41-.92,.92v.32c0,.51,.41,.92,.92,.92h5.22c.31-.99,1.11-1.77,2.13-2.02Z" fill="#73ff9d"/></svg>