<?xml version="1.0" encoding="UTF-8"?><svg id="a" xmlns="http://www.w3.org/2000/svg" viewBox="0 0 24 24"><path d="M18.19,22.64l.03-.16-.25-.22c-.11-.11-.21-.24-.29-.37-.15,.05-.3,.08-.45,.1-.06,0-.12,0-.18,0-.64,0-1.23-.3-1.6-.79-.63,.26-1.36,.2-1.94-.21s-.9-1.07-.87-1.75c-.65-.2-1.17-.72-1.35-1.41s0-1.4,.46-1.9c-.37-.58-.43-1.31-.13-1.95,.29-.62,.86-1.04,1.5-1.14v-.09s.11-.12,.11-.12c.13-.6,.54-1.11,1.12-1.38,.64-.3,1.37-.24,1.95,.13,.5-.47,1.21-.65,1.9-.47,.69,.19,1.21,.7,1.41,1.35,.69-.02,1.34,.28,1.75,.86,.02,.03,.03,.07,.05,.1V3.02c0-1.46-1.19-2.65-2.65-2.65H5.25C3.79,.37,2.6,1.56,2.6,3.02V20.99c0,1.46,1.19,2.65,2.65,2.65h13.05c-.11-.31-.16-.65-.11-1Z" fill="#6e85f8"/><rect x="4.74" y="3.09" width="11.29" height="2.43" rx=".92" ry=".92" fill="#73ff9d"/><rect x="4.74" y="6.66" width="13.15" height="2.43" rx=".92" ry=".92" fill="#73ff9d"/><g><path d="M14.43,13.2h0c-.11-.76,.83-1.2,1.34-.63h0c.34,.38,.96,.33,1.23-.11h0c.41-.65,1.4-.38,1.43,.38h0c.02,.51,.53,.87,1.01,.71h0c.73-.24,1.32,.61,.85,1.22h0c-.32,.4-.15,1,.32,1.2h0c.71,.28,.62,1.32-.13,1.47h0c-.51,.11-.76,.66-.52,1.12h0c.36,.68-.37,1.41-1.05,1.05h0c-.45-.24-1.01,.02-1.12,.52h0c-.16,.74-1.19,.84-1.47,.13h0c-.2-.47-.79-.64-1.2-.32h0c-.6,.47-1.45-.12-1.22-.85h0c.16-.49-.2-.99-.71-1.01h0c-.76-.03-1.03-1.03-.38-1.43h0c.43-.28,.49-.89,.11-1.23h0c-.56-.51-.13-1.45,.62-1.35h0c.51,.07,.94-.37,.88-.88h0Z" fill="#9a8bff"/><path d="M19.22,21.69l-.32-.27c-.53-.44-.3-1.29,.38-1.4l.41-.07c.28-.05,.51-.23,.61-.49l.15-.39c.26-.64,1.14-.68,1.45-.07l.19,.37c.13,.25,.38,.41,.65,.43l.41,.03c.68,.05,.99,.87,.52,1.36l-.29,.3c-.19,.2-.27,.48-.2,.76l.1,.4c.17,.66-.52,1.22-1.13,.91l-.37-.19c-.25-.12-.55-.11-.78,.04l-.35,.22c-.58,.36-1.32-.12-1.22-.8l.07-.41c.04-.27-.07-.56-.28-.73h0Z" fill="#9a8bff"/></g><path d="M13.22,12.64c.13-.6,.54-1.11,1.12-1.38,.08-.04,.16-.05,.24-.08v-.03c0-.51-.41-.92-.92-.92H5.66c-.51,0-.92,.41-.92,.92v.59c0,.51,.41,.92,.92,.92h7.54l.02-.02Z" fill="#73ff9d"/></svg>