<?xml version="1.0" encoding="UTF-8"?><svg id="a" xmlns="http://www.w3.org/2000/svg" viewBox="0 0 24 24"><path d="M16.35,22.35l-.15-.15-.15,.15c-.8,.8-1.87,1.24-3,1.24s-2.2-.44-3-1.24c-.8-.8-1.24-1.86-1.24-3s.44-2.2,1.24-3l.15-.15-.15-.15c-.8-.8-1.24-1.87-1.24-3s.44-2.2,1.24-3c.8-.8,1.86-1.24,3-1.24s2.2,.44,3,1.24l.15,.15,.15-.15c.8-.8,1.87-1.24,3-1.24,.73,0,1.43,.2,2.05,.55V3.02c0-1.46-1.19-2.65-2.65-2.65H5.25C3.79,.37,2.6,1.56,2.6,3.02V20.99c0,1.46,1.19,2.65,2.65,2.65h13.5c.18,0,.36-.02,.53-.05-1.11-.02-2.14-.45-2.93-1.24Z" fill="#6e85f8"/><path d="M18.98,16.2l1.76-1.76c.77-.77,.77-2.01,0-2.78h0c-.77-.77-2.02-.77-2.78,0l-1.76,1.76-1.76-1.76c-.77-.77-2.01-.77-2.78,0h0c-.77,.77-.77,2.01,0,2.78l1.76,1.76-1.76,1.76c-.77,.77-.77,2.01,0,2.78h0c.77,.77,2.01,.77,2.78,0l1.76-1.76,1.76,1.76c.77,.77,2.02,.77,2.78,0h0c.77-.77,.77-2.02,0-2.78,0,0-1.76-1.76-1.76-1.76Z" fill="#6ee4f8"/><rect x="4.74" y="3.09" width="11.29" height="2.43" rx=".92" ry=".92" fill="#73ff9d"/><path d="M9.9,10.23H5.66c-.51,0-.92,.41-.92,.92v.59c0,.51,.41,.92,.92,.92h3.18c.08-.91,.44-1.75,1.05-2.43Z" fill="#73ff9d"/><path d="M13.05,8.81c.52,0,1.03,.1,1.5,.28h2.42c.51,0,.92-.41,.92-.92v-.59c0-.51-.41-.92-.92-.92H5.66c-.51,0-.92,.41-.92,.92v.59c0,.51,.41,.92,.92,.92h5.89c.47-.18,.98-.28,1.5-.28Z" fill="#73ff9d"/></svg>