<?xml version="1.0" encoding="utf-8"?>
<!-- Generator: Adobe Illustrator 27.0.0, SVG Export Plug-In . SVG Version: 6.00 Build 0)  -->
<svg version="1.1" id="a" xmlns="http://www.w3.org/2000/svg" xmlns:xlink="http://www.w3.org/1999/xlink" x="0px" y="0px"
	 viewBox="0 0 24 24" style="enable-background:new 0 0 24 24;" xml:space="preserve">
<style type="text/css">
	.st0{fill:#6E85F8;}
	.st1{fill:#73FF9D;}
	.st2{fill:#9A8BFF;}
</style>
<path class="st0" d="M18,22.3c-0.1-0.1-0.2-0.2-0.3-0.4c-0.1,0-0.3,0.1-0.5,0.1c-0.1,0-0.1,0-0.2,0c-0.6,0-1.2-0.3-1.6-0.8
	c-0.6,0.3-1.4,0.2-1.9-0.2s-0.9-1.1-0.9-1.8c-0.6-0.2-1.2-0.7-1.4-1.4s0-1.4,0.5-1.9c-0.4-0.6-0.4-1.3-0.1-2c0.3-0.6,0.9-1,1.5-1.1
	l0-0.1l0.1-0.1c0.1-0.6,0.5-1.1,1.1-1.4c0.6-0.3,1.4-0.2,1.9,0.1c0.5-0.5,1.2-0.6,1.9-0.5c0.7,0.2,1.2,0.7,1.4,1.4
	c0.3,0,0.5,0,0.7,0.1V4.3c0-1.5-1.2-2.7-2.7-2.7H6.3c-1.5,0-2.7,1.2-2.7,2.7v15.3c0,1.5,1.2,2.7,2.7,2.7h11.4
	C17.8,22.3,17.9,22.3,18,22.3L18,22.3z"/>
<path class="st1" d="M6.5,4.1h8.2c0.5,0,0.9,0.4,0.9,0.9v0.3c0,0.5-0.4,0.9-0.9,0.9H6.5C6,6.2,5.6,5.8,5.6,5.3V5
	C5.6,4.5,6,4.1,6.5,4.1z"/>
<path class="st1" d="M6.5,7.3h9.8c0.5,0,0.9,0.4,0.9,0.9v0.3c0,0.5-0.4,0.9-0.9,0.9H6.5C6,9.4,5.6,9,5.6,8.5V8.2
	C5.6,7.7,6,7.3,6.5,7.3z"/>
<path class="st1" d="M14.3,11.3c0-0.5-0.4-0.9-0.9-0.9H6.5c-0.5,0-0.9,0.4-0.9,0.9v0.3c0,0.5,0.4,0.9,0.9,0.9h6.8
	C13.4,12,13.7,11.6,14.3,11.3z"/>
<g transform="translate(12 12) scale(0.5 0.5)">
	<path class="st2" d="M4.9,2.4L4.9,2.4C4.7,0.9,6.5,0,7.6,1.1l0,0C8.2,1.9,9.5,1.8,10,0.9l0,0c0.8-1.3,2.8-0.8,2.9,0.8l0,0
		c0,1,1.1,1.7,2,1.4l0,0c1.5-0.5,2.6,1.2,1.7,2.4l0,0c-0.6,0.8-0.3,2,0.6,2.4l0,0c1.4,0.6,1.2,2.6-0.3,2.9l0,0c-1,0.2-1.5,1.3-1,2.2
		l0,0c0.7,1.4-0.7,2.8-2.1,2.1l0,0c-0.9-0.5-2,0-2.2,1l0,0c-0.3,1.5-2.4,1.7-2.9,0.3l0,0c-0.4-0.9-1.6-1.3-2.4-0.6l0,0
		c-1.2,0.9-2.9-0.2-2.4-1.7l0,0c0.3-1-0.4-2-1.4-2l0,0c-1.5-0.1-2.1-2.1-0.8-2.9l0,0c0.9-0.6,1-1.8,0.2-2.5l0,0
		c-1.1-1-0.3-2.9,1.2-2.7l0,0C4.1,4.3,5,3.4,4.9,2.4L4.9,2.4z"/>
	<path class="st2" d="M14.4,19.4l-0.6-0.5c-1.1-0.9-0.6-2.6,0.8-2.8l0.8-0.1c0.6-0.1,1-0.5,1.2-1l0.3-0.8c0.5-1.3,2.3-1.4,2.9-0.1
		l0.4,0.7c0.3,0.5,0.8,0.8,1.3,0.9l0.8,0.1c1.4,0.1,2,1.7,1,2.7L22.8,19c-0.4,0.4-0.5,1-0.4,1.5l0.2,0.8c0.3,1.3-1,2.4-2.3,1.8
		l-0.7-0.4c-0.5-0.2-1.1-0.2-1.6,0.1l-0.7,0.4c-1.2,0.7-2.6-0.2-2.4-1.6l0.1-0.8C15.1,20.3,14.9,19.7,14.4,19.4L14.4,19.4z"/>
</g>
</svg>
