<?xml version="1.0" encoding="UTF-8"?><svg id="a" xmlns="http://www.w3.org/2000/svg" viewBox="0 0 17.66 20.65"><g><polygon points="12.54 20.52 12.41 20.65 12.67 20.65 12.54 20.52" fill="#6e85f8"/><path d="M5.15,17.67c0-1.13,.44-2.2,1.24-3l.15-.15-.15-.15c-.8-.8-1.24-1.87-1.24-3s.44-2.2,1.24-3c.8-.8,1.86-1.24,3-1.24s2.2,.44,3,1.24l.15,.15,.15-.15c.8-.8,1.87-1.24,3-1.24,.34,0,.67,.05,.99,.13V2.65c0-1.46-1.19-2.65-2.65-2.65H2.65C1.19,0,0,1.19,0,2.65v15.35c0,1.46,1.19,2.65,2.65,2.65h3.72c-.79-.8-1.22-1.85-1.22-2.98Z" fill="#6e85f8"/></g><rect x="1.89" y="2.41" width="10.02" height="2.16" rx=".92" ry=".92" fill="#73ff9d"/><path d="M15.32,14.52l1.76-1.76c.77-.77,.77-2.01,0-2.78h0c-.77-.77-2.02-.77-2.78,0l-1.76,1.76-1.76-1.76c-.77-.77-2.01-.77-2.78,0h0c-.77,.77-.77,2.01,0,2.78l1.76,1.76-1.76,1.76c-.77,.77-.77,2.01,0,2.78h0c.77,.77,2.01,.77,2.78,0l1.76-1.76,1.76,1.76c.77,.77,2.02,.77,2.78,0h0c.77-.77,.77-2.02,0-2.78,0,0-1.76-1.76-1.76-1.76Z" fill="#6ee4f8"/><path d="M9.39,7.13c.78,0,1.52,.22,2.17,.61h1.08c.51,0,.92-.41,.92-.92v-.32c0-.51-.41-.92-.92-.92H2.81c-.51,0-.92,.41-.92,.92v.32c0,.51,.41,.92,.92,.92H7.21c.65-.39,1.39-.61,2.17-.61Z" fill="#73ff9d"/><path d="M6.07,8.75H2.81c-.51,0-.92,.41-.92,.92v.32c0,.51,.41,.92,.92,.92h2.38c.09-.79,.39-1.53,.88-2.16Z" fill="#73ff9d"/></svg>