<?xml version="1.0" encoding="UTF-8"?><svg id="a" xmlns="http://www.w3.org/2000/svg" viewBox="0 0 20.3 22.12"><path d="M14.4,20.7c-.1-.1-.2-.2-.3-.4-.1,0-.3,.1-.5,.1h-.2c-.6,0-1.2-.3-1.6-.8-.6,.3-1.4,.2-1.9-.2s-.9-1.1-.9-1.8c-.6-.2-1.2-.7-1.4-1.4s0-1.4,.5-1.9c-.4-.6-.4-1.3-.1-2,.3-.6,.9-1,1.5-1.1v-.1l.1-.1c.1-.6,.5-1.1,1.1-1.4,.6-.3,1.4-.2,1.9,.1,.5-.5,1.2-.6,1.9-.5,.7,.2,1.2,.7,1.4,1.4,.3,0,.5,0,.7,.1V2.7c0-1.5-1.2-2.7-2.7-2.7H2.7C1.2,0,0,1.2,0,2.7v15.3c0,1.5,1.2,2.7,2.7,2.7H14.1c.1,0,.2,0,.3,0h0Z" fill="#6e85f8"/><path d="M2.9,2.5H11.1c.5,0,.9,.4,.9,.9v.3c0,.5-.4,.9-.9,.9H2.9c-.5,0-.9-.4-.9-.9v-.3c0-.5,.4-.9,.9-.9Z" fill="#73ff9d"/><path d="M2.9,5.7H12.7c.5,0,.9,.4,.9,.9v.3c0,.5-.4,.9-.9,.9H2.9c-.5,0-.9-.4-.9-.9v-.3c0-.5,.4-.9,.9-.9Z" fill="#73ff9d"/><path d="M10.7,9.7c0-.5-.4-.9-.9-.9H2.9c-.5,0-.9,.4-.9,.9v.3c0,.5,.4,.9,.9,.9h6.8c.1-.5,.4-.9,1-1.2Z" fill="#73ff9d"/><g><path d="M10.85,11.6h0c-.1-.75,.8-1.2,1.35-.65h0c.3,.4,.95,.35,1.2-.1h0c.4-.65,1.4-.4,1.45,.4h0c0,.5,.55,.85,1,.7h0c.75-.25,1.3,.6,.85,1.2h0c-.3,.4-.15,1,.3,1.2h0c.7,.3,.6,1.3-.15,1.45h0c-.5,.1-.75,.65-.5,1.1h0c.35,.7-.35,1.4-1.05,1.05h0c-.45-.25-1,0-1.1,.5h0c-.15,.75-1.2,.85-1.45,.15h0c-.2-.45-.8-.65-1.2-.3h0c-.6,.45-1.45-.1-1.2-.85h0c.15-.5-.2-1-.7-1h0c-.75-.05-1.05-1.05-.4-1.45h0c.45-.3,.5-.9,.1-1.25h0c-.55-.5-.15-1.45,.6-1.35h0c.5,.15,.95-.3,.9-.8h0Z" fill="#9a8bff"/><path d="M15.6,20.1l-.3-.25c-.55-.45-.3-1.3,.4-1.4l.4-.05c.3-.05,.5-.25,.6-.5l.15-.4c.25-.65,1.15-.7,1.45-.05l.2,.35c.15,.25,.4,.4,.65,.45l.4,.05c.7,.05,1,.85,.5,1.35l-.25,.25c-.2,.2-.25,.5-.2,.75l.1,.4c.15,.65-.5,1.2-1.15,.9l-.35-.2c-.25-.1-.55-.1-.8,.05l-.35,.2c-.6,.35-1.3-.1-1.2-.8l.05-.4c.05-.25-.05-.55-.3-.7h0Z" fill="#9a8bff"/></g></svg>