<?xml version="1.0" encoding="utf-8"?>
<!-- Generator: Adobe Illustrator 27.0.0, SVG Export Plug-In . SVG Version: 6.00 Build 0)  -->
<svg version="1.1" id="a" xmlns="http://www.w3.org/2000/svg" xmlns:xlink="http://www.w3.org/1999/xlink" x="0px" y="0px"
	 viewBox="0 0 24 24" style="enable-background:new 0 0 24 24;" xml:space="preserve">
<style type="text/css">
	.st0{fill:#1785FF;}
	.st1{fill:#FF8BF5;}
	.st2{fill:#FF8BF5;stroke:#FF8BF5;stroke-width:0.8125;stroke-linejoin:round;stroke-miterlimit:2.6;}
	.st3{fill:#6EE4F8;}
</style>
<path class="st0" d="M13.9,9.1V5.6c0-1-0.8-1.9-1.9-1.9H3.3c-1,0-1.9,0.8-1.9,1.9v4.2c0,1,0.8,1.9,1.9,1.9h6.8
	C10.6,10.3,12.1,9.5,13.9,9.1z"/>
<g transform="translate(9.399999999999999 8.399999999999999) scale(0.65 0.65)">
	<ellipse class="st1" cx="12" cy="6.1" rx="8.5" ry="3"/>
	<path class="st2" d="M3.5,8.1v4c4,3,13,3,17,0v-4C16.5,11,7.5,11.1,3.5,8.1z"/>
	<path class="st2" d="M3.5,14v4c4,3,13,3,17,0v-4C16.5,16.9,7.5,17,3.5,14z"/>
</g>
<path class="st3" d="M10,20.1v-2.6c0-0.2,0.1-0.4,0.1-0.6c-0.1-0.2-0.1-0.4-0.1-0.6v-2.6c0-0.2,0-0.4,0.1-0.6
	c-0.1-0.2-0.1-0.5-0.1-0.7c0-2.6,3.9-3.6,7.2-3.6c1.9,0,3.9,0.3,5.3,1C22.4,8,20.9,6.5,19,6.5H5C3,6.5,1.5,8,1.5,10v6.8
	c0,1.9,1.6,3.5,3.5,3.5h5.1C10.1,20.2,10,20.1,10,20.1z"/>
</svg>
