<?xml version="1.0" encoding="UTF-8"?><svg id="a" xmlns="http://www.w3.org/2000/svg" viewBox="0 0 22.04 19.32"><path d="M12.44,5.29V1.86c0-1.03-.83-1.86-1.86-1.86H1.86C.83,0,0,.83,0,1.86V6.04c0,1.03,.83,1.86,1.86,1.86h7.49c.78-1.09,1.86-2.04,3.09-2.61Z" fill="#1785ff"/><g><path d="M21.31,13.6l-1.05-.6c.02-.18,.03-.35,.03-.53,0-.16,0-.31-.03-.47l1.03-.6c.7-.4,.94-1.29,.53-1.99l-.38-.66c-.4-.7-1.29-.94-1.99-.53l-1.02,.59c-.27-.2-.57-.38-.89-.52v-1.17c0-.81-.65-1.46-1.46-1.46h-.77c-.81,0-1.46,.65-1.46,1.46v1.17c-.32,.14-.61,.31-.88,.52l-1.02-.59c-.7-.4-1.59-.16-1.99,.53l-.38,.66c-.4,.7-.16,1.59,.53,1.99l1.04,.6c-.01,.15-.03,.31-.03,.46,0,.18,.01,.36,.03,.53l-1.05,.6c-.7,.4-.94,1.29-.53,1.99l.38,.66c.4,.7,1.29,.94,1.99,.53l1.07-.62c.26,.19,.53,.35,.83,.48v1.24c0,.81,.65,1.46,1.46,1.46h.77c.81,0,1.46-.65,1.46-1.46v-1.24c.3-.13,.57-.29,.83-.48l1.07,.62c.7,.4,1.59,.16,1.99-.53l.38-.66c.4-.7,.16-1.59-.53-1.99l.02,.02Zm-2.92-.27c-.85,.96-1.74,1.4-2.61,1.97-.87-.57-1.75-1.01-2.61-1.97-.95-1.32-.33-3.07,1.28-2.7,.7,.16,1.18,.47,1.32,.55,.14-.08,.62-.39,1.32-.55,1.61-.36,2.24,1.38,1.28,2.7h.01Z" fill="#ff8bf5"/><path d="M15.78,11.17c.14-.08,.62-.39,1.32-.55,1.61-.36,2.24,1.38,1.28,2.7-.85,.96-1.74,1.4-2.61,1.97-.87-.57-1.75-1.01-2.61-1.97-.95-1.32-.33-3.07,1.28-2.7,.7,.16,1.18,.47,1.32,.55" fill="none"/></g><path d="M7.93,12.43c0-4.31,3.49-7.8,7.8-7.8,2.06,0,3.93,.81,5.33,2.12v-.53c0-1.92-1.56-3.48-3.48-3.48H3.48c-1.92,0-3.48,1.56-3.48,3.48v6.82c0,1.92,1.56,3.48,3.48,3.48h5.61c-.73-1.19-1.16-2.59-1.16-4.09Z" fill="#6ee4f8"/></svg>