<?xml version="1.0" encoding="utf-8"?>
<!-- Generator: Adobe Illustrator 27.0.0, SVG Export Plug-In . SVG Version: 6.00 Build 0)  -->
<svg version="1.1" id="a" xmlns="http://www.w3.org/2000/svg" xmlns:xlink="http://www.w3.org/1999/xlink" x="0px" y="0px"
	 viewBox="0 0 24 24" style="enable-background:new 0 0 24 24;" xml:space="preserve">
<style type="text/css">
	.st0{fill:#1785FF;}
	.st1{fill:#6EE4F8;}
	.st2{fill:#FF8BF5;}
</style>
<path class="st0" d="M3.3,3.7h8.7c1,0,1.9,0.8,1.9,1.9v4.2c0,1-0.8,1.9-1.9,1.9H3.3c-1,0-1.9-0.8-1.9-1.9V5.6
	C1.5,4.6,2.3,3.7,3.3,3.7z"/>
<path class="st1" d="M10.3,13.7c1.1-1.7,3.1-2.4,5.2-1.9c0.9,0.2,1.7,0.5,2.2,0.8c0.6-0.3,1.3-0.6,2.2-0.8c0.9-0.2,1.7-0.2,2.5,0V10
	C22.5,8,21,6.5,19,6.5H5C3,6.5,1.5,8,1.5,10v6.8c0,1.9,1.6,3.5,3.5,3.5h5.6C9.2,18.1,9.1,15.5,10.3,13.7z"/>
<g transform="translate(10.600000000000001 10.850000000000001) scale(0.6 0.6)">
	<path class="st2" d="M12,6.9c0.5-0.3,2.1-1.3,4.5-1.9c5.5-1.3,7.6,4.8,4.4,9.4C18,17.7,15,19.2,12,21.2c-3-2-6-3.5-8.9-6.8
		C-0.1,9.8,2,3.7,7.5,5C9.9,5.5,11.5,6.6,12,6.9"/>
</g>
</svg>
