<?xml version="1.0" encoding="UTF-8"?><svg id="a" xmlns="http://www.w3.org/2000/svg" viewBox="0 0 22.1 19.91"><path d="M10.1,7.2h2c.3-.3,.4-.7,.4-1.2V1.9c0-1-.8-1.9-1.9-1.9H1.9C.9,0,0,.8,0,1.9V6.1c0,1,.8,1.9,1.9,1.9h6.2c.6-.5,1.3-.8,2-.8Z" fill="#1785ff"/><g><path d="M15.9,11.33l-1.23-2.34c-.2-.39-.2-.78,0-1.17l1.36-2.27c.2-.39,.58-.58,1.04-.58l2.67,.07c.39,0,.78,.26,.97,.58l1.23,2.34c.19,.39,.19,.78,0,1.17l-1.37,2.27c-.19,.39-.58,.58-1.04,.58l-2.6-.07c-.45,0-.84-.26-1.04-.58Z" fill="#ff8bf5"/><path d="M15.77,19.26l-1.23-2.27c-.2-.39-.2-.78,0-1.17l1.37-2.27c.2-.39,.58-.58,1.04-.58l2.6,.07c.39,0,.78,.26,.97,.58l1.3,2.27c.19,.39,.19,.78,0,1.17l-1.37,2.27c-.19,.32-.58,.58-1.04,.58l-2.6-.07c-.52,.07-.85-.19-1.04-.58Z" fill="#ff8bf5"/><path d="M8.88,15.1l-1.24-2.27c-.2-.39-.2-.78,0-1.17l1.36-2.27c.19-.39,.59-.59,1.04-.59l2.66,.06c.39,0,.78,.26,.97,.59l1.23,2.27c.2,.39,.2,.78,0,1.17l-1.37,2.27c-.2,.32-.58,.58-1.04,.58h-2.6c-.46,0-.84-.26-1.04-.65Z" fill="#ff8bf5"/></g><path d="M7.5,15.9l-1.3-2.3c-.5-.9-.5-1.9,.1-2.8l1.3-2.2c.5-.8,1.4-1.3,2.4-1.3l2.6,.1c.1,0,.3,0,.4,.1,.1-.1,.1-.2,.2-.4l1.4-2.2c.5-.8,1.4-1.4,2.4-1.3l2.6,.1c-.6-.4-1.3-.7-2-.7H3.6C1.6,2.8,.1,4.3,.1,6.3v6.8c0,1.9,1.6,3.5,3.5,3.5H8c-.2-.2-.4-.4-.5-.7Z" fill="#6ee4f8"/></svg>