<?xml version="1.0" encoding="UTF-8"?><svg id="a" xmlns="http://www.w3.org/2000/svg" viewBox="0 0 22.12 19.81"><rect x="0" width="12.44" height="7.9" rx="1.86" ry="1.86" fill="#1785ff"/><path d="M15.89,11.23c.29-.16,1.27-.8,2.69-1.13,3.29-.75,4.56,2.88,2.62,5.62-1.73,1.99-3.53,2.91-5.32,4.09-1.78-1.18-3.58-2.09-5.32-4.09-1.94-2.74-.67-6.37,2.63-5.62,1.43,.32,2.41,.97,2.69,1.13" fill="#ff8bf5"/><path d="M8.43,9.96c1.12-1.68,3.08-2.39,5.23-1.9,.91,.21,1.66,.51,2.23,.79,.57-.27,1.33-.58,2.23-.79,1.05-.24,2.06-.19,2.94,.12v-1.96c0-1.92-1.56-3.48-3.48-3.48H3.48c-1.92,0-3.48,1.56-3.48,3.48v6.82c0,1.92,1.56,3.48,3.48,3.48h5.12c-1.31-2.14-1.4-4.72-.17-6.56Z" fill="#6ee4f8"/></svg>