<?xml version="1.0" encoding="UTF-8"?><svg id="a" xmlns="http://www.w3.org/2000/svg" viewBox="0 0 22.17 18.48"><path d="M1.9,0H10.6c1,0,1.9,.8,1.9,1.9V6.1c0,1-.8,1.9-1.9,1.9H1.9c-1,0-1.9-.8-1.9-1.9V1.9C.1,.9,.9,0,1.9,0Z" fill="#1785ff"/><path d="M8.1,15.6l-.1-.2c-1.1-1.6-1.2-3.6-.3-5.1,.8-1.2,2.2-1.8,3.7-1.6,.2-.2,.5-.3,.8-.5h.1c.6-.3,1.4-.4,2.2-.5-.2-.9,0-1.7,.5-2.5,.7-1,2.1-1.3,3.2-.6,.8,.5,1.2,1.5,.9,2.5,.1,.2,.2,.4,.2,.6,.6,.1,1.2,.1,1.8,.3v-1.7c0-2-1.5-3.5-3.5-3.5H3.6C1.6,2.8,.1,4.3,.1,6.3v6.8c0,1.9,1.6,3.5,3.5,3.5h5.5c-.4-.3-.7-.6-1-1Z" fill="#6ee4f8"/><g><g><path d="M13.78,16.53c-1.36-.32-2.99-1.3-3.96-2.34-1.04-1.5-.39-3.44,1.43-3.05,.78,.2,1.3,.52,1.5,.58" fill="none" stroke="#9a8bff" stroke-miterlimit="4.22" stroke-width="1.06"/><path d="M13.78,10.35h6.76c.91,0,1.62,.72,1.62,1.62v1.95c0,2.54-2.02,4.55-4.55,4.55h-.91c-2.53,0-4.55-2.02-4.55-4.55v-1.95c0-.91,.78-1.63,1.62-1.63Z" fill="#ff8bf5"/><ellipse cx="17.23" cy="10.81" rx="4.49" ry=".85" fill="#9a8bff"/></g><path d="M16.9,6.58c-.85,1.3,.91,1.3,0,2.6" fill="none" stroke="#ff8bf5" stroke-linecap="round" stroke-miterlimit="4.22" stroke-width=".84"/></g></svg>