<?xml version="1.0" encoding="utf-8"?>
<!-- Generator: Adobe Illustrator 27.0.0, SVG Export Plug-In . SVG Version: 6.00 Build 0)  -->
<svg version="1.1" id="a" xmlns="http://www.w3.org/2000/svg" xmlns:xlink="http://www.w3.org/1999/xlink" x="0px" y="0px"
	 viewBox="0 0 24 24" style="enable-background:new 0 0 24 24;" xml:space="preserve">
<style type="text/css">
	.st0{fill:#1785FF;}
	.st1{fill:#FF8BF5;}
	.st2{fill:#6EE4F8;}
</style>
<path class="st0" d="M11.5,10.9l2,0c0.3-0.3,0.4-0.7,0.4-1.2V5.6c0-1-0.8-1.9-1.9-1.9H3.3c-1,0-1.9,0.8-1.9,1.9v4.2
	c0,1,0.8,1.9,1.9,1.9h6.2C10.1,11.2,10.8,10.9,11.5,10.9z"/>
<g transform="translate(8.399999999999999 8.399999999999999) scale(0.65 0.65)">
	<path class="st1" d="M13.7,10.2l-1.9-3.6c-0.3-0.6-0.3-1.2,0-1.8l2.1-3.5c0.3-0.6,0.9-0.9,1.6-0.9l4.1,0.1c0.6,0,1.2,0.4,1.5,0.9
		L23,5c0.3,0.6,0.3,1.2,0,1.8l-2.1,3.5c-0.3,0.6-0.9,0.9-1.6,0.9l-4-0.1C14.6,11.1,14,10.7,13.7,10.2z"/>
	<path class="st1" d="M13.5,22.4l-1.9-3.5c-0.3-0.6-0.3-1.2,0-1.8l2.1-3.5c0.3-0.6,0.9-0.9,1.6-0.9l4,0.1c0.6,0,1.2,0.4,1.5,0.9
		l2,3.5c0.3,0.6,0.3,1.2,0,1.8l-2.1,3.5c-0.3,0.5-0.9,0.9-1.6,0.9l-4-0.1C14.3,23.4,13.8,23,13.5,22.4z"/>
	<path class="st1" d="M2.9,16L1,12.5c-0.3-0.6-0.3-1.2,0-1.8l2.1-3.5c0.3-0.6,0.9-0.9,1.6-0.9l4.1,0.1c0.6,0,1.2,0.4,1.5,0.9
		l1.9,3.5c0.3,0.6,0.3,1.2,0,1.8l-2.1,3.5c-0.3,0.5-0.9,0.9-1.6,0.9L4.5,17C3.8,17,3.2,16.6,2.9,16z"/>
</g>
<path class="st2" d="M8.9,19.6l-1.3-2.3c-0.5-0.9-0.5-1.9,0.1-2.8L9,12.3c0.5-0.8,1.4-1.3,2.4-1.3l2.6,0.1c0.1,0,0.3,0,0.4,0.1
	c0.1-0.1,0.1-0.2,0.2-0.4l1.4-2.2c0.5-0.8,1.4-1.4,2.4-1.3l2.6,0.1c-0.6-0.4-1.3-0.7-2-0.7H5C3,6.5,1.5,8,1.5,10v6.8
	c0,1.9,1.6,3.5,3.5,3.5h4.4C9.2,20.1,9,19.9,8.9,19.6z"/>
</svg>
