<?xml version="1.0" encoding="UTF-8"?><svg id="a" xmlns="http://www.w3.org/2000/svg" viewBox="0 0 21.66 18.21"><path d="M12.44,5.32V1.86c0-1.03-.83-1.86-1.86-1.86H1.86C.83,0,0,.83,0,1.86V6.04c0,1.03,.83,1.86,1.86,1.86h6.82c.41-1.33,1.94-2.18,3.76-2.58Z" fill="#1785ff"/><g><ellipse cx="15.73" cy="8.63" rx="5.52" ry="1.96" fill="#ff8bf5"/><path d="M10.21,9.91v2.6c2.61,1.95,8.46,1.94,11.05,0v-2.6c-2.59,1.92-8.45,1.94-11.05,0Z" fill="#ff8bf5" stroke="#ff8bf5" stroke-linejoin="round" stroke-width=".81"/><path d="M10.21,13.74v2.6c2.61,1.95,8.46,1.94,11.05,0v-2.6c-2.59,1.92-8.45,1.94-11.05,0Z" fill="#ff8bf5" stroke="#ff8bf5" stroke-linejoin="round" stroke-width=".81"/></g><path d="M8.58,16.34v-2.6c0-.21,.06-.42,.13-.61-.08-.2-.13-.4-.13-.62v-2.6c0-.2,.05-.39,.12-.57-.07-.23-.12-.46-.12-.72,0-2.65,3.85-3.59,7.15-3.59,1.86,0,3.89,.3,5.31,1.03-.08-1.85-1.59-3.33-3.46-3.33H3.48c-1.92,0-3.48,1.56-3.48,3.48v6.82c0,1.92,1.56,3.48,3.48,3.48h5.12c0-.06-.02-.12-.02-.18Z" fill="#6ee4f8"/></svg>