<?xml version="1.0" encoding="UTF-8"?><svg id="a" xmlns="http://www.w3.org/2000/svg" viewBox="0 0 24 24"><g><path d="M22.78,17.34l-1.05-.6c.02-.18,.03-.35,.03-.53,0-.16,0-.31-.03-.47l1.03-.6c.7-.4,.94-1.29,.53-1.99l-.38-.66c-.4-.7-1.29-.94-1.99-.53l-1.02,.59c-.27-.2-.57-.38-.89-.52v-1.17c0-.81-.65-1.46-1.46-1.46h-.77c-.81,0-1.46,.65-1.46,1.46v1.17c-.32,.14-.61,.31-.88,.52l-1.02-.59c-.7-.4-1.59-.16-1.99,.53l-.38,.66c-.4,.7-.16,1.59,.53,1.99l1.04,.6c-.01,.15-.03,.31-.03,.46,0,.18,.01,.36,.03,.53l-1.05,.6c-.7,.4-.94,1.29-.53,1.99l.38,.66c.4,.7,1.29,.94,1.99,.53l1.07-.62c.26,.19,.53,.35,.83,.48v1.24c0,.81,.65,1.46,1.46,1.46h.77c.81,0,1.46-.65,1.46-1.46v-1.24c.3-.13,.57-.29,.83-.48l1.07,.62c.7,.4,1.59,.16,1.99-.53l.38-.66c.4-.7,.16-1.59-.53-1.99l.02,.02Zm-2.92-.27c-.85,.96-1.74,1.4-2.61,1.97-.87-.57-1.75-1.01-2.61-1.97-.95-1.32-.33-3.07,1.28-2.7,.7,.16,1.18,.47,1.32,.55,.14-.08,.62-.39,1.32-.55,1.61-.36,2.24,1.38,1.28,2.7h.01Z" fill="#ff8bf5"/><path d="M17.25,14.91c.14-.08,.62-.39,1.32-.55,1.61-.36,2.24,1.38,1.28,2.7-.85,.96-1.74,1.4-2.61,1.97-.87-.57-1.75-1.01-2.61-1.97-.95-1.32-.33-3.07,1.28-2.7,.7,.16,1.18,.47,1.32,.55" fill="none"/></g><path d="M14.1,8.94V4.82c0-1.03-.83-1.86-1.86-1.86H2.34c-1.03,0-1.86,.83-1.86,1.86v4.92c0,1.03,.83,1.86,1.86,1.86H10.66c.82-1.12,2.15-2.1,3.44-2.66Z" fill="#1785ff"/><path d="M9.4,16.17c0-4.31,3.49-7.8,7.8-7.8,2.61,0,4.91,1.29,6.33,3.25v-2.19c0-1.92-1.56-3.48-3.48-3.48H3.96c-1.92,0-3.48,1.56-3.48,3.48v8.11c0,1.92,1.56,3.48,3.48,3.48h7.14c-1.06-1.33-1.7-3.02-1.7-4.86Z" fill="#6ee4f8"/></svg>