<?xml version="1.0" encoding="UTF-8"?><svg id="a" xmlns="http://www.w3.org/2000/svg" viewBox="0 0 22.64 19.87"><path d="M1.9,0H10.6c1,0,1.9,.8,1.9,1.9V6.1c0,1-.8,1.9-1.9,1.9H1.9c-1,0-1.9-.8-1.9-1.9V1.9C.1,.9,.9,0,1.9,0Z" fill="#1785ff"/><path d="M8.9,10c1.1-1.7,3.1-2.4,5.2-1.9,.9,.2,1.7,.5,2.2,.8,.6-.3,1.3-.6,2.2-.8,.9-.2,1.7-.2,2.5,0v-1.8c.1-2-1.4-3.5-3.4-3.5H3.6C1.6,2.8,.1,4.3,.1,6.3v6.8c0,1.9,1.6,3.5,3.5,3.5h5.6c-1.4-2.2-1.5-4.8-.3-6.6Z" fill="#6ee4f8"/><path d="M16.4,11.29c.3-.18,1.26-.78,2.7-1.14,3.3-.78,4.56,2.88,2.64,5.64-1.74,1.98-3.54,2.88-5.34,4.08-1.8-1.2-3.6-2.1-5.34-4.08-1.92-2.76-.66-6.42,2.64-5.64,1.44,.3,2.4,.96,2.7,1.14" fill="#ff8bf5"/></svg>