<?xml version="1.0" encoding="utf-8"?>
<!-- Generator: Adobe Illustrator 27.0.0, SVG Export Plug-In . SVG Version: 6.00 Build 0)  -->
<svg version="1.1" id="a" xmlns="http://www.w3.org/2000/svg" xmlns:xlink="http://www.w3.org/1999/xlink" x="0px" y="0px"
	 viewBox="0 0 24 24" style="enable-background:new 0 0 24 24;" xml:space="preserve">
<style type="text/css">
	.st0{fill:#1785FF;}
	.st1{fill:#FF8BF5;}
	.st2{fill:none;}
	.st3{fill:#6EE4F8;}
</style>
<path class="st0" d="M13.9,9.1V5.6c0-1-0.8-1.9-1.9-1.9H3.3c-1,0-1.9,0.8-1.9,1.9v4.2c0,1,0.8,1.9,1.9,1.9h7.5
	C11.6,10.6,12.7,9.7,13.9,9.1z"/>
<g transform="translate(9.399999999999999 8.399999999999999) scale(0.65 0.65)">
	<path class="st1" d="M20.6,13.7L19,12.8c0-0.3,0-0.5,0-0.8c0-0.2,0-0.5,0-0.7l1.6-0.9c1.1-0.6,1.4-2,0.8-3.1l-0.6-1
		c-0.6-1.1-2-1.4-3.1-0.8l-1.6,0.9c-0.4-0.3-0.9-0.6-1.4-0.8V3.8c0-1.2-1-2.2-2.2-2.2h-1.2c-1.2,0-2.2,1-2.2,2.2v1.8
		C8.7,5.8,8.2,6,7.8,6.4L6.2,5.4C5.1,4.8,3.8,5.2,3.2,6.3l-0.6,1c-0.6,1.1-0.2,2.4,0.8,3.1L5,11.3c0,0.2,0,0.5,0,0.7
		c0,0.3,0,0.6,0.1,0.8l-1.6,0.9c-1.1,0.6-1.4,2-0.8,3.1l0.6,1c0.6,1.1,2,1.4,3.1,0.8l1.7-1c0.4,0.3,0.8,0.5,1.3,0.7v1.9
		c0,1.2,1,2.2,2.2,2.2h1.2c1.2,0,2.2-1,2.2-2.2v-1.9c0.5-0.2,0.9-0.5,1.3-0.7l1.6,1c1.1,0.6,2.4,0.2,3.1-0.8l0.6-1
		C22,15.7,21.6,14.3,20.6,13.7L20.6,13.7z M16.1,13.3c-1.3,1.5-2.7,2.1-4,3c-1.3-0.9-2.7-1.5-4-3c-1.5-2-0.5-4.7,2-4.2
		c1.1,0.2,1.8,0.7,2,0.8c0.2-0.1,1-0.6,2-0.8C16.6,8.6,17.5,11.3,16.1,13.3L16.1,13.3z"/>
	<path class="st2" d="M12.1,10c0.2-0.1,1-0.6,2-0.8c2.5-0.6,3.4,2.1,2,4.2c-1.3,1.5-2.7,2.1-4,3c-1.3-0.9-2.7-1.5-4-3
		c-1.5-2-0.5-4.7,2-4.2C11.1,9.4,11.8,9.9,12.1,10"/>
</g>
<path class="st3" d="M9.4,16.2c0-4.3,3.5-7.8,7.8-7.8c2.1,0,3.9,0.8,5.3,2.1V10C22.5,8,21,6.5,19,6.5H5C3,6.5,1.5,8,1.5,10v6.8
	c0,1.9,1.6,3.5,3.5,3.5h5.6C9.8,19.1,9.4,17.7,9.4,16.2z"/>
</svg>
