<?xml version="1.0" encoding="UTF-8"?><svg id="a" xmlns="http://www.w3.org/2000/svg" viewBox="0 0 24 24"><rect x=".48" y="2.96" width="13.62" height="8.64" rx="1.86" ry="1.86" fill="#1785ff"/><g><g><path d="M15.21,20.2c-1.33-.3-3-1.27-3.95-2.35-1.06-1.49-.37-3.46,1.42-3.05,.78,.18,1.31,.53,1.47,.62" fill="none" stroke="#9a8bff" stroke-miterlimit="6.5" stroke-width="1.62"/><path d="M15.22,14.03h6.78c.9,0,1.64,.73,1.64,1.64v1.92c0,2.52-2.04,4.56-4.56,4.56h-.93c-2.52,0-4.56-2.04-4.56-4.56v-1.92c0-.9,.73-1.64,1.64-1.64Z" fill="#ff8bf5"/><ellipse cx="18.61" cy="14.54" rx="4.48" ry=".86" fill="#9a8bff"/></g><path d="M18.33,10.28c-.87,1.31,.94,1.31,0,2.62" fill="none" stroke="#ff8bf5" stroke-linecap="round" stroke-miterlimit="6.5" stroke-width="1.3"/></g><path d="M9.55,19.34l-.14-.17c-1.13-1.58-1.23-3.62-.26-5.08,.81-1.21,2.21-1.79,3.71-1.56,.24-.18,.51-.33,.82-.45,.02,0,.03-.01,.05-.02,.63-.26,1.37-.41,2.16-.51-.19-.85,0-1.69,.55-2.52,.69-1.05,2.11-1.33,3.15-.64,.83,.55,1.18,1.55,.95,2.46,.11,.22,.17,.43,.23,.64,1.02,.09,1.98,.26,2.77,.58v-2.63c0-1.92-1.56-3.48-3.48-3.48H3.96c-1.92,0-3.48,1.56-3.48,3.48v8.11c0,1.92,1.56,3.48,3.48,3.48h7.58c-.76-.49-1.46-1.07-1.99-1.69Z" fill="#6ee4f8"/></svg>