<?xml version="1.0" encoding="UTF-8"?><svg id="a" xmlns="http://www.w3.org/2000/svg" viewBox="0 0 21.59 18.13"><path d="M12.5,5.4V1.9c0-1-.8-1.9-1.9-1.9H1.9C.9,0,0,.8,0,1.9V6.1c0,1,.8,1.9,1.9,1.9h6.8c.5-1.4,2-2.2,3.8-2.6Z" fill="#1785ff"/><g><ellipse cx="15.8" cy="8.66" rx="5.52" ry="1.95" fill="#ff8bf5"/><path d="M10.27,9.96v2.6c2.6,1.95,8.45,1.95,11.05,0v-2.6c-2.6,1.88-8.45,1.95-11.05,0Z" fill="#ff8bf5" stroke="#ff8bf5" stroke-linejoin="round" stroke-width=".53"/><path d="M10.27,13.8v2.6c2.6,1.95,8.45,1.95,11.05,0v-2.6c-2.6,1.88-8.45,1.95-11.05,0Z" fill="#ff8bf5" stroke="#ff8bf5" stroke-linejoin="round" stroke-width=".53"/></g><path d="M8.6,16.4v-2.6c0-.2,.1-.4,.1-.6-.1-.2-.1-.4-.1-.6v-2.6c0-.2,0-.4,.1-.6-.1-.2-.1-.5-.1-.7,0-2.6,3.9-3.6,7.2-3.6,1.9,0,3.9,.3,5.3,1-.1-1.8-1.6-3.3-3.5-3.3H3.6C1.6,2.8,.1,4.3,.1,6.3v6.8c0,1.9,1.6,3.5,3.5,3.5h5.1c0-.1-.1-.2-.1-.2Z" fill="#6ee4f8"/></svg>