<?xml version="1.0" encoding="UTF-8"?><svg id="a" xmlns="http://www.w3.org/2000/svg" viewBox="0 0 24 24"><g><path d="M17.32,15l-1.27-2.31c-.2-.37-.2-.81,.03-1.18l1.36-2.25c.21-.36,.61-.57,1.03-.57l2.63,.06c.42,0,.8,.24,1,.61l1.27,2.31c.2,.37,.19,.81-.03,1.18l-1.37,2.25c-.21,.36-.61,.57-1.03,.57l-2.63-.06c-.42,0-.8-.24-1-.61Z" fill="#ff8bf5"/><path d="M17.15,22.97l-1.27-2.31c-.2-.37-.2-.81,.03-1.18l1.36-2.25c.21-.36,.61-.57,1.03-.57l2.63,.06c.42,0,.8,.24,1,.61l1.27,2.31c.2,.37,.19,.81-.03,1.18l-1.37,2.25c-.21,.36-.61,.57-1.03,.57l-2.63-.06c-.42,0-.8-.24-1-.61Z" fill="#ff8bf5"/><path d="M10.3,18.83l-1.27-2.31c-.2-.37-.2-.81,.03-1.18l1.36-2.25c.21-.36,.61-.57,1.03-.57l2.63,.06c.42,0,.8,.24,1,.61l1.27,2.31c.2,.37,.2,.81-.03,1.18l-1.36,2.25c-.21,.36-.61,.57-1.03,.57l-2.63-.06c-.42,0-.8-.24-1-.61Z" fill="#ff8bf5"/></g><path d="M11.48,10.91l2.15,.05c.29-.33,.46-.75,.46-1.22V4.82c0-1.03-.83-1.86-1.86-1.86H2.34c-1.03,0-1.86,.83-1.86,1.86v4.92c0,1.03,.83,1.86,1.86,1.86h7.28c.51-.43,1.16-.69,1.87-.69Z" fill="#1785ff"/><g><path d="M23.37,15.95c-.07,.11-.16,.2-.24,.3,.08,.11,.17,.2,.23,.32l.17,.31v-1.19l-.16,.27Z" fill="#6ee4f8"/><path d="M8.88,19.61l-1.27-2.3c-.49-.9-.46-1.94,.06-2.8l1.37-2.25c.51-.84,1.44-1.34,2.44-1.35l2.64,.06c.14,0,.27,.04,.41,.06,.05-.12,.09-.24,.15-.35l1.37-2.25c.51-.84,1.45-1.38,2.44-1.35l2.64,.06c.88,.01,1.69,.47,2.2,1.19-.47-1.37-1.75-2.37-3.28-2.37H3.96c-1.92,0-3.48,1.56-3.48,3.48v8.11c0,1.92,1.56,3.48,3.48,3.48h7.06c-.89-.1-1.7-.61-2.14-1.42Z" fill="#6ee4f8"/></g></svg>