<?xml version="1.0" encoding="utf-8"?>
<!-- Generator: Adobe Illustrator 27.0.0, SVG Export Plug-In . SVG Version: 6.00 Build 0)  -->
<svg version="1.1" id="a" xmlns="http://www.w3.org/2000/svg" xmlns:xlink="http://www.w3.org/1999/xlink" x="0px" y="0px"
	 viewBox="0 0 24 24" style="enable-background:new 0 0 24 24;" xml:space="preserve">
<style type="text/css">
	.st0{fill:#1785FF;}
	.st1{fill:#6EE4F8;}
	.st2{fill:none;stroke:#9A8BFF;stroke-width:1.625;stroke-miterlimit:6.5;}
	.st3{fill:#FF8BF5;}
	.st4{fill:#9A8BFF;}
	.st5{fill:none;stroke:#FF8BF5;stroke-width:1.3;stroke-linecap:round;stroke-miterlimit:6.5;}
</style>
<path class="st0" d="M3.3,3.7h8.7c1,0,1.9,0.8,1.9,1.9v4.2c0,1-0.8,1.9-1.9,1.9H3.3c-1,0-1.9-0.8-1.9-1.9V5.6
	C1.5,4.6,2.3,3.7,3.3,3.7z"/>
<g>
	<path class="st1" d="M9.5,19.3l-0.1-0.2c-1.1-1.6-1.2-3.6-0.3-5.1c0.8-1.2,2.2-1.8,3.7-1.6c0.2-0.2,0.5-0.3,0.8-0.5c0,0,0,0,0.1,0
		c0.6-0.3,1.4-0.4,2.2-0.5c-0.2-0.9,0-1.7,0.5-2.5c0.7-1,2.1-1.3,3.2-0.6c0.8,0.5,1.2,1.5,0.9,2.5c0.1,0.2,0.2,0.4,0.2,0.6
		c0.6,0.1,1.2,0.1,1.8,0.3V10C22.5,8,21,6.5,19,6.5H5C3,6.5,1.5,8,1.5,10v6.8c0,1.9,1.6,3.5,3.5,3.5h5.5C10.1,20,9.8,19.7,9.5,19.3z
		"/>
</g>
<g transform="translate(9.399999999999999 8.399999999999999) scale(0.65 0.65)">
	<g>
		<path class="st2" d="M8.9,18.2c-2.1-0.5-4.6-2-6.1-3.6c-1.6-2.3-0.6-5.3,2.2-4.7c1.2,0.3,2,0.8,2.3,0.9"/>
		<path class="st3" d="M8.9,8.7h10.4c1.4,0,2.5,1.1,2.5,2.5v3c0,3.9-3.1,7-7,7h-1.4c-3.9,0-7-3.1-7-7v-3C6.4,9.8,7.6,8.7,8.9,8.7z"
			/>
		<ellipse class="st4" cx="14.2" cy="9.4" rx="6.9" ry="1.3"/>
	</g>
	<path class="st5" d="M13.7,2.9c-1.3,2,1.4,2,0,4"/>
</g>
</svg>
