<?xml version="1.0" encoding="UTF-8"?><svg id="a" xmlns="http://www.w3.org/2000/svg" viewBox="0 0 22.05 19.9"><path d="M10.01,7.17l2,.04c.26-.32,.43-.73,.43-1.17V1.86c0-1.03-.83-1.86-1.86-1.86H1.86C.83,0,0,.83,0,1.86V6.04c0,1.03,.83,1.86,1.86,1.86l6.23-.06c.52-.46,1.2-.67,1.93-.67Z" fill="#1785ff"/><g><path d="M15.85,11.26l-1.27-2.31c-.2-.37-.2-.81,.03-1.18l1.36-2.25c.21-.36,.61-.57,1.03-.57l2.63,.06c.42,0,.8,.24,1,.61l1.27,2.31c.2,.37,.19,.81-.03,1.18l-1.37,2.25c-.21,.36-.61,.57-1.03,.57l-2.63-.06c-.42,0-.8-.24-1-.61Z" fill="#ff8bf5"/><path d="M15.68,19.23l-1.27-2.31c-.2-.37-.2-.81,.03-1.18l1.36-2.25c.21-.36,.61-.57,1.03-.57l2.63,.06c.42,0,.8,.24,1,.61l1.27,2.31c.2,.37,.19,.81-.03,1.18l-1.37,2.25c-.21,.36-.61,.57-1.03,.57l-2.63-.06c-.42,0-.8-.24-1-.61Z" fill="#ff8bf5"/><path d="M8.83,15.09l-1.27-2.31c-.2-.37-.2-.81,.03-1.18l1.36-2.25c.21-.36,.61-.57,1.03-.57l2.63,.06c.42,0,.8,.24,1,.61l1.27,2.31c.2,.37,.2,.81-.03,1.18l-1.36,2.25c-.21,.36-.61,.57-1.03,.57l-2.63-.06c-.42,0-.8-.24-1-.61Z" fill="#ff8bf5"/></g><path d="M7.41,15.87l-1.27-2.3c-.49-.9-.46-1.94,.06-2.8l1.37-2.25c.51-.84,1.44-1.34,2.44-1.35l2.64,.06c.14,0,.27,.04,.41,.06,.05-.12,.09-.24,.15-.35l1.37-2.25c.51-.84,1.45-1.38,2.44-1.35l2.58,.06c-.57-.41-1.27-.66-2.02-.66H3.48c-1.92,0-3.48,1.56-3.48,3.48v6.82c0,1.92,1.56,3.48,3.48,3.48H7.91c-.19-.19-.37-.4-.5-.65Z" fill="#6ee4f8"/></svg>