<?xml version="1.0" encoding="UTF-8"?><svg id="a" xmlns="http://www.w3.org/2000/svg" viewBox="0 0 24 24"><g><path d="M20.84,22.62H11.09c-2.06-.01-3.35-2.25-2.31-4.04l4.38-7.55c1.26-2.17,4.4-2.17,5.65,0l4.36,7.58c1.03,1.78-.27,4.01-2.32,4h0Z" fill="#6e85f8"/><path d="M13,15.19h5.93c.59,0,1.07,.48,1.07,1.07v5.32c0,.59-.48,1.07-1.07,1.07h-5.93c-.59,0-1.07-.48-1.07-1.07v-5.32c0-.59,.48-1.07,1.07-1.07Z" fill="#ff8bf5"/></g><path d="M11.75,10.22c.55-.95,1.38-1.67,2.35-2.07v-3.33c0-1.03-.83-1.86-1.86-1.86H2.34c-1.03,0-1.86,.83-1.86,1.86v4.92c0,1.03,.83,1.86,1.86,1.86H10.95l.8-1.38Z" fill="#1785ff"/><path d="M7.37,17.77l4.38-7.56c.89-1.53,2.47-2.44,4.23-2.44h0c1.77,0,3.35,.92,4.23,2.45l3.31,5.76v-6.55c0-1.92-1.56-3.48-3.48-3.48H3.96c-1.92,0-3.48,1.56-3.48,3.48v8.11c0,1.92,1.56,3.48,3.48,3.48h2.97c-.29-1.09-.15-2.25,.44-3.26Z" fill="#6ee4f8"/></svg>