<?xml version="1.0" encoding="utf-8"?>
<!-- Generator: Adobe Illustrator 27.0.0, SVG Export Plug-In . SVG Version: 6.00 Build 0)  -->
<svg version="1.1" id="a" xmlns="http://www.w3.org/2000/svg" xmlns:xlink="http://www.w3.org/1999/xlink" x="0px" y="0px"
	 viewBox="0 0 24 24" style="enable-background:new 0 0 24 24;" xml:space="preserve">
<style type="text/css">
	.st0{fill:#1785FF;}
	.st1{fill:#6E85F8;}
	.st2{fill:#FF8BF5;}
	.st3{fill:#6EE4F8;}
</style>
<path class="st0" d="M11.7,10.2c0.5-0.9,1.3-1.6,2.3-2V5.6c0-1-0.8-1.9-1.9-1.9H3.3c-1,0-1.9,0.8-1.9,1.9v4.2c0,1,0.8,1.9,1.9,1.9
	h7.5L11.7,10.2z"/>
<g transform="translate(9.399999999999999 8.399999999999999) scale(0.65 0.65)">
	<path class="st1" d="M17.5,21.9l-15,0c-3.2,0-5.1-3.4-3.6-6.2L5.6,4c1.9-3.3,6.8-3.3,8.7,0L21,15.7C22.6,18.5,20.6,21.9,17.5,21.9
		L17.5,21.9z"/>
	<path class="st2" d="M5.4,10.4h9.1c0.9,0,1.6,0.7,1.6,1.6v8.2c0,0.9-0.7,1.6-1.6,1.6H5.4c-0.9,0-1.7-0.7-1.7-1.6v-8.2
		C3.7,11.2,4.5,10.4,5.4,10.4z"/>
</g>
<path class="st3" d="M7.3,17.8l4.4-7.6c0.9-1.5,2.5-2.4,4.2-2.4c0,0,0,0,0,0c1.8,0,3.3,0.9,4.2,2.4l2.4,4.2V10C22.5,8,21,6.5,19,6.5
	H5C3,6.5,1.5,8,1.5,10v6.8c0,1.9,1.6,3.5,3.5,3.5h1.8C6.6,19.4,6.8,18.5,7.3,17.8z"/>
</svg>
