<?xml version="1.0" encoding="UTF-8"?><svg id="a" xmlns="http://www.w3.org/2000/svg" viewBox="0 0 24 24"><g><ellipse cx="17.2" cy="12.36" rx="5.52" ry="1.96" fill="#ff8bf5"/><path d="M11.67,13.65v2.6c2.61,1.95,8.46,1.94,11.05,0v-2.6c-2.59,1.92-8.45,1.94-11.05,0Z" fill="#ff8bf5" stroke="#ff8bf5" stroke-linejoin="round" stroke-width=".81"/><path d="M11.67,17.48v2.6c2.61,1.95,8.46,1.94,11.05,0v-2.6c-2.59,1.92-8.45,1.94-11.05,0Z" fill="#ff8bf5" stroke="#ff8bf5" stroke-linejoin="round" stroke-width=".81"/></g><path d="M14.1,9V4.82c0-1.03-.83-1.86-1.86-1.86H2.34c-1.03,0-1.86,.83-1.86,1.86v4.92c0,1.03,.83,1.86,1.86,1.86h7.71c.44-1.35,2.17-2.22,4.05-2.6Z" fill="#1785ff"/><path d="M10.05,20.08v-2.6c0-.21,.06-.42,.13-.61-.08-.2-.13-.4-.13-.62v-2.6c0-.2,.05-.39,.12-.57-.07-.23-.12-.46-.12-.72,0-2.65,3.85-3.59,7.15-3.59,2.37,0,5.02,.49,6.33,1.75v-1.09c0-1.92-1.56-3.48-3.48-3.48H3.96c-1.92,0-3.48,1.56-3.48,3.48v8.11c0,1.92,1.56,3.48,3.48,3.48h6.41c-.2-.27-.32-.6-.32-.95Z" fill="#6ee4f8"/></svg>