<?xml version="1.0" encoding="UTF-8"?><svg id="a" xmlns="http://www.w3.org/2000/svg" viewBox="0 0 22.13 18.91"><path d="M10.34,6.48c.5-.87,1.24-1.6,2.1-2.01V1.86c0-1.03-.83-1.86-1.86-1.86H1.86C.83,0,0,.83,0,1.86V6.04c0,1.03,.83,1.86,1.86,1.86h7.66l.83-1.42Z" fill="#1785ff"/><g><path d="M19.44,18.88H9.68c-2.06-.01-3.35-2.25-2.31-4.04l4.38-7.55c1.26-2.17,4.4-2.17,5.65,0l4.36,7.58c1.03,1.78-.27,4.01-2.32,4h0Z" fill="#6e85f8"/><path d="M11.6,11.45h5.93c.59,0,1.07,.48,1.07,1.07v5.32c0,.59-.48,1.07-1.07,1.07h-5.93c-.59,0-1.07-.48-1.07-1.07v-5.32c0-.59,.48-1.07,1.07-1.07Z" fill="#ff8bf5"/></g><path d="M5.96,14.03l4.38-7.56c.89-1.53,2.47-2.44,4.23-2.44h0c1.77,0,3.34,.92,4.23,2.45l2.25,3.9V6.22c0-1.92-1.56-3.48-3.48-3.48H3.48c-1.92,0-3.48,1.56-3.48,3.48v6.82c0,1.92,1.56,3.48,3.48,3.48h1.92c-.07-.85,.12-1.71,.56-2.49Z" fill="#6ee4f8"/></svg>