<?xml version="1.0" encoding="UTF-8"?><svg id="a" xmlns="http://www.w3.org/2000/svg" viewBox="0 0 22.02 18.93"><path d="M10.3,6.5c.5-.9,1.3-1.6,2.3-2V1.9c0-1-.8-1.9-1.9-1.9H1.9C.9,0,0,.8,0,1.9V6.1c0,1,.8,1.9,1.9,1.9h7.5l.9-1.5Z" fill="#1785ff"/><g><path d="M19.37,18.93H9.62c-2.08,0-3.31-2.21-2.34-4.03l4.35-7.6c1.24-2.14,4.42-2.14,5.65,0l4.36,7.6c1.04,1.82-.26,4.03-2.27,4.03h0Z" fill="#6e85f8"/><path d="M11.51,11.46h5.91c.58,0,1.04,.45,1.04,1.04v5.33c0,.58-.45,1.04-1.04,1.04h-5.91c-.59,0-1.1-.46-1.1-1.04v-5.33c0-.52,.52-1.04,1.1-1.04Z" fill="#ff8bf5"/></g><path d="M5.9,14.1l4.4-7.6c.9-1.5,2.5-2.4,4.2-2.4h0c1.8,0,3.3,.9,4.2,2.4l2.4,4.2V6.3c0-2-1.5-3.5-3.5-3.5H3.6C1.6,2.8,.1,4.3,.1,6.3v6.8c0,1.9,1.6,3.5,3.5,3.5h1.8c-.2-.9,0-1.8,.5-2.5Z" fill="#6ee4f8"/></svg>