<?xml version="1.0" encoding="UTF-8"?><svg id="a" xmlns="http://www.w3.org/2000/svg" viewBox="0 0 22.14 19.26"><path d="M12.5,5.4V1.9c0-1-.8-1.9-1.9-1.9H1.9C.9,0,0,.8,0,1.9V6.1c0,1,.8,1.9,1.9,1.9h7.5c.8-1.1,1.9-2,3.1-2.6Z" fill="#1785ff"/><g><path d="M21.39,13.6l-1.04-.58v-.97l1.04-.58c.72-.39,.91-1.3,.52-2.01l-.39-.65c-.39-.71-1.3-.91-2.02-.52l-1.04,.59c-.26-.2-.58-.39-.91-.52v-1.17c0-.78-.65-1.43-1.43-1.43h-.78c-.78,0-1.43,.65-1.43,1.43v1.17c-.26,.13-.58,.26-.84,.52l-1.04-.65c-.71-.39-1.56-.13-1.95,.59l-.39,.65c-.39,.72-.13,1.56,.52,2.01l1.04,.59v.45c0,.2,0,.39,.06,.52l-1.04,.58c-.71,.39-.91,1.3-.52,2.01l.39,.65c.39,.72,1.3,.91,2.01,.52l1.11-.65c.26,.19,.52,.32,.85,.46v1.23c0,.78,.65,1.43,1.43,1.43h.78c.78,0,1.43-.65,1.43-1.43v-1.23c.32-.13,.58-.32,.84-.46l1.04,.65c.72,.39,1.56,.13,2.02-.52l.39-.65c.26-.71,0-1.62-.65-2.01h0Zm-2.92-.26c-.85,.97-1.75,1.36-2.6,1.95-.85-.58-1.75-.97-2.6-1.95-.97-1.3-.32-3.05,1.3-2.73,.72,.13,1.17,.45,1.3,.52,.13-.07,.65-.39,1.3-.52,1.62-.32,2.21,1.43,1.3,2.73h0Z" fill="#ff8bf5"/><path d="M15.86,11.2c.13-.07,.65-.39,1.3-.52,1.62-.39,2.21,1.36,1.3,2.73-.85,.97-1.75,1.37-2.6,1.95-.85-.58-1.75-.97-2.6-1.95-.97-1.3-.32-3.05,1.3-2.73,.65,.13,1.1,.45,1.3,.52" fill="none"/></g><path d="M8,12.5c0-4.3,3.5-7.8,7.8-7.8,2.1,0,3.9,.8,5.3,2.1v-.5c0-2-1.5-3.5-3.5-3.5H3.6C1.6,2.8,.1,4.3,.1,6.3v6.8c0,1.9,1.6,3.5,3.5,3.5h5.6c-.8-1.2-1.2-2.6-1.2-4.1Z" fill="#6ee4f8"/></svg>