<?xml version="1.0" encoding="UTF-8"?><svg id="a" xmlns="http://www.w3.org/2000/svg" viewBox="0 0 24 24"><rect x=".48" y="2.96" width="13.62" height="8.64" rx="1.86" ry="1.86" fill="#1785ff"/><path d="M10.4,20.84l-.13-.17c-1.56-2.21-1.73-5.01-.42-6.98,1.12-1.68,3.08-2.39,5.23-1.9,.91,.21,1.66,.51,2.23,.79,.57-.27,1.33-.58,2.23-.79,1.51-.34,2.91-.09,4,.67v-3.02c0-1.92-1.56-3.48-3.48-3.48H3.96c-1.92,0-3.48,1.56-3.48,3.48v8.11c0,1.92,1.56,3.48,3.48,3.48h6.61c-.06-.07-.12-.12-.18-.19Z" fill="#6ee4f8"/><path d="M17.3,14.97c.29-.16,1.27-.8,2.69-1.13,3.29-.75,4.56,2.88,2.62,5.62-1.73,1.99-3.53,2.91-5.32,4.09-1.78-1.18-3.58-2.09-5.32-4.09-1.94-2.74-.67-6.37,2.63-5.62,1.43,.32,2.41,.97,2.69,1.13" fill="#ff8bf5"/></svg>