<?xml version="1.0" encoding="UTF-8"?><svg id="a" xmlns="http://www.w3.org/2000/svg" viewBox="0 0 21.12 19.05"><g><g><rect x="4.95" y="7.27" width="7.36" height="2.61" rx="1.21" ry="1.21" transform="translate(-3.54 8.62) rotate(-45)" fill="#1785ff"/><rect x="7.34" y="1.54" width="2.61" height="7.36" rx="1.21" ry="1.21" transform="translate(-1.16 7.64) rotate(-45)" fill="#6ee4f8"/></g><g><rect x="11.18" y="10.16" width="2.61" height="7.36" rx="1.21" ry="1.21" transform="translate(-6.13 12.88) rotate(-45)" fill="#1785ff"/><rect x="8.8" y="9.18" width="7.36" height="2.61" rx="1.21" ry="1.21" transform="translate(-3.75 11.9) rotate(-45)" fill="#6ee4f8"/></g></g><path d="M8.84,14.33s-.03-.02-.04-.03l-.14-.14c-.32-.32-.54-.71-.68-1.13-.33,.13-.68,.2-1.03,.2-.73,0-1.45-.28-2-.83l-.14-.14c-.53-.53-.83-1.24-.83-2s.29-1.47,.83-2l1.36-1.36-1.35-1.35c-1.1-1.1-1.1-2.9,0-4.01l.13-.13c1.1-1.11,2.9-1.11,4.01,0l1.14,1.14V1.5c0-.83-.67-1.5-1.5-1.5H1.5C.67,0,0,.67,0,1.5V17.55c0,.83,.67,1.5,1.5,1.5h7.1c.83,0,1.5-.67,1.5-1.5v-1.96l-1.26-1.26Z" fill="#ff8bf5"/><path d="M19.61,0h-7.1c-.83,0-1.5,.67-1.5,1.5v1.95l1.45,1.45c.33,.33,.55,.73,.68,1.15,1.02-.37,2.24-.17,3.03,.62l.13,.13c.22,.22,.38,.46,.51,.72h2.8c.83,0,1.5-.67,1.5-1.5V1.5c0-.83-.67-1.5-1.5-1.5Z" fill="#6e85f8"/><path d="M19.62,8.35h-2.53c.14,.87-.12,1.78-.78,2.45l-1.36,1.36,1.36,1.36c1.11,1.11,1.1,2.9,0,4.01l-.13,.13c-.55,.55-1.28,.83-2,.83s-1.45-.28-2-.83l-1.15-1.15v1.04c0,.83,.67,1.5,1.5,1.5h7.1c.83,0,1.5-.67,1.5-1.5v-7.7c0-.83-.67-1.5-1.5-1.5Z" fill="#9a8bff"/></svg>