<?xml version="1.0" encoding="UTF-8"?><svg id="a" xmlns="http://www.w3.org/2000/svg" viewBox="0 0 21.5 20.71"><path d="M.01,1.21L.91,7.61c.1,.9,1.2,1.2,1.8,.6L8.11,3.01c.6-.6,.3-1.7-.6-1.8L1.21,.01C.51-.09-.09,.51,.01,1.21Z" fill="#ff8bf5"/><g><path d="M17.56,14.71l3.5-3.5c.9-.9,.25-2.5-1.1-2.5h-6.9c-.8,0-1.5,.65-1.5,1.5v9c0,.8,.65,1.5,1.5,1.5h6.95c1.3,0,2-1.6,1.05-2.5l-3.5-3.5h0Z" fill="#9a8bff"/><path d="M17.56,14.71l3.5-3.5c.9-.9,.25-2.5-1.1-2.5h-2.1l-6.3,6.3v4.2c0,.4,.15,.75,.4,1.05l5.6-5.55h0Z" fill="#ff8bf5"/></g><path d="M10.31,10.21c0-1.5,1.2-2.7,2.7-2.7h2.7l-3.7-3.7c-.9-.9-2.4-.9-3.3,0L3.61,8.91c-.9,.9-.9,2.4,0,3.3l5.1,5.1c.4,.4,.9,.6,1.5,.7v-7.8h.1Z" fill="#6e85f8"/><path d="M17.41,7.41h2.7l.6-5.9h0c.1-.7-.5-1.3-1.2-1.2l-6,.9c-.9,.1-1.2,1.2-.6,1.9l4.5,4.3Z" fill="#6e85f8"/></svg>