<?xml version="1.0" encoding="utf-8"?>
<!-- Generator: Adobe Illustrator 27.0.0, SVG Export Plug-In . SVG Version: 6.00 Build 0)  -->
<svg version="1.1" id="a" xmlns="http://www.w3.org/2000/svg" xmlns:xlink="http://www.w3.org/1999/xlink" x="0px" y="0px"
	 viewBox="0 0 24 24" style="enable-background:new 0 0 24 24;" xml:space="preserve">
<style type="text/css">
	.st0{fill:#FF8BF5;}
	.st1{fill:#9A8BFF;}
	.st2{fill:#6E85F8;}
</style>
<path class="st0" d="M1.5,4.5l0.9,6.4c0.1,0.9,1.2,1.2,1.8,0.6l5.4-5.2c0.6-0.6,0.3-1.7-0.6-1.8L2.7,3.3C2,3.2,1.4,3.8,1.5,4.5z"/>
<g transform="translate(12 12) scale(0.5 0.5)">
	<path class="st1" d="M14.1,12l7-7C22.9,3.2,21.6,0,18.9,0H5.1c-1.6,0-3,1.3-3,3V21c0,1.6,1.3,3,3,3h13.9c2.6,0,4-3.2,2.1-5L14.1,12
		L14.1,12z"/>
	<path class="st0" d="M14.1,12l7-7C22.9,3.2,21.6,0,18.9,0h-4.2L2.1,12.6V21c0,0.8,0.3,1.5,0.8,2.1L14.1,12L14.1,12L14.1,12z"/>
</g>
<g>
	<path class="st2" d="M11.8,13.5c0-1.5,1.2-2.7,2.7-2.7h2.7l-3.7-3.7c-0.9-0.9-2.4-0.9-3.3,0l-5.1,5.1c-0.9,0.9-0.9,2.4,0,3.3
		l5.1,5.1c0.4,0.4,0.9,0.6,1.5,0.7V13.5z"/>
</g>
<path class="st2" d="M18.9,10.7h2.6c0,0,0.1,0,0.1,0l0.6-5.9v0c0.1-0.7-0.5-1.3-1.2-1.2L15,4.5c-0.9,0.1-1.2,1.2-0.6,1.9L18.9,10.7z
	"/>
</svg>
