<?xml version="1.0" encoding="UTF-8"?><svg id="a" xmlns="http://www.w3.org/2000/svg" viewBox="0 0 24 24"><path d="M1.47,4.51l.92,6.38c.13,.88,1.2,1.24,1.83,.63l5.42-5.25c.64-.62,.31-1.7-.57-1.85L2.74,3.28c-.73-.13-1.37,.49-1.27,1.23Z" fill="#ff8bf5"/><g><path d="M19.03,17.99l3.48-3.48c.93-.93,.27-2.53-1.04-2.53h-6.94c-.82,0-1.48,.66-1.48,1.48v9.06c0,.81,.66,1.48,1.48,1.48h6.94c1.32,0,1.98-1.6,1.05-2.52l-3.48-3.48h0Z" fill="#9a8bff"/><path d="M19.03,17.99l3.48-3.48c.93-.93,.27-2.53-1.04-2.53h-2.09l-6.34,6.33v4.2c0,.4,.16,.77,.42,1.03l5.56-5.56h0Z" fill="#ff8bf5"/></g><path d="M18.92,10.73h2.55s.08,0,.12,0l.9-6.23h.02c.1-.73-.54-1.35-1.27-1.22l-6.35,1.13c-.88,.15-1.21,1.23-.57,1.85l4.6,4.46Z" fill="#6e85f8"/><path d="M11.8,17.79v-4.33c0-1.51,1.22-2.73,2.73-2.73h2.73l-3.66-3.66c-.9-.9-2.35-.9-3.25,0l-5.14,5.14c-.9,.9-.9,2.35,0,3.25l5.14,5.14c.41,.41,.93,.62,1.46,.66v-3.47Z" fill="#6e85f8"/></svg>