<?xml version="1.0" encoding="UTF-8"?><svg id="a" xmlns="http://www.w3.org/2000/svg" viewBox="0 0 24 24"><ellipse cx="11.97" cy="20.68" rx="4.08" ry="2.85" fill="#1785ff"/><path d="M17.4,1.28c.26-.15,1.16-.74,2.47-1.03,3.02-.69,4.18,2.64,2.4,5.15-1.59,1.83-3.24,2.67-4.87,3.75-1.63-1.08-3.28-1.92-4.87-3.75C10.75,2.88,11.91-.44,14.93,.24c1.31,.3,2.21,.89,2.47,1.03" fill="#ff8bf5"/><path d="M18.89,11.42h-1.46l-.04,.03-.04-.03H5.1c-1.9,0-3.44,1.54-3.44,3.44v2.37c0,1.9,1.54,3.44,3.44,3.44h13.79c1.9,0,3.44-1.54,3.44-3.44v-2.37c0-1.9-1.54-3.44-3.44-3.44Z" fill="#6ee4f8"/><path d="M19.37,10.16c-.31,.19-.61,.39-.92,.59l-1.07,.7-1.06-.71c-.32-.21-.64-.42-.96-.62-1.33-.84-2.85-1.8-4.3-3.47l-.12-.15c-1.34-1.89-1.55-4.25-.59-6.02h-.04C7.13,.48,4.54,3.07,4.54,6.26v6.46c0,3.19,2.59,5.78,5.78,5.78h3.36c3.19,0,5.78-2.59,5.78-5.78v-2.62s-.06,.04-.09,.05Z" fill="#6ee4f8"/></svg>