<?xml version="1.0" encoding="UTF-8"?><svg id="a" xmlns="http://www.w3.org/2000/svg" viewBox="0 0 21.42 23.45"><ellipse cx="10.3" cy="20.55" rx="4.1" ry="2.9" fill="#1785ff"/><path d="M15.7,1.14c.28-.17,1.16-.71,2.48-1.05,3.03-.66,4.18,2.64,2.42,5.17-1.59,1.82-3.24,2.64-4.89,3.74-1.65-1.1-3.3-1.93-4.89-3.74C9.05,2.74,10.2-.62,13.23,.1c1.32,.28,2.2,.88,2.48,1.05" fill="#ff8bf5"/><path d="M17.2,11.25H3.4c-1.9,0-3.4,1.5-3.4,3.4v2.4c0,1.9,1.5,3.4,3.4,3.4h13.8c1.9,0,3.4-1.5,3.4-3.4v-2.4c0-1.8-1.5-3.4-3.4-3.4Z" fill="#6ee4f8"/><path d="M17.7,10.05c-.3,.2-.6,.4-.9,.6l-1.1,.7-1.1-.7c-.3-.2-.6-.4-1-.6-1.3-.8-2.8-1.8-4.3-3.5v-.2c-1.3-1.9-1.5-4.3-.6-6h0C5.5,.35,2.9,2.95,2.9,6.15v6.5c0,3.2,2.6,5.8,5.8,5.8h3.4c3.2,0,5.8-2.6,5.8-5.8l-.2-2.6q0-.1,0,0Z" fill="#6ee4f8"/></svg>