<?xml version="1.0" encoding="utf-8"?>
<!-- Generator: Adobe Illustrator 27.0.0, SVG Export Plug-In . SVG Version: 6.00 Build 0)  -->
<svg version="1.1" id="a" xmlns="http://www.w3.org/2000/svg" xmlns:xlink="http://www.w3.org/1999/xlink" x="0px" y="0px"
	 viewBox="0 0 24 24" style="enable-background:new 0 0 24 24;" xml:space="preserve">
<style type="text/css">
	.st0{fill:#1785FF;}
	.st1{fill:#FF8BF5;}
	.st2{fill:#6EE4F8;}
</style>
<ellipse class="st0" cx="12" cy="20.7" rx="4.1" ry="2.9"/>
<g transform="translate(10.799999999999999 -2.5) scale(0.55 0.55)">
	<path class="st1" d="M12,6.9c0.5-0.3,2.1-1.3,4.5-1.9c5.5-1.2,7.6,4.8,4.4,9.4C18,17.7,15,19.2,12,21.2c-3-2-6-3.5-8.9-6.8
		C-0.1,9.8,2,3.7,7.5,5C9.9,5.5,11.5,6.6,12,6.9"/>
</g>
<path class="st2" d="M18.9,11.4h-1.5l0,0l0,0H5.1c-1.9,0-3.4,1.5-3.4,3.4v2.4c0,1.9,1.5,3.4,3.4,3.4h13.8c1.9,0,3.4-1.5,3.4-3.4
	v-2.4C22.3,13,20.8,11.4,18.9,11.4z"/>
<g>
	<path class="st2" d="M19.4,10.2c-0.3,0.2-0.6,0.4-0.9,0.6l-1.1,0.7l-1.1-0.7c-0.3-0.2-0.6-0.4-1-0.6c-1.3-0.8-2.8-1.8-4.3-3.5
		L11,6.5c-1.3-1.9-1.5-4.3-0.6-6h0c-3.2,0-5.8,2.6-5.8,5.8v6.5c0,3.2,2.6,5.8,5.8,5.8h3.4c3.2,0,5.8-2.6,5.8-5.8L19.4,10.2
		C19.4,10.1,19.4,10.1,19.4,10.2z"/>
</g>
</svg>
