<?xml version="1.0" encoding="utf-8"?>
<!-- Generator: Adobe Illustrator 27.0.0, SVG Export Plug-In . SVG Version: 6.00 Build 0)  -->
<svg version="1.1" id="a" xmlns="http://www.w3.org/2000/svg" xmlns:xlink="http://www.w3.org/1999/xlink" x="0px" y="0px"
	 viewBox="0 0 24 24" style="enable-background:new 0 0 24 24;" xml:space="preserve">
<style type="text/css">
	.st0{fill:#9A8BFF;}
	.st1{fill:#FF8BF5;}
</style>
<g transform="translate(12 12) scale(0.5 0.5)">
	<path class="st0" d="M14.1,12l7-7C22.9,3.2,21.6,0,18.9,0H5.1c-1.6,0-3,1.3-3,3V21c0,1.6,1.3,3,3,3h13.9c2.6,0,4-3.2,2.1-5L14.1,12
		L14.1,12z"/>
	<path class="st1" d="M14.1,12l7-7C22.9,3.2,21.6,0,18.9,0h-4.2L2.1,12.6V21c0,0.8,0.3,1.5,0.8,2.1L14.1,12L14.1,12L14.1,12z"/>
</g>
<g>
	<path class="st0" d="M11.8,22.5v-3.2c-0.5,0-1-0.1-1.5-0.2c-2.1-0.5-3.9-1.9-4.9-3.9C5,14.4,3.9,14,3.1,14.5
		c-0.9,0.4-1.2,1.5-0.8,2.4c1.4,2.9,4.1,5,7.3,5.8c0.8,0.2,1.5,0.3,2.3,0.3C11.8,22.7,11.8,22.6,11.8,22.5z"/>
	<path class="st0" d="M3.1,12.1c0.8,0,1.6-0.6,1.7-1.4c0-0.1,0-0.2,0.1-0.3c0.3-1.2,0.8-2.2,1.5-3.1C7,6.5,6.9,5.4,6.2,4.8
		C5.5,4.1,4.3,4.2,3.7,5C2.6,6.3,1.8,7.9,1.4,9.5c0,0.1-0.1,0.3-0.1,0.5c-0.2,1,0.5,1.9,1.4,2.1C2.8,12.1,3,12.1,3.1,12.1z"/>
	<path class="st0" d="M10.4,4.9c1.1-0.2,2.2-0.2,3.3,0c2,0.5,3.8,1.8,4.8,3.6c0.3,0.6,0.9,0.9,1.6,0.9l0,0c0.3,0,0.6-0.1,0.8-0.2
		c0.9-0.5,1.2-1.5,0.7-2.4c-1.5-2.7-4-4.6-7-5.3c-1.6-0.4-3.3-0.4-4.8,0C8.6,1.6,8,2.6,8.3,3.5C8.5,4.5,9.4,5.1,10.4,4.9z"/>
</g>
<g>
	<path class="st1" d="M9.2,12c0-0.2,0-0.4,0.1-0.6c0-0.1,0.1-0.3,0.1-0.4C9.7,10.2,9.3,9.3,8.5,9C7.8,8.8,7,9.1,6.7,9.9
		c-0.1,0.3-0.2,0.5-0.2,0.8c-0.1,0.4-0.2,0.9-0.2,1.3c0,1.4,0.5,2.8,1.4,3.8c0.3,0.3,0.7,0.5,1.1,0.5h0c0.4,0,0.7-0.1,1-0.4
		c0.6-0.5,0.7-1.5,0.1-2.1C9.4,13.3,9.2,12.7,9.2,12z"/>
	<path class="st1" d="M12.6,9.2c0.7,0.2,1.3,0.6,1.7,1.2c0.1,0.1,0.1,0.2,0.2,0.3h2c0.5-0.5,0.6-1.3,0.2-1.9
		c-0.8-1.2-2.1-2.1-3.5-2.5c-0.6-0.1-1.2-0.2-1.9-0.1c-0.8,0.1-1.4,0.8-1.3,1.6c0.1,0.8,0.8,1.4,1.6,1.3C12,9.2,12.3,9.2,12.6,9.2z"
		/>
	<path class="st1" d="M11.8,15.4c-0.2,0.3-0.3,0.7-0.2,1.1c0,0.1,0.1,0.3,0.2,0.4V15.4z"/>
</g>
</svg>
