<?xml version="1.0" encoding="UTF-8"?><svg id="a" xmlns="http://www.w3.org/2000/svg" viewBox="0 0 24 24"><g><path d="M19.03,17.99l3.48-3.48c.93-.93,.27-2.53-1.04-2.53h-6.94c-.82,0-1.48,.66-1.48,1.48v9.06c0,.81,.66,1.48,1.48,1.48h6.94c1.32,0,1.98-1.6,1.05-2.52l-3.48-3.48h0Z" fill="#9a8bff"/><path d="M19.03,17.99l3.48-3.48c.93-.93,.27-2.53-1.04-2.53h-2.09l-6.34,6.33v4.2c0,.4,.16,.77,.42,1.03l5.56-5.56h0Z" fill="#ff8bf5"/></g><path d="M9.19,11.99c0-.21,.02-.43,.07-.64,.03-.14,.07-.27,.12-.4,.3-.75-.07-1.6-.83-1.9-.75-.3-1.6,.07-1.9,.83-.1,.26-.19,.52-.25,.8-.1,.43-.15,.87-.15,1.31,0,1.4,.51,2.75,1.43,3.8,.29,.33,.69,.5,1.1,.5h0c.35,0,.69-.13,.97-.37,.61-.53,.66-1.46,.13-2.07-.45-.52-.7-1.18-.7-1.86Z" fill="#ff8bf5"/><path d="M12.63,9.25c.72,.17,1.33,.6,1.73,1.21,.07,.1,.14,.19,.23,.27h1.99c.51-.48,.62-1.26,.23-1.87-.81-1.25-2.06-2.13-3.52-2.47-.61-.14-1.25-.18-1.88-.12-.8,.08-1.39,.8-1.31,1.61,.08,.8,.8,1.39,1.61,1.31,.3-.03,.62-.01,.92,.06Z" fill="#ff8bf5"/><g><path d="M14.53,13.23c-.13,0-.23,.1-.23,.23v1.83l2.06-2.06h-1.83Z" fill="#9a8bff"/><path d="M21.68,22.6c.06-.14-.02-.22-.05-.25l-2.6-2.6-2.99,2.99h5.42s.16,0,.21-.14Z" fill="#9a8bff"/></g><g><path d="M10.37,4.86c1.07-.25,2.2-.24,3.28,.01,2.02,.47,3.76,1.79,4.76,3.61,.32,.58,.93,.91,1.55,.91h-.02c.29,.01,.58-.06,.85-.21,.86-.47,1.17-1.54,.7-2.39-1.48-2.7-4.05-4.65-7.05-5.35-1.6-.38-3.26-.38-4.85-.02-.95,.22-1.55,1.16-1.33,2.11,.22,.95,1.17,1.55,2.11,1.33Z" fill="#9a8bff"/><path d="M3.06,12.08c.83,0,1.57-.59,1.73-1.44,.01-.1,.04-.2,.06-.3,.26-1.15,.78-2.19,1.54-3.08,.63-.74,.54-1.85-.2-2.48-.74-.64-1.85-.54-2.48,.2-1.11,1.3-1.9,2.88-2.29,4.55-.04,.15-.07,.31-.1,.46-.18,.96,.45,1.88,1.41,2.06,.11,.02,.22,.03,.33,.03Z" fill="#9a8bff"/><path d="M11.8,22.51v-3.19c-.49-.01-.98-.07-1.46-.19-2.14-.5-3.93-1.92-4.91-3.89-.43-.88-1.49-1.23-2.36-.8-.88,.43-1.23,1.49-.8,2.36,1.45,2.92,4.1,5.02,7.27,5.76,.75,.17,1.53,.26,2.29,.27-.01-.11-.03-.22-.03-.33Z" fill="#9a8bff"/></g></svg>