<?xml version="1.0" encoding="UTF-8"?><svg id="a" xmlns="http://www.w3.org/2000/svg" viewBox="0 0 21.72 22.8"><g><path d="M17.78,16.8l3.5-3.5c.9-.9,.25-2.5-1.1-2.5h-6.9c-.8,0-1.5,.65-1.5,1.5v9c0,.8,.65,1.5,1.5,1.5h6.95c1.3,0,2-1.6,1.05-2.5l-3.5-3.5h0Z" fill="#9a8bff"/><path d="M17.78,16.8l3.5-3.5c.9-.9,.25-2.5-1.1-2.5h-2.1l-6.3,6.3v4.2c0,.4,.15,.75,.4,1.05l5.6-5.55h0Z" fill="#ff8bf5"/></g><g><path d="M10.53,21.3v-3.2c-.5,0-1-.1-1.5-.2-2.1-.5-3.9-1.9-4.9-3.9-.4-.8-1.5-1.2-2.3-.7-.9,.4-1.2,1.5-.8,2.4,1.4,2.9,4.1,5,7.3,5.8,.8,.2,1.5,.3,2.3,.3-.1-.3-.1-.4-.1-.5Z" fill="#9a8bff"/><path d="M1.83,10.9c.8,0,1.6-.6,1.7-1.4,0-.1,0-.2,.1-.3,.3-1.2,.8-2.2,1.5-3.1,.6-.8,.5-1.9-.2-2.5-.7-.7-1.9-.6-2.5,.2C1.33,5.1,.53,6.7,.13,8.3c0,.1-.1,.3-.1,.5-.2,1,.5,1.9,1.4,2.1h.4Z" fill="#9a8bff"/><path d="M9.13,3.7c1.1-.2,2.2-.2,3.3,0,2,.5,3.8,1.8,4.8,3.6,.3,.6,.9,.9,1.6,.9h0c.3,0,.6-.1,.8-.2,.9-.5,1.2-1.5,.7-2.4-1.5-2.7-4-4.6-7-5.3-1.6-.4-3.3-.4-4.8,0-1.2,.1-1.8,1.1-1.5,2,.2,1,1.1,1.6,2.1,1.4Z" fill="#9a8bff"/></g><g><path d="M7.93,10.8c0-.2,0-.4,.1-.6,0-.1,.1-.3,.1-.4,.3-.8-.1-1.7-.9-2-.7-.2-1.5,.1-1.8,.9-.1,.3-.2,.5-.2,.8-.1,.4-.2,.9-.2,1.3,0,1.4,.5,2.8,1.4,3.8,.3,.3,.7,.5,1.1,.5h0c.4,0,.7-.1,1-.4,.6-.5,.7-1.5,.1-2.1-.5-.5-.7-1.1-.7-1.8Z" fill="#ff8bf5"/><path d="M11.33,8c.7,.2,1.3,.6,1.7,1.2,.1,.1,.1,.2,.2,.3h2c.5-.5,.6-1.3,.2-1.9-.8-1.2-2.1-2.1-3.5-2.5-.6-.1-1.2-.2-1.9-.1-.8,.1-1.4,.8-1.3,1.6,.1,.8,.8,1.4,1.6,1.3,.4,.1,.7,.1,1,.1Z" fill="#ff8bf5"/><path d="M10.53,14.2c-.2,.3-.3,.7-.2,1.1,0,.1,.1,.3,.2,.4v-1.5Z" fill="#ff8bf5"/></g></svg>