<?xml version="1.0" encoding="UTF-8"?><svg id="a" xmlns="http://www.w3.org/2000/svg" viewBox="0 0 21.06 16.52"><path d="M5.54,6.26c1.19,.27,2.01,.81,2.24,.94,.24-.14,1.05-.67,2.24-.94,.99-.22,1.75,.03,2.25,.54,.1-.23,.16-.49,.16-.75V1.86c0-1.03-.83-1.86-1.86-1.86H1.86C.83,0,0,.83,0,1.86V6.04c0,1.03,.83,1.86,1.86,1.86h.82c.3-1.19,1.31-2,2.86-1.65Z" fill="#1785ff"/><path d="M17.58,2.74H3.48c-1.92,0-3.48,1.56-3.48,3.48v6.82c0,1.92,1.56,3.48,3.48,3.48h14.1c1.92,0,3.48-1.56,3.48-3.48V6.22c0-1.92-1.56-3.48-3.48-3.48Zm-5.38,8.2c-1.45,1.66-2.95,2.42-4.43,3.41-1.48-.99-2.98-1.74-4.43-3.41-1.61-2.28-.55-5.3,2.19-4.68,1.19,.27,2.01,.81,2.24,.94,.24-.14,1.05-.67,2.24-.94,2.74-.62,3.8,2.4,2.18,4.68Z" fill="#6ee4f8"/></svg>