<?xml version="1.0" encoding="UTF-8"?><svg id="a" xmlns="http://www.w3.org/2000/svg" viewBox="0 0 21.1 16.6"><path d="M10.6,0H1.9C.9,0,0,.8,0,1.9V6.1c0,1,.8,1.9,1.9,1.9h.1c.3-1.2,1.3-2,2.9-1.6,1.2,.3,2,.8,2.2,.9,.2-.1,1.1-.7,2.2-.9,1.3-.3,2.2,.2,2.6,1.1,.3-.3,.5-.8,.5-1.3V1.9c.1-1-.7-1.9-1.8-1.9Z" fill="#1785ff"/><path d="M17.6,2.8H3.6C1.6,2.8,.1,4.3,.1,6.3v6.8c0,1.9,1.6,3.5,3.5,3.5h14c1.9,0,3.5-1.6,3.5-3.5V6.3c0-2-1.5-3.5-3.5-3.5Zm-6.1,8.2c-1.4,1.7-2.9,2.4-4.4,3.4-1.5-1-3-1.7-4.4-3.4-1.6-2.3-.6-5.3,2.2-4.7,1.2,.3,2,.8,2.2,.9,.2-.1,1.1-.7,2.2-.9,2.8-.6,3.8,2.4,2.2,4.7Z" fill="#6ee4f8"/></svg>