<?xml version="1.0" encoding="UTF-8"?><svg id="a" xmlns="http://www.w3.org/2000/svg" viewBox="0 0 24 24"><path d="M13.89,10.3c.15-.27,.21-.23,.21-.56V4.82c0-1.03-.83-1.86-1.86-1.86H2.34c-1.03,0-1.86,.83-1.86,1.86v4.92c0,1.03,.83,1.86,1.86,1.86h1.42c-.21-2.67,9.03-3.63,10.12-1.3Z" fill="#1785ff"/><path d="M20.05,5.96H3.96c-1.92,0-3.48,1.56-3.48,3.48v8.11c0,1.92,1.56,3.48,3.48,3.48H20.05c1.92,0,3.48-1.56,3.48-3.48V9.44c0-1.92-1.56-3.48-3.48-3.48Zm-6.38,8.71c-1.45,1.66-2.95,2.42-4.43,3.41-1.48-.99-2.98-1.74-4.43-3.41-1.61-2.28-.55-5.3,2.19-4.68,1.19,.27,2.01,.81,2.24,.94,.24-.14,1.05-.67,2.24-.94,2.74-.62,3.8,2.4,2.18,4.68Z" fill="#6ee4f8"/></svg>