<?xml version="1.0" encoding="utf-8"?>
<!-- Generator: Adobe Illustrator 27.0.0, SVG Export Plug-In . SVG Version: 6.00 Build 0)  -->
<svg version="1.1" id="a" xmlns="http://www.w3.org/2000/svg" xmlns:xlink="http://www.w3.org/1999/xlink" x="0px" y="0px"
	 viewBox="0 0 24 24" style="enable-background:new 0 0 24 24;" xml:space="preserve">
<style type="text/css">
	.st0{fill:#1785FF;}
	.st1{fill:#6EE4F8;}
</style>
<path class="st0" d="M12,3.7H3.3c-1,0-1.9,0.8-1.9,1.9v4.2c0,1,0.8,1.9,1.9,1.9h0.1c0.3-1.2,1.3-2,2.9-1.6c1.2,0.3,2,0.8,2.2,0.9
	c0.2-0.1,1.1-0.7,2.2-0.9c1.3-0.3,2.2,0.2,2.6,1.1c0.3-0.3,0.5-0.8,0.5-1.3V5.6C13.9,4.6,13.1,3.7,12,3.7z"/>
<path class="st1" d="M19,6.5H5C3,6.5,1.5,8,1.5,10v6.8c0,1.9,1.6,3.5,3.5,3.5H19c1.9,0,3.5-1.6,3.5-3.5V10C22.5,8,21,6.5,19,6.5z
	 M12.9,14.7c-1.4,1.7-2.9,2.4-4.4,3.4c-1.5-1-3-1.7-4.4-3.4C2.5,12.4,3.5,9.4,6.3,10c1.2,0.3,2,0.8,2.2,0.9c0.2-0.1,1.1-0.7,2.2-0.9
	C13.5,9.4,14.5,12.4,12.9,14.7z"/>
</svg>
