<?xml version="1.0" encoding="UTF-8"?><svg id="a" xmlns="http://www.w3.org/2000/svg" viewBox="0 0 21.59 21.57"><g><path d="M7.24,11.78l-5.42-.04c-1.41-.01-2.28-1.55-1.57-2.76L3,4.31c.72-1.22,2.48-1.2,3.18,.02l2.67,4.71c.7,1.23-.2,2.75-1.61,2.74Z" fill="#6e85f8"/><path d="M9,7.12L6.48,2.75c-.71-1.22,.18-2.75,1.59-2.75h5.05c1.41,0,2.29,1.53,1.59,2.75l-2.52,4.37c-.71,1.22-2.47,1.22-3.18,0h0Z" fill="#6e85f8"/></g><g><polygon points="18.82 19.19 15.19 15.56 17.43 13.32 13.43 13.32 13.43 19.19 18.82 19.19" fill="#ff8bf5"/><path d="M9.93,13.32H1.89C.87,13.32,.03,14.15,.03,15.18v2.15c0,1.03,.83,1.86,1.86,1.86H9.93v-5.87Z" fill="#ff8bf5"/><path d="M21.11,14.58l-.98,.98,1.09,1.09v-1.46c0-.21-.04-.41-.11-.6Z" fill="#ff8bf5"/></g><g><path d="M13.43,11.3v.34c.18,.06,.37,.1,.57,.1l4.96,.04,.47-.48h-6.01Z" fill="#6e85f8"/><path d="M13.16,7.8h6.94c.08,0,.16,.01,.24,.02l-1.98-3.49c-.7-1.22-2.46-1.24-3.18-.02l-2.06,3.49s.02,0,.04,0Z" fill="#6e85f8"/></g><g><path d="M17.66,15.55l3.48-3.48c.93-.93,.27-2.53-1.04-2.53h-6.94c-.82,0-1.48,.66-1.48,1.48v9.06c0,.81,.66,1.48,1.48,1.48h6.94c1.32,0,1.98-1.6,1.05-2.52l-3.48-3.48h0Z" fill="#9a8bff"/><path d="M17.66,15.55l3.48-3.48c.93-.93,.27-2.53-1.04-2.53h-2.09l-6.34,6.33v4.2c0,.4,.16,.77,.42,1.03l5.56-5.56h0Z" fill="#ff8bf5"/></g></svg>