<?xml version="1.0" encoding="UTF-8"?><svg id="a" xmlns="http://www.w3.org/2000/svg" viewBox="0 0 24 24"><path d="M8.61,14.21l-5.42-.04c-1.41-.01-2.28-1.55-1.57-2.76l2.75-4.67c.72-1.22,2.48-1.2,3.18,.02l2.67,4.71c.7,1.23-.2,2.75-1.61,2.74Z" fill="#6e85f8"/><path d="M10.37,9.55l-2.52-4.37c-.71-1.22,.18-2.75,1.59-2.75h5.05c1.41,0,2.29,1.53,1.59,2.75l-2.52,4.37c-.71,1.22-2.47,1.22-3.18,0h0Z" fill="#6e85f8"/><g><path d="M19.03,17.99l3.48-3.48c.93-.93,.27-2.53-1.04-2.53h-6.94c-.82,0-1.48,.66-1.48,1.48v9.06c0,.81,.66,1.48,1.48,1.48h6.94c1.32,0,1.98-1.6,1.05-2.52l-3.48-3.48h0Z" fill="#9a8bff"/><path d="M19.03,17.99l3.48-3.48c.93-.93,.27-2.53-1.04-2.53h-2.09l-6.34,6.33v4.2c0,.4,.16,.77,.42,1.03l5.56-5.56h0Z" fill="#ff8bf5"/></g><path d="M11.8,17.79v-2.04H3.26c-1.03,0-1.86,.83-1.86,1.86v2.15c0,1.03,.83,1.86,1.86,1.86H11.8v-3.83Z" fill="#ff8bf5"/><path d="M14.53,10.73h6.94c.19,0,.37,.03,.55,.06l-2.29-4.03c-.7-1.22-2.46-1.24-3.18-.02l-2.37,4.03c.12-.02,.23-.04,.35-.04Z" fill="#6e85f8"/></svg>