<?xml version="1.0" encoding="UTF-8"?><svg id="a" xmlns="http://www.w3.org/2000/svg" xmlns:xlink="http://www.w3.org/1999/xlink" viewBox="0 0 23.08 18.42"><defs><linearGradient id="b" x1="9.12" y1="15.02" x2="9.27" y2="15.16" gradientTransform="translate(0 19.37) scale(1 -1)" gradientUnits="userSpaceOnUse"><stop offset="0" stop-color="#ff8bf5"/><stop offset=".83" stop-color="#9a8bff"/></linearGradient><linearGradient id="c" x1="11.07" y1="17.17" x2="11.36" y2="16.38" gradientTransform="translate(0 19.37) scale(1 -1)" gradientUnits="userSpaceOnUse"><stop offset="0" stop-color="#ff8bf5"/><stop offset=".83" stop-color="#9a8bff"/></linearGradient><linearGradient id="d" x1="4.75" y1="6.97" x2="5.43" y2="5.13" gradientTransform="translate(0 19.37) scale(1 -1)" gradientUnits="userSpaceOnUse"><stop offset="0" stop-color="#ff8bf5"/><stop offset=".83" stop-color="#9a8bff"/></linearGradient></defs><g><g><path d="M19.34,8.38c-1.65-2.92-7.35-3.6-9.15,.3" fill="none" stroke="#6e85f8" stroke-linecap="round" stroke-miterlimit="6.38" stroke-width="1.97"/><g><rect x="9.31" y="6.13" width="1.72" height="5.02" transform="translate(-2.88 11.43) rotate(-52.4)" fill="#6e85f8"/><g><path d="M7.57,11.08l-.6-4.88c-.08-.52,.3-1.05,.83-1.12l.45-.07c.53,0,1.05,.37,1.12,.9l.6,4.8c.07,.52-.3,1.05-.82,1.12l-.45,.08c-.6,.07-1.05-.3-1.13-.83Z" fill="#6e85f8"/><path d="M8.39,9.51l4.8-.6c.52-.08,1.05,.3,1.12,.83l.08,.45c.08,.52-.3,1.05-.83,1.12l-4.8,.6c-.53,.08-1.05-.3-1.12-.83l-.07-.45c-.15-.53,.23-1.05,.83-1.12Z" fill="#6e85f8"/></g></g></g><g><path d="M9.89,15.06c1.65,2.92,7.35,3.53,9.15-.38" fill="none" stroke="#ff8bf5" stroke-linecap="round" stroke-miterlimit="6.38" stroke-width="1.97"/><g><rect x="18.1" y="12.15" width="1.72" height="5.02" transform="translate(-4.22 20.75) rotate(-52.4)" fill="#ff8bf5"/><g><path d="M21.67,12.36l.6,4.8c.08,.53-.3,1.05-.83,1.12l-.45,.08c-.53,.08-1.05-.3-1.12-.83l-.6-4.8c-.08-.52,.3-1.05,.83-1.12l.45-.08c.53-.15,1.05,.23,1.12,.83Z" fill="#ff8bf5"/><path d="M20.84,13.86l-4.8,.6c-.52,.08-1.05-.3-1.12-.83l-.08-.45c-.08-.52,.3-1.05,.83-1.12l4.8-.6c.53-.08,1.05,.3,1.12,.83l.08,.45c.08,.52-.3,1.05-.83,1.12Z" fill="#ff8bf5"/></g></g></g></g><path d="M5.54,11.68v-.8c-.4-.4-.8-.8-1.1-1.2-1.4-2-1.3-4.2-.5-5.3,.8-1.1,2.1-1.1,3-.9,1,.2,1.8,.6,2.5,.9,1.1-.8,2.3-1.3,3.6-1.5-.1-.3-.4-.5-.7-.7l-.2-.1c-.7-.4-2.3-1.4-4.5-1.9C4.94-.42,2.54,.48,1.14,2.48-.56,4.98-.36,8.68,1.74,11.68l.1,.1c1.6,1.8,3.2,3.1,4.8,4.2-.7-1.3-1.1-2.8-1.1-4.3Z" fill="#9a8bff"/><path d="M9.34,4.28q-.1,0-.2-.1c0,.1,0,.2-.1,.2q.2,0,.3-.1Z" fill="url(#b)"/><g><path d="M13.04,2.78l-.5-.5c-.7-.6-1.8-.5-2.3,.2-.3,.4-.4,.9-.3,1.4,.9-.5,2-.9,3.1-1.1Z" fill="url(#c)"/><path d="M5.54,11.68c-.8,.1-1.4,.8-1.4,1.6,0,.9,.7,1.7,1.6,1.7h.5c-.5-1-.7-2.2-.7-3.3Z" fill="url(#d)"/></g><path d="M14.54,2.68c3.8,0,7,2.3,8.3,5.6,.5-2.1,.2-4.1-.9-5.7C20.54,.48,18.14-.32,15.44,.28c-1.1,.2-2,.6-2.7,1l1,1.5c.3-.1,.5-.1,.8-.1Z" fill="#ff8bf5"/><path d="M13.74,2.68l-1-1.5c-.7,.3-1.3,.7-1.6,.9-.1,.1-.2,.1-.2,.1-.6,.3-.9,1-.8,1.7,1-.6,2.2-1.1,3.6-1.2Z" fill="#ff8bf5"/></svg>