<?xml version="1.0" encoding="utf-8"?>
<!-- Generator: Adobe Illustrator 27.0.0, SVG Export Plug-In . SVG Version: 6.00 Build 0)  -->
<svg version="1.1" id="a" xmlns="http://www.w3.org/2000/svg" xmlns:xlink="http://www.w3.org/1999/xlink" x="0px" y="0px"
	 viewBox="0 0 24 24" style="enable-background:new 0 0 24 24;" xml:space="preserve">
<style type="text/css">
	.st0{fill:none;stroke:#6E85F8;stroke-width:2.625;stroke-linecap:round;stroke-miterlimit:8.505;}
	.st1{fill:#6E85F8;}
	.st2{fill:none;stroke:#FF8BF5;stroke-width:2.625;stroke-linecap:round;stroke-miterlimit:8.505;}
	.st3{fill:#FF8BF5;}
	.st4{fill:#9A8BFF;}
	.st5{fill:url(#SVGID_1_);}
	.st6{fill:url(#SVGID_00000038411670863636476930000000810070370818508729_);}
	.st7{fill:url(#SVGID_00000170273095874932850990000005216554540889199527_);}
</style>
<g transform="translate(6 6) scale(0.75 0.75)">
	<g>
		<path class="st0" d="M18.4,7.6C16.2,3.7,8.6,2.8,6.2,8"/>
		<g>
			<rect x="5.1" y="4.6" transform="matrix(0.6101 -0.7923 0.7923 0.6101 -3.9389 8.0426)" class="st1" width="2.3" height="6.7"/>
			<g>
				<path class="st1" d="M2.7,11.2L1.9,4.7C1.8,4,2.3,3.3,3,3.2l0.6-0.1C4.3,3.1,5,3.6,5.1,4.3l0.8,6.4c0.1,0.7-0.4,1.4-1.1,1.5
					l-0.6,0.1C3.4,12.4,2.8,11.9,2.7,11.2z"/>
				<path class="st1" d="M3.8,9.1l6.4-0.8c0.7-0.1,1.4,0.4,1.5,1.1l0.1,0.6c0.1,0.7-0.4,1.4-1.1,1.5l-6.4,0.8
					c-0.7,0.1-1.4-0.4-1.5-1.1l-0.1-0.6C2.5,9.9,3,9.2,3.8,9.1z"/>
			</g>
		</g>
	</g>
	<g>
		<path class="st2" d="M5.8,16.5c2.2,3.9,9.8,4.7,12.2-0.5"/>
		<g>
			
				<rect x="16.8" y="12.6" transform="matrix(0.6101 -0.7923 0.7923 0.6101 -5.6863 20.4636)" class="st3" width="2.3" height="6.7"/>
			<g>
				<path class="st3" d="M21.5,12.9l0.8,6.4c0.1,0.7-0.4,1.4-1.1,1.5l-0.6,0.1c-0.7,0.1-1.4-0.4-1.5-1.1l-0.8-6.4
					c-0.1-0.7,0.4-1.4,1.1-1.5l0.6-0.1C20.7,11.6,21.4,12.1,21.5,12.9z"/>
				<path class="st3" d="M20.4,14.9l-6.4,0.8c-0.7,0.1-1.4-0.4-1.5-1.1L12.4,14c-0.1-0.7,0.4-1.4,1.1-1.5l6.4-0.8
					c0.7-0.1,1.4,0.4,1.5,1.1l0.1,0.6C21.6,14.1,21.1,14.8,20.4,14.9z"/>
			</g>
		</g>
	</g>
</g>
<path class="st4" d="M6,15c0-0.3,0-0.5,0-0.8c-0.4-0.4-0.8-0.8-1.1-1.2c-1.4-2-1.3-4.2-0.5-5.3c0.8-1.1,2.1-1.1,3-0.9
	c1,0.2,1.8,0.6,2.5,0.9c1.1-0.8,2.3-1.3,3.6-1.5c-0.1-0.3-0.4-0.5-0.7-0.7l-0.2-0.1C11.9,5,10.3,4,8.1,3.5C5.4,2.9,3,3.8,1.6,5.8
	C-0.1,8.3,0.1,12,2.2,15l0.1,0.1c1.6,1.8,3.2,3.1,4.8,4.2C6.4,18,6,16.5,6,15z"/>
<linearGradient id="SVGID_1_" gradientUnits="userSpaceOnUse" x1="9.6184" y1="7.705" x2="9.7655" y2="7.559">
	<stop  offset="0" style="stop-color:#FF8BF5"/>
	<stop  offset="0.83" style="stop-color:#9A8BFF"/>
</linearGradient>
<path class="st5" d="M9.8,7.6c-0.1,0-0.1,0-0.2-0.1c0,0.1,0,0.2-0.1,0.2C9.7,7.7,9.7,7.7,9.8,7.6z"/>
<g>
	
		<linearGradient id="SVGID_00000096776919537174952690000004641906563466972086_" gradientUnits="userSpaceOnUse" x1="11.517" y1="5.5201" x2="11.8092" y2="6.3093">
		<stop  offset="0" style="stop-color:#FF8BF5"/>
		<stop  offset="0.83" style="stop-color:#9A8BFF"/>
	</linearGradient>
	<path style="fill:url(#SVGID_00000096776919537174952690000004641906563466972086_);" d="M13.5,6.1c-0.2-0.2-0.3-0.3-0.5-0.5
		c-0.7-0.6-1.8-0.5-2.3,0.2c-0.3,0.4-0.4,0.9-0.3,1.4C11.3,6.7,12.4,6.3,13.5,6.1z"/>
	
		<linearGradient id="SVGID_00000157995131950245244900000010368446168295831714_" gradientUnits="userSpaceOnUse" x1="5.2115" y1="15.7123" x2="5.8925" y2="17.5515">
		<stop  offset="0" style="stop-color:#FF8BF5"/>
		<stop  offset="0.83" style="stop-color:#9A8BFF"/>
	</linearGradient>
	<path style="fill:url(#SVGID_00000157995131950245244900000010368446168295831714_);" d="M6,15c-0.8,0.1-1.4,0.8-1.4,1.6
		c0,0.9,0.7,1.7,1.6,1.7c0.1,0,0.1,0,0.2,0c0.1,0,0.2,0,0.3,0C6.2,17.3,6,16.1,6,15z"/>
</g>
<path class="st3" d="M15,6c3.8,0,7,2.3,8.3,5.6c0.5-2.1,0.2-4.1-0.9-5.7c-1.4-2.1-3.8-2.9-6.5-2.3c-1.1,0.2-2,0.6-2.7,1l1,1.5
	C14.5,6,14.7,6,15,6z"/>
<path class="st3" d="M14.2,6l-1-1.5c-0.7,0.3-1.3,0.7-1.6,0.9c-0.1,0.1-0.2,0.1-0.2,0.1c-0.6,0.3-0.9,1-0.8,1.7
	C11.6,6.6,12.8,6.1,14.2,6z"/>
</svg>
