<?xml version="1.0" encoding="UTF-8"?><svg id="a" xmlns="http://www.w3.org/2000/svg" viewBox="0 0 21.29 21.62"><g><path d="M11,20.6h0l-.1-5.5H1.3c-.7,0-1.3,.6-1.3,1.3v3.4c0,.7,.6,1.3,1.3,1.3H11.1c-.1-.2-.1-.3-.1-.5Z" fill="#6e85f8"/><path d="M17,21.1h1.7c.7,0,1.3-.6,1.3-1.3v-.5l-3,1.8Z" fill="#6e85f8"/></g><path d="M10.9,12.6c0-.8,.4-1.6,1.1-2,.7-.4,1.6-.4,2.3,0l3.8,2.1V3.7c0-2-1.7-3.7-3.7-3.7H5.6C3.6,0,1.9,1.7,1.9,3.7V15.4c0,2,1.7,3.7,3.7,3.7h5.4l-.1-6.5Z" fill="#6e85f8"/><path d="M12,10.5c.7-.4,1.6-.4,2.3,0l.7,.4h.6V6c0-2.8-2.5-5.1-5.7-5.1S4.3,3.2,4.3,6v4.9h7.2c.2-.1,.3-.3,.5-.4Z" fill="#73ff9d"/><path d="M10.9,12.6c0-.8,.4-1.6,1.1-2,.7-.4,1.6-.4,2.3,0l1.3,.7v-.3c0-1-1-1.8-2.3-1.8-.6,0-1.1,.2-1.5,.4-.5-.3-1.2-.4-1.9-.4-1.6,0-3,.8-3,1.8s1.3,1.8,3,1.8c.4-.1,.7-.1,1-.2h0Z" fill="#73ff9d"/><path d="M8.8,10.9c0,1-1,1.8-2.2,1.8s-2.2-.8-2.2-1.8,1-1.8,2.2-1.8,2.2,.8,2.2,1.8Z" fill="#73ff9d"/><circle cx="7.9" cy="5" r="1.7" fill="#6e85f8"/><circle cx="11.9" cy="5" r="1.7" fill="#6e85f8"/><path d="M9.1,7.5c.4-.4,1.1-.4,1.5,0" fill="none" stroke="#6e85f8" stroke-linecap="round" stroke-miterlimit="11.34" stroke-width="1.25"/><path d="M12.25,20.6l-.1-8.05c0-.8,.85-1.35,1.55-.95l7.05,3.9c.7,.4,.75,1.4,0,1.85l-6.9,4.1c-.7,.45-1.6-.05-1.6-.85Z" fill="#1785ff"/></svg>