<?xml version="1.0" encoding="utf-8"?>
<!-- Generator: Adobe Illustrator 27.0.0, SVG Export Plug-In . SVG Version: 6.00 Build 0)  -->
<svg version="1.1" id="a" xmlns="http://www.w3.org/2000/svg" xmlns:xlink="http://www.w3.org/1999/xlink" x="0px" y="0px"
	 viewBox="0 0 24 24" style="enable-background:new 0 0 24 24;" xml:space="preserve">
<style type="text/css">
	.st0{fill:#6E85F8;}
	.st1{fill:#73FF9D;}
	.st2{fill:none;stroke:#6E85F8;stroke-width:1.25;stroke-linecap:round;stroke-miterlimit:11.34;}
	.st3{fill:#1785FF;}
</style>
<g>
	<path class="st0" d="M13,22.1L13,22.1l-0.1-5.5H3.3c-0.7,0-1.3,0.6-1.3,1.3v3.4c0,0.7,0.6,1.3,1.3,1.3h9.8C13,22.4,13,22.3,13,22.1
		z"/>
	<path class="st0" d="M19,22.6h1.7c0.7,0,1.3-0.6,1.3-1.3v-0.5L19,22.6z"/>
</g>
<g>
	<path class="st0" d="M12.9,14.1c0-0.8,0.4-1.6,1.1-2c0.7-0.4,1.6-0.4,2.3,0l3.8,2.1v-9c0-2-1.7-3.7-3.7-3.7H7.6
		c-2,0-3.7,1.7-3.7,3.7v11.7c0,2,1.7,3.7,3.7,3.7H13L12.9,14.1z"/>
</g>
<path class="st1" d="M14,12c0.7-0.4,1.6-0.4,2.3,0l0.7,0.4h0.6V7.5c0-2.8-2.5-5.1-5.7-5.1S6.3,4.7,6.3,7.5v4.9h7.2
	C13.7,12.3,13.8,12.1,14,12z"/>
<path class="st1" d="M12.9,14.1c0-0.8,0.4-1.6,1.1-2c0.7-0.4,1.6-0.4,2.3,0l1.3,0.7c0-0.1,0-0.2,0-0.3c0-1-1-1.8-2.3-1.8
	c-0.6,0-1.1,0.2-1.5,0.4c-0.5-0.3-1.2-0.4-1.9-0.4c-1.6,0-3,0.8-3,1.8c0,1,1.3,1.8,3,1.8C12.3,14.2,12.6,14.2,12.9,14.1L12.9,14.1z"
	/>
<path class="st1" d="M10.8,12.4c0,1-1,1.8-2.2,1.8s-2.2-0.8-2.2-1.8s1-1.8,2.2-1.8S10.8,11.4,10.8,12.4z"/>
<circle class="st0" cx="9.9" cy="6.5" r="1.7"/>
<circle class="st0" cx="13.9" cy="6.5" r="1.7"/>
<path class="st2" d="M11.1,9c0.4-0.4,1.1-0.4,1.5,0"/>
<g transform="translate(12 12) scale(0.5 0.5)">
	<path class="st3" d="M4.5,20.2L4.3,4.1c0-1.6,1.7-2.7,3.1-1.9L21.5,10c1.4,0.8,1.5,2.8,0,3.7L7.7,21.9C6.3,22.8,4.5,21.8,4.5,20.2z
		"/>
</g>
</svg>
