<?xml version="1.0" encoding="UTF-8"?><svg id="a" xmlns="http://www.w3.org/2000/svg" viewBox="0 0 22.35 22.18"><g><path d="M18.23,16.18l3.5-3.5c.9-.9,.25-2.5-1.1-2.5h-6.9c-.8,0-1.5,.65-1.5,1.5v9c0,.8,.65,1.5,1.5,1.5h6.95c1.3,0,2-1.6,1.05-2.5l-3.5-3.5h0Z" fill="#9a8bff"/><path d="M18.23,16.18l3.5-3.5c.9-.9,.25-2.5-1.1-2.5h-2.1l-6.3,6.3v4.2c0,.4,.15,.75,.4,1.05l5.6-5.55h0Z" fill="#ff8bf5"/></g><path d="M10.98,11.68c0-1.5,1.2-2.7,2.7-2.7h1.9L7.37,.68c-.9-.9-2.4-.9-3.3,0L.67,4.08c-.9,.9-.9,2.4,0,3.3l10.3,10.3v-6Z" fill="#6e85f8"/><path d="M10.98,11.68c0-1.5,1.2-2.7,2.7-2.7h6.4l1.6-1.6c.9-.9,.9-2.4,0-3.3l-3.4-3.4c-.9-.9-2.4-.9-3.3,0L2.58,12.98c-.9,.9-.9,2.4,0,3.3l3.4,3.4c.9,.9,2.4,.9,3.3,0l1.7-1.7v-6.3Z" fill="#6e85f8"/><path d="M10.98,11.68c0-1.5,1.2-2.7,2.7-2.7h1.9l-3.3-3.3c-.6-.6-1.7-.6-2.3,0l-4.4,4.4c-.6,.6-.6,1.7,0,2.3l4.4,4.4c.3,.3,.6,.4,1,.5,0,0,0-5.6,0-5.6Z" fill="#73ff9d"/></svg>