<?xml version="1.0" encoding="utf-8"?>
<!-- Generator: Adobe Illustrator 27.0.0, SVG Export Plug-In . SVG Version: 6.00 Build 0)  -->
<svg version="1.1" id="a" xmlns="http://www.w3.org/2000/svg" xmlns:xlink="http://www.w3.org/1999/xlink" x="0px" y="0px"
	 viewBox="0 0 24 24" style="enable-background:new 0 0 24 24;" xml:space="preserve">
<style type="text/css">
	.st0{fill:#9A8BFF;}
	.st1{fill:#FF8BF5;}
	.st2{fill:#6E85F8;}
	.st3{fill:#73FF9D;}
</style>
<g transform="translate(12 12) scale(0.5 0.5)">
	<path class="st0" d="M14.1,12l7-7C22.9,3.2,21.6,0,18.9,0H5.1c-1.6,0-3,1.3-3,3V21c0,1.6,1.3,3,3,3h13.9c2.6,0,4-3.2,2.1-5L14.1,12
		L14.1,12z"/>
	<path class="st1" d="M14.1,12l7-7C22.9,3.2,21.6,0,18.9,0h-4.2L2.1,12.6V21c0,0.8,0.3,1.5,0.8,2.1L14.1,12L14.1,12L14.1,12z"/>
</g>
<g>
	<path class="st2" d="M11.8,13.5c0-1.5,1.2-2.7,2.7-2.7h1.9L8.2,2.5c-0.9-0.9-2.4-0.9-3.3,0L1.5,5.9c-0.9,0.9-0.9,2.4,0,3.3
		l10.3,10.3V13.5z"/>
</g>
<g>
	<path class="st2" d="M11.8,13.5c0-1.5,1.2-2.7,2.7-2.7h6.4l1.6-1.6c0.9-0.9,0.9-2.4,0-3.3l-3.4-3.4c-0.9-0.9-2.4-0.9-3.3,0
		L3.4,14.8c-0.9,0.9-0.9,2.4,0,3.3l3.4,3.4c0.9,0.9,2.4,0.9,3.3,0l1.7-1.7V13.5z"/>
</g>
<g>
	<path class="st3" d="M11.8,13.5c0-1.5,1.2-2.7,2.7-2.7h1.9l-3.3-3.3c-0.6-0.6-1.7-0.6-2.3,0l-4.4,4.4c-0.6,0.6-0.6,1.7,0,2.3
		l4.4,4.4c0.3,0.3,0.6,0.4,1,0.5V13.5z"/>
</g>
</svg>
