<?xml version="1.0" encoding="utf-8"?>
<!-- Generator: Adobe Illustrator 27.0.0, SVG Export Plug-In . SVG Version: 6.00 Build 0)  -->
<svg version="1.1" id="a" xmlns="http://www.w3.org/2000/svg" xmlns:xlink="http://www.w3.org/1999/xlink" x="0px" y="0px"
	 viewBox="0 0 24 24" style="enable-background:new 0 0 24 24;" xml:space="preserve">
<style type="text/css">
	.st0{fill:#FF8BF5;}
	.st1{fill:#9A8BFF;}
</style>
<path class="st0" d="M9.2,5.2c1,0,2,0.5,2.7,1.2l2.8,3.2c0.6,0.7,1.6,0.7,2.2,0.2c0.4-0.3,0.5-0.8,0.5-1.2c0-0.4-0.1-0.7-0.4-1
	l-2.8-3.2C13,2.9,11.2,2,9.2,2C7.6,2,6,2.6,4.8,3.7l0,0C4.1,4.3,4.1,5.3,4.7,5.9c0.6,0.7,1.6,0.7,2.2,0.1C7.5,5.5,8.4,5.2,9.2,5.2z"
	/>
<g>
	<path class="st0" d="M11.8,17.3l-2.5-2.9c-0.6-0.7-1.6-0.7-2.2-0.2s-0.7,1.6-0.2,2.2l2.8,3.2c0.6,0.7,1.3,1.2,2.1,1.6V17.3z"/>
</g>
<g>
	<path class="st1" d="M7.6,6.9L4.4,9.7C2.9,10.9,2,12.8,2,14.8c0,1.6,0.6,3.2,1.7,4.4v0c0.3,0.4,0.7,0.5,1.2,0.5l0,0
		c0.4,0,0.7-0.1,1-0.4c0.7-0.6,0.7-1.6,0.1-2.2c-0.6-0.6-0.9-1.5-0.9-2.3c0-1,0.5-2,1.2-2.7l3.2-2.8c0.7-0.6,0.7-1.6,0.2-2.2
		C9.2,6.4,8.2,6.3,7.6,6.9z"/>
	<path class="st1" d="M18.8,9.2c0,0.5-0.1,1-0.3,1.5h3c0.1,0,0.2,0,0.3,0c0.1-0.5,0.2-1,0.2-1.5c0-1.6-0.6-3.2-1.7-4.4l0,0
		c-0.6-0.6-1.6-0.7-2.2-0.1c-0.7,0.6-0.7,1.6-0.1,2.2C18.5,7.5,18.8,8.4,18.8,9.2z"/>
</g>
<g transform="translate(12 12) scale(0.5 0.5)">
	<path class="st1" d="M14.1,12l7-7C22.9,3.2,21.6,0,18.9,0H5.1c-1.6,0-3,1.3-3,3V21c0,1.6,1.3,3,3,3h13.9c2.6,0,4-3.2,2.1-5L14.1,12
		L14.1,12z"/>
	<path class="st0" d="M14.1,12l7-7C22.9,3.2,21.6,0,18.9,0h-4.2L2.1,12.6V21c0,0.8,0.3,1.5,0.8,2.1L14.1,12L14.1,12L14.1,12z"/>
</g>
</svg>
