<?xml version="1.0" encoding="UTF-8"?><svg id="a" xmlns="http://www.w3.org/2000/svg" viewBox="0 0 24 24"><g><path d="M19.03,17.99l3.48-3.48c.93-.93,.27-2.53-1.04-2.53h-6.94c-.82,0-1.48,.66-1.48,1.48v9.06c0,.81,.66,1.48,1.48,1.48h6.94c1.32,0,1.98-1.6,1.05-2.52l-3.48-3.48h0Z" fill="#9a8bff"/><path d="M19.03,17.99l3.48-3.48c.93-.93,.27-2.53-1.04-2.53h-2.09l-6.34,6.33v4.2c0,.4,.16,.77,.42,1.03l5.56-5.56h0Z" fill="#ff8bf5"/></g><g><path d="M9.22,5.2c1.04,0,2.04,.45,2.72,1.24l2.75,3.18c.57,.66,1.56,.73,2.22,.16,.36-.31,.54-.75,.54-1.19,0-.37-.12-.73-.38-1.03l-2.75-3.18c-1.28-1.48-3.14-2.33-5.1-2.33-1.62,0-3.18,.58-4.44,1.67l-.02,.02c-.64,.58-.68,1.56-.11,2.2,.57,.65,1.57,.7,2.22,.14,.65-.57,1.49-.88,2.35-.88Z" fill="#ff8bf5"/><path d="M11.8,17.79v-.51l-2.52-2.91c-.57-.66-1.56-.73-2.22-.16s-.73,1.56-.16,2.22l2.77,3.2c.6,.69,1.33,1.24,2.13,1.63v-3.47Z" fill="#ff8bf5"/></g><g><path d="M18.8,9.22c0,.53-.12,1.04-.33,1.51h3c.1,0,.2,.01,.3,.02,.12-.5,.18-1.01,.18-1.53,0-1.62-.58-3.18-1.67-4.44l-.02-.02c-.58-.64-1.56-.68-2.2-.11-.65,.57-.7,1.57-.14,2.22,.57,.65,.88,1.49,.88,2.35Z" fill="#9a8bff"/><path d="M7.57,6.89l-3.2,2.77c-1.48,1.28-2.33,3.14-2.33,5.1,0,1.62,.58,3.19,1.68,4.44v.02c.31,.35,.73,.53,1.16,.53h.01c.37-.01,.74-.14,1.04-.4,.65-.57,.71-1.58,.14-2.24-.57-.65-.88-1.49-.88-2.35,0-1.04,.45-2.04,1.24-2.72l3.2-2.77c.66-.57,.73-1.56,.16-2.22-.57-.66-1.56-.73-2.22-.16Z" fill="#9a8bff"/></g></svg>