<?xml version="1.0" encoding="UTF-8"?><svg id="a" xmlns="http://www.w3.org/2000/svg" viewBox="0 0 20.99 22"><path d="M7.2,3.2c1,0,2,.5,2.7,1.2l2.8,3.2c.6,.7,1.6,.7,2.2,.2,.4-.3,.5-.8,.5-1.2s-.1-.7-.4-1l-2.8-3.2C11,.9,9.2,0,7.2,0c-1.6,0-3.2,.6-4.4,1.7h0c-.7,.6-.7,1.6-.1,2.2,.6,.7,1.6,.7,2.2,.1,.6-.5,1.5-.8,2.3-.8Z" fill="#ff8bf5"/><path d="M9.8,15.3l-2.5-2.9c-.6-.7-1.6-.7-2.2-.2s-.7,1.6-.2,2.2l2.8,3.2c.6,.7,1.3,1.2,2.1,1.6,0,0,0-3.9,0-3.9Z" fill="#ff8bf5"/><g><path d="M5.6,4.9l-3.2,2.8c-1.5,1.2-2.4,3.1-2.4,5.1,0,1.6,.6,3.2,1.7,4.4h0c.3,.4,.7,.5,1.2,.5h0c.4,0,.7-.1,1-.4,.7-.6,.7-1.6,.1-2.2s-.9-1.5-.9-2.3c0-1,.5-2,1.2-2.7l3.2-2.8c.7-.6,.7-1.6,.2-2.2-.5-.7-1.5-.8-2.1-.2Z" fill="#9a8bff"/><path d="M16.8,7.2c0,.5-.1,1-.3,1.5h3.3c.1-.5,.2-1,.2-1.5,0-1.6-.6-3.2-1.7-4.4h0c-.6-.6-1.6-.7-2.2-.1-.7,.6-.7,1.6-.1,2.2,.5,.6,.8,1.5,.8,2.3Z" fill="#9a8bff"/></g><g><path d="M17.05,16l3.5-3.5c.9-.9,.25-2.5-1.1-2.5h-6.9c-.8,0-1.5,.65-1.5,1.5v9c0,.8,.65,1.5,1.5,1.5h6.95c1.3,0,2-1.6,1.05-2.5l-3.5-3.5h0Z" fill="#9a8bff"/><path d="M17.05,16l3.5-3.5c.9-.9,.25-2.5-1.1-2.5h-2.1l-6.3,6.3v4.2c0,.4,.15,.75,.4,1.05l5.6-5.55h0Z" fill="#ff8bf5"/></g></svg>