<?xml version="1.0" encoding="UTF-8"?><svg id="a" xmlns="http://www.w3.org/2000/svg" viewBox="0 0 22.73 22.52"><path d="M7.63,11c8.2-2,1-8.4,12-8.6" fill="none" stroke="#6e85f8" stroke-linecap="round" stroke-miterlimit="10" stroke-width="3"/><path d="M7.33,8.4c1.2-3.3,.7-5.9-1.3-7" fill="none" stroke="#6e85f8" stroke-linecap="round" stroke-linejoin="round" stroke-width="2"/><circle cx="3.33" cy="3.4" r="1.7" fill="#ff8bf5"/><circle cx="10.53" cy="1.8" r="1.8" fill="#6ee4f8"/><circle cx="18.63" cy="7.1" r="2" fill="#6e85f8"/><g><path d="M21.3,15.69q-.07,.07-.13,.13c-.72,2.21-2.08,4.09-4.29,5.01l-.26,.32c1.17-.46,3.12-1.37,4.81-3.32,.58-.65,.97-1.3,1.3-1.88l-1.43-.26h0Z" fill="#e61b1b"/><path d="M9.4,17.71c-.71,.58-1.23,2.27-.91,2.6,.91,.78,5.98,1.23,7.48,.84,2.8-.78,4.42-2.86,5.2-5.39-3.57-.84-9.42,0-11.76,1.95h0Z" fill="#9a8bff"/><path d="M16.94,20.89c.13,.13,.26,.39,.39,.65-.26-.19-.97-.32-1.56-.26-.52,.13-.91,.58-.97,.65-.13-.07-.65-.32-1.37-.46-.26,0-.72,.19-.91,.39-.39-.32-.65-.52-1.3-.72l.39,.07,1.3,.19h1.1l1.23-.13,1.69-.39h0Z" fill="#6e85f8"/><path d="M10.57,18.75c.78,1.69,2.8,2.08,4.55,1.56,1.69-.45,3.12-1.82,2.54-4.09-.39-1.17-2.21-1.1-3.9-.78-2.08,.39-3.97,1.3-3.19,3.32h0Z" fill="#6e85f8"/><path d="M10.38,21.02c.52,.07,1.17,.07,1.95,.13,1.56,.07,2.02,.07,2.34,0,.65-.07,1.23-.07,1.95-.32,.65-.2,1.11-.52,1.37-.72s1.11-.72,1.88-1.75c.32-.39,.65-.97,.97-1.69-.13,.45-.39,1.04-.84,1.69-.32,.58-.84,1.3-1.69,1.95-.26,.2-.97,.72-2.08,.97-.58,.13-1.1,.19-1.62,.19-.2,0-.91,.07-2.01-.07-.59-.07-1.3-.2-2.21-.39h0Z" fill="#6e85f8"/><g><path d="M7.71,17.97c4.16-3.57,11.76-3.57,15.01-2.02-5.52-.32-11.7-.13-15.6,3.77,.39-.78,1.23-1.69,2.01-2.4-.39,.13-.91,.32-1.43,.65Z" fill="#6e85f8"/><path d="M19.54,14.46c-4.03-.65-7.73-.2-11.05,1.88,2.27-1.43,7.08-2.53,11.05-1.88Z" fill="#6e85f8"/></g></g><path d="M7.13,17.7c0-2.8,3-5,6.8-5.4L5.83,5.6c-.6-.4-1.5-.2-1.7,.6L.03,21.2c-.2,.9,.7,1.6,1.5,1.2l6-3c-.2-.5-.4-1.1-.4-1.7Z" fill="#9a8bff"/><path d="M14.93,12.3c1.7,0,3.3,.4,4.6,1.1,.1,0,.2,.1,.2,.1,.8,.3,1.6,0,2-.8,.3-.8,0-1.6-.8-2-3.2-1.4-8-1-11,2.2-.2,.2-.3,.6-.4,.9,1.5-1,3.3-1.5,5.4-1.5Z" fill="#ff8bf5"/></svg>