<?xml version="1.0" encoding="utf-8"?>
<!-- Generator: Adobe Illustrator 27.0.0, SVG Export Plug-In . SVG Version: 6.00 Build 0)  -->
<svg version="1.1" id="a" xmlns="http://www.w3.org/2000/svg" xmlns:xlink="http://www.w3.org/1999/xlink" x="0px" y="0px"
	 viewBox="0 0 24 24" style="enable-background:new 0 0 24 24;" xml:space="preserve">
<style type="text/css">
	.st0{fill:none;stroke:#6E85F8;stroke-width:3;stroke-linecap:round;stroke-miterlimit:10;}
	.st1{fill:none;stroke:#6E85F8;stroke-width:2;stroke-linecap:round;stroke-linejoin:round;}
	.st2{fill:#FF8BF5;}
	.st3{fill:#6EE4F8;}
	.st4{fill:#6E85F8;}
	.st5{fill:#E61B1B;}
	.st6{fill:#9A8BFF;}
</style>
<path class="st0" d="M8.9,11.6c8.2-2,1-8.4,12-8.6"/>
<path class="st1" d="M8.6,9c1.2-3.3,0.7-5.9-1.3-7"/>
<circle class="st2" cx="4.6" cy="4" r="1.7"/>
<circle class="st3" cx="11.8" cy="2.4" r="1.8"/>
<circle class="st4" cx="19.9" cy="7.7" r="2"/>
<g transform="translate(8.399999999999999 10.899999999999999) scale(0.65 0.65)">
	<path class="st5" d="M21.8,8.3c-0.1,0.1-0.1,0.1-0.2,0.2c-1.1,3.4-3.2,6.3-6.6,7.7l-0.4,0.5c1.8-0.7,4.8-2.1,7.4-5.1
		c0.9-1,1.5-2,2-2.9L21.8,8.3L21.8,8.3z"/>
	<path class="st6" d="M3.5,11.4c-1.1,0.9-1.9,3.5-1.4,4c1.4,1.2,9.2,1.9,11.5,1.3c4.3-1.2,6.8-4.4,8-8.3C16.1,7.1,7.1,8.4,3.5,11.4
		L3.5,11.4z"/>
	<path class="st4" d="M15.1,16.3c0.2,0.2,0.4,0.6,0.6,1c-0.4-0.3-1.5-0.5-2.4-0.4c-0.8,0.2-1.4,0.9-1.5,1c-0.2-0.1-1-0.5-2.1-0.7
		c-0.4,0-1.1,0.3-1.4,0.6c-0.6-0.5-1-0.8-2-1.1l0.6,0.1l2,0.3l1.7,0l1.9-0.2L15.1,16.3L15.1,16.3z"/>
	<path class="st4" d="M5.3,13c1.2,2.6,4.3,3.2,7,2.4c2.6-0.7,4.8-2.8,3.9-6.3c-0.6-1.8-3.4-1.7-6-1.2C7,8.5,4.1,9.9,5.3,13L5.3,13z"
		/>
	<path class="st4" d="M5,16.5c0.8,0.1,1.8,0.1,3,0.2c2.4,0.1,3.1,0.1,3.6,0c1-0.1,1.9-0.1,3-0.5c1-0.3,1.7-0.8,2.1-1.1
		c0.4-0.3,1.7-1.1,2.9-2.7c0.5-0.6,1-1.5,1.5-2.6c-0.2,0.7-0.6,1.6-1.3,2.6c-0.5,0.9-1.3,2-2.6,3c-0.4,0.3-1.5,1.1-3.2,1.5
		c-0.9,0.2-1.7,0.3-2.5,0.3c-0.3,0-1.4,0.1-3.1-0.1C7.5,17,6.4,16.8,5,16.5L5,16.5z"/>
	<g>
		<path class="st4" d="M0.9,11.8C7.3,6.3,19,6.3,24,8.7C15.5,8.2,6,8.5,0,14.5c0.6-1.2,1.9-2.6,3.1-3.7C2.5,11,1.7,11.3,0.9,11.8z"
			/>
		<path class="st4" d="M19.1,6.4c-6.2-1-11.9-0.3-17,2.9C5.6,7.1,13,5.4,19.1,6.4z"/>
	</g>
</g>
<path class="st6" d="M8.4,18.3c0-2.8,3-5,6.8-5.4L7.1,6.2C6.5,5.8,5.6,6,5.4,6.8l-4.1,15C1.1,22.7,2,23.4,2.8,23l6-3
	C8.6,19.5,8.4,18.9,8.4,18.3z"/>
<path class="st2" d="M16.2,12.9c1.7,0,3.3,0.4,4.6,1.1c0.1,0,0.2,0.1,0.2,0.1c0.8,0.3,1.6,0,2-0.8c0.3-0.8,0-1.6-0.8-2
	c-3.2-1.4-8-1-11,2.2c-0.2,0.2-0.3,0.6-0.4,0.9C12.3,13.4,14.1,12.9,16.2,12.9z"/>
</svg>
