<?xml version="1.0" encoding="UTF-8"?><svg id="a" xmlns="http://www.w3.org/2000/svg" viewBox="0 0 24 24"><circle cx="12" cy="12" r="10.09" fill="none" stroke="#6e85f8" stroke-miterlimit="10" stroke-width="2.5"/><path d="M3.43,12.31c-1.15,0-2.07,.93-2.07,2.07s.93,2.07,2.07,2.07,2.07-.93,2.07-2.07-.93-2.07-2.07-2.07h0Z" fill="#ff8bf5"/><path d="M20.86,11.92c-1.15,0-2.07,.93-2.07,2.07s.93,2.07,2.07,2.07,2.07-.93,2.07-2.07-.93-2.07-2.07-2.07h0Z" fill="#ff8bf5"/><g><rect x="5.12" y="9.71" width="5.19" height="1.84" rx=".92" ry=".92" transform="translate(19.72 15.98) rotate(150)" fill="#6e85f8"/><rect x="5.12" y="8.04" width="5.19" height="1.84" rx=".92" ry=".92" transform="translate(9.93 20.57) rotate(-150)" fill="#6e85f8"/></g><path d="M9.82,12.16c1.02,1.05,3.08,1.02,4.12-.01" fill="none" stroke="#6e85f8" stroke-linecap="round" stroke-miterlimit="11.34" stroke-width="1.25"/><g><rect x="13.61" y="9.71" width="5.19" height="1.84" rx=".92" ry=".92" transform="translate(7.49 -6.68) rotate(30)" fill="#6e85f8"/><rect x="13.61" y="8.04" width="5.19" height="1.84" rx=".92" ry=".92" transform="translate(-2.31 9.3) rotate(-30)" fill="#6e85f8"/></g></svg>