<?xml version="1.0" encoding="UTF-8"?><svg id="a" xmlns="http://www.w3.org/2000/svg" viewBox="0 0 24 24"><path d="M9.22,22.05c-.21,0-.41-.01-.61-.03-2.14-.24-3.97-1.71-4.66-3.75-.99-2.91,.57-6.08,3.48-7.07,1.73-.59,1.85-2.27,1.77-3.21-.26-3.06,2.02-5.77,5.08-6.03,.16-.01,.32-.02,.48-.02,2.91,0,5.3,2.19,5.55,5.1,.58,6.82-3.07,12.6-9.29,14.71-.58,.2-1.18,.3-1.79,.3Z" fill="#9a8bff"/><path d="M14.75,2.94c2.36,0,4.35,1.8,4.55,4.18,.54,6.35-2.84,11.72-8.61,13.68-.49,.17-.98,.24-1.47,.24-.17,0-.34,0-.5-.03-1.71-.19-3.24-1.34-3.83-3.07-.81-2.39,.47-4.99,2.86-5.8,2.46-.84,2.53-3.25,2.44-4.25-.21-2.52,1.65-4.73,4.17-4.94,.13-.01,.26-.02,.39-.02m0-2h0c-.19,0-.37,0-.56,.02-3.61,.31-6.3,3.49-5.99,7.1,.15,1.76-.79,2.08-1.09,2.18-3.43,1.17-5.27,4.91-4.11,8.34,.82,2.4,2.98,4.14,5.5,4.42,.24,.03,.48,.04,.72,.04,.72,0,1.43-.12,2.11-.35,6.67-2.27,10.58-8.45,9.96-15.74-.29-3.43-3.1-6.02-6.54-6.02h0Z" fill="#ff8bf5"/></svg>