<?xml version="1.0" encoding="UTF-8"?><svg id="a" xmlns="http://www.w3.org/2000/svg" viewBox="0 0 24 24"><path d="M21.91,12.43c0,4.95-4.44,8.97-9.91,8.97S2.09,17.38,2.09,12.43H21.91Z" fill="#ff8bf5"/><path d="M21.18,11.28H2.81c-.4,0-.72,.32-.72,.72v.43H21.91v-.43c0-.4-.32-.72-.72-.72Z" fill="#9a8bff"/><rect x="9.37" y="2.34" width="5.18" height="9.94" rx="1.25" ry="1.25" fill="#9a8bff"/><path d="M20.27,7.37l-6.47,3.73c-.46,.27-1.04-.07-1.04-.6V3.03c0-.53,.58-.87,1.04-.6l6.47,3.73c.46,.27,.46,.93,0,1.2Z" fill="#ff8bf5"/></svg>