<?xml version="1.0" encoding="UTF-8"?><svg id="a" xmlns="http://www.w3.org/2000/svg" viewBox="0 0 24 24"><path d="M11.32,10.58L3.95,6.32c-1.09-.63-2.46,.16-2.46,1.42v8.51c0,1.26,1.37,2.05,2.46,1.42l7.37-4.26c1.09-.63,1.09-2.21,0-2.84Z" fill="#5c5fff"/><path d="M12.69,10.58l7.37-4.26c1.09-.63,2.46,.16,2.46,1.42v8.51c0,1.26-1.37,2.05-2.46,1.42l-7.37-4.26c-1.09-.63-1.09-2.21,0-2.84Z" fill="#5c5fff"/><path d="M12,8.74c.3-.16,1.29-.82,2.75-1.15,3.36-.77,4.64,2.93,2.67,5.72-1.77,2.03-3.6,2.96-5.41,4.16-1.81-1.2-3.65-2.13-5.41-4.16-1.98-2.79-.69-6.49,2.67-5.72,1.46,.33,2.45,.99,2.75,1.15" fill="#5c98ff"/></svg>