<?xml version="1.0" encoding="UTF-8"?><svg id="a" xmlns="http://www.w3.org/2000/svg" viewBox="0 0 24 24"><path d="M15.78,8c4.28,4.05,6.55,8.61,5.06,10.19s-6.17-.43-10.46-4.48S3.83,5.1,5.32,3.53s6.17,.43,10.46,4.48C9.78,2.34,3.23-.47,1.14,1.74s1.08,8.59,7.08,14.26,12.55,8.47,14.63,6.26-1.08-8.59-7.08-14.26Z" fill="#ff8bf5"/><circle cx="11.56" cy="12.05" r="7.8" fill="#6e8bf8"/><path d="M16.57,18.02c-1.87-.82-4.08-2.31-6.19-4.31-2.34-2.21-4.07-4.57-4.92-6.52-.87,1.09-1.45,2.41-1.63,3.86,1.2,1.63,2.68,3.31,4.4,4.94,1.53,1.44,3.09,2.7,4.61,3.74,1.41-.23,2.69-.83,3.74-1.71Z" fill="#ff8bf5"/></svg>