<?xml version="1.0" encoding="UTF-8"?><svg id="a" xmlns="http://www.w3.org/2000/svg" viewBox="0 0 24 24"><circle cx="14.26" cy="16.55" r="6.53" fill="#ff8bf5"/><path d="M16.25,10.57c1.75-5.1-1.56-9.35-6.73-6.54" fill="none" stroke="#ff8bf5" stroke-linecap="round" stroke-linejoin="round" stroke-width="2"/><path d="M9.49,8.44l-1.39-.34c-.14-.03-.28,.03-.35,.15l-.69,1.26c-.12,.23-.45,.22-.56-.02l-.6-1.3c-.06-.13-.2-.2-.34-.18l-1.41,.24c-.25,.04-.45-.22-.34-.45l.64-1.28c.06-.13,.03-.28-.07-.38l-1.07-.95c-.19-.17-.11-.49,.14-.54l1.4-.3c.14-.03,.24-.15,.25-.29l.07-1.43c.01-.26,.31-.39,.51-.23l1.11,.91c.11,.09,.27,.1,.38,.01l1.16-.83c.21-.15,.5,0,.5,.26l-.02,1.43c0,.14,.09,.27,.23,.31l1.38,.39c.25,.07,.31,.39,.11,.55l-1.13,.88c-.11,.09-.15,.24-.1,.37l.55,1.32c.1,.24-.11,.49-.36,.43Z" fill="#9a8bff"/></svg>