<?xml version="1.0" encoding="UTF-8"?><svg id="a" xmlns="http://www.w3.org/2000/svg" viewBox="0 0 24 24"><rect x="2.06" y="4" width="19.92" height="2.25" rx=".92" ry=".92" fill="#6e85f8"/><rect x="2.06" y="8.4" width="19.92" height="2.25" rx=".92" ry=".92" fill="#6e85f8"/><path d="M20.1,15.45l1.42-1.42c.62-.62,.62-1.62,0-2.24h0c-.62-.62-1.62-.62-2.24,0l-1.42,1.42-1.42-1.42c-.62-.62-1.62-.62-2.24,0h0c-.62,.62-.62,1.62,0,2.24l1.42,1.42-1.42,1.42c-.62,.62-.62,1.62,0,2.24h0c.62,.62,1.62,.62,2.24,0l1.42-1.42,1.42,1.42c.62,.62,1.62,.62,2.24,0h0c.62-.62,.62-1.62,0-2.24l-1.42-1.42Z" fill="#6ee4f8"/><path d="M12.88,13.8c0-.55-.42-1-.94-1H3.01c-.53,0-.96,.46-.96,1.02v.21c0,.56,.43,1.02,.96,1.02H11.93c.52,0,.94-.45,.94-1v-.25Z" fill="#6e85f8"/><path d="M12.88,18.21c0-.55-.42-1-.95-1H3.01c-.53,0-.96,.46-.96,1.02v.21c0,.56,.43,1.02,.96,1.02H11.93c.52,0,.95-.45,.95-1v-.25Z" fill="#6e85f8"/></svg>