<?xml version="1.0" encoding="UTF-8"?><svg id="a" xmlns="http://www.w3.org/2000/svg" viewBox="0 0 24 24"><path d="M6.09,3.93h0c-.18-1.27,1.39-2,2.25-1.05h0c.58,.64,1.61,.55,2.06-.18h0c.68-1.08,2.35-.64,2.4,.64h0c.03,.86,.88,1.45,1.7,1.19h0c1.22-.39,2.21,1.02,1.42,2.03h0c-.53,.68-.26,1.68,.54,2h0c1.19,.48,1.04,2.2-.22,2.47h0c-.84,.18-1.28,1.12-.87,1.88h0c.6,1.13-.62,2.35-1.75,1.75h0c-.76-.4-1.7,.03-1.88,.88h0c-.27,1.25-1.99,1.4-2.47,.22h0c-.32-.8-1.32-1.07-2-.54h0c-1.01,.79-2.43-.21-2.03-1.42h0c.27-.82-.33-1.67-1.19-1.7h0c-1.28-.05-1.73-1.72-.64-2.4h0c.73-.46,.82-1.49,.18-2.06h0c-.95-.86-.22-2.43,1.05-2.25h0c.85,.12,1.58-.61,1.46-1.46Z" fill="#b08bff"/><path d="M14.1,18.15l-.53-.44c-.88-.73-.49-2.16,.64-2.35l.68-.11c.46-.08,.85-.39,1.02-.82l.26-.64c.42-1.06,1.9-1.14,2.43-.12l.32,.62c.22,.42,.63,.69,1.1,.72l.69,.04c1.14,.07,1.67,1.46,.86,2.27l-.49,.49c-.33,.33-.46,.81-.34,1.27l.17,.67c.28,1.11-.87,2.04-1.89,1.52l-.62-.31c-.42-.21-.92-.19-1.31,.06l-.59,.37c-.97,.61-2.21-.2-2.03-1.33l.1-.69c.07-.46-.11-.93-.47-1.23Z" fill="#b08bff"/></svg>