<?xml version="1.0" encoding="UTF-8"?><svg id="a" xmlns="http://www.w3.org/2000/svg" viewBox="0 0 24 24"><path d="M4.87,2.39h0C4.65,.88,6.53,0,7.55,1.14h0c.69,.76,1.92,.66,2.46-.22h0c.81-1.3,2.81-.76,2.86,.77h0c.04,1.03,1.05,1.74,2.03,1.42h0c1.45-.47,2.64,1.22,1.7,2.43h0c-.63,.81-.31,2,.64,2.39h0c1.42,.57,1.24,2.63-.26,2.95h0c-1.01,.21-1.53,1.33-1.04,2.24h0c.72,1.35-.74,2.81-2.09,2.1h0c-.91-.48-2.03,.04-2.24,1.05h0c-.32,1.49-2.38,1.67-2.95,.26h0c-.39-.95-1.58-1.27-2.39-.64h0c-1.2,.94-2.9-.25-2.43-1.7h0c.32-.98-.39-1.99-1.42-2.03h0c-1.53-.05-2.06-2.05-.77-2.86h0c.87-.55,.98-1.78,.21-2.46h0c-1.13-1.02-.26-2.9,1.25-2.69h0c1.02,.14,1.89-.73,1.75-1.75Z" fill="#b08bff"/><path d="M14.43,19.37l-.64-.53c-1.05-.87-.59-2.58,.76-2.8l.82-.13c.55-.09,1.02-.46,1.22-.98l.31-.77c.51-1.27,2.27-1.36,2.9-.14l.38,.74c.26,.5,.76,.82,1.31,.86l.83,.05c1.36,.09,1.99,1.74,1.03,2.71l-.58,.59c-.39,.4-.55,.97-.41,1.52l.2,.8c.34,1.33-1.04,2.43-2.26,1.82l-.74-.37c-.5-.25-1.1-.22-1.57,.08l-.7,.44c-1.16,.73-2.64-.24-2.43-1.59l.13-.82c.08-.55-.13-1.11-.56-1.47Z" fill="#b08bff"/></svg>