<?xml version="1.0" encoding="UTF-8"?><svg id="a" xmlns="http://www.w3.org/2000/svg" viewBox="0 0 24 24"><path d="M11.02,20.78C6.17,17.89,3.23,11.37,2.9,5.14c-.04-.76,.53-1.43,1.33-1.6,3.59-.78,12-.79,15.55-.01,.79,.17,1.35,.84,1.32,1.6-.29,6.77-3.23,12.81-8.13,15.67-.6,.35-1.35,.35-1.95,0Z" fill="#6e85f8" stroke="#6e85f8" stroke-linecap="round" stroke-linejoin="round" stroke-width="2"/><path d="M12,7.84c.23-.13,1.03-.65,2.18-.92,2.67-.61,3.69,2.33,2.12,4.55-1.41,1.61-2.87,2.36-4.31,3.31-1.44-.96-2.9-1.7-4.31-3.31-1.57-2.22-.55-5.16,2.12-4.55,1.16,.26,1.95,.79,2.18,.92" fill="#73ff9d"/></svg>