<?xml version="1.0" encoding="UTF-8"?><svg id="a" xmlns="http://www.w3.org/2000/svg" viewBox="0 0 24 24"><g><path d="M8.94,18.16c-2.05-.46-4.62-1.95-6.07-3.62-1.63-2.29-.57-5.33,2.19-4.7,1.2,.27,2.01,.81,2.26,.95" fill="none" stroke="#9a8bff" stroke-miterlimit="10" stroke-width="2.5"/><path d="M8.95,8.66h10.43c1.39,0,2.52,1.13,2.52,2.52v2.96c0,3.87-3.14,7.02-7.02,7.02h-1.43c-3.87,0-7.02-3.14-7.02-7.02v-2.96c0-1.39,1.13-2.52,2.52-2.52Z" fill="#ff8bf5"/><ellipse cx="14.17" cy="9.44" rx="6.9" ry="1.32" fill="#9a8bff"/></g><path d="M13.74,2.89c-1.34,2.02,1.44,2.02,0,4.03" fill="none" stroke="#ff8bf5" stroke-linecap="round" stroke-miterlimit="10" stroke-width="2"/></svg>