<?xml version="1.0" encoding="UTF-8"?><svg id="c" xmlns="http://www.w3.org/2000/svg" viewBox="0 0 24 24"><g><path d="m8.67,19.38c-2.38-.54-5.15-2.19-6.74-4.02l-.08-.1c-1.19-1.68-1.33-3.8-.35-5.27.82-1.22,2.25-1.74,3.84-1.38,1.23.28,2.12.8,2.49,1.02l.09.05-1.2,2.19-.15-.08c-.3-.18-.93-.54-1.79-.74-.86-.19-1.12.2-1.2.33-.33.5-.34,1.47.28,2.38,1.25,1.4,3.54,2.76,5.36,3.17l-.55,2.44Z" fill="#9a8bff"/><path d="m8.95,8.66h10.43c1.39,0,2.52,1.13,2.52,2.52v2.96c0,3.87-3.14,7.02-7.02,7.02h-1.43c-3.87,0-7.02-3.14-7.02-7.02v-2.96c0-1.39,1.13-2.52,2.52-2.52Z" fill="#ff8bf5"/><ellipse cx="14.17" cy="9.44" rx="6.9" ry="1.32" fill="#9a8bff"/></g><path d="m13.74,2.89c-1.34,2.02,1.44,2.02,0,4.03" fill="none" stroke="#ff8bf5" stroke-linecap="round" stroke-miterlimit="10" stroke-width="2"/></svg>