<?xml version="1.0" encoding="UTF-8"?><svg id="c" xmlns="http://www.w3.org/2000/svg" viewBox="0 0 24 24"><rect x="6.65" y="5.58" width="10.94" height="19.32" rx="5.47" ry="5.47" transform="translate(-3.12 27.36) rotate(-90)" fill="none" stroke="#6e85f8" stroke-miterlimit="10" stroke-width="3"/><path d="m13,6.84l1,2.02c.16.33.48.56.84.61l2.23.32c.92.13,1.28,1.26.62,1.91l-1.61,1.57c-.26.26-.38.63-.32.99l.38,2.22c.16.91-.8,1.61-1.62,1.18l-1.99-1.05c-.33-.17-.71-.17-1.04,0l-1.99,1.05c-.82.43-1.78-.27-1.62-1.18l.38-2.22c.06-.36-.06-.73-.32-.99l-1.61-1.57c-.66-.65-.3-1.77.62-1.91l2.23-.32c.36-.05.68-.28.84-.61l1-2.02c.41-.83,1.59-.83,2,0Z" fill="#ff8bf5"/><rect x="6.65" y="-.9" width="10.94" height="19.32" rx="5.47" ry="5.47" transform="translate(3.36 20.88) rotate(-90)" fill="none" stroke="#9a8bff" stroke-miterlimit="10" stroke-width="3"/></svg>