<?xml version="1.0" encoding="UTF-8"?><svg id="c" xmlns="http://www.w3.org/2000/svg" viewBox="0 0 24 24"><path d="m12.23,16.26c-.83,0-1.5-.67-1.5-1.5v-6.33c0-1.87-1.52-3.38-3.38-3.38s-3.38,1.52-3.38,3.38c0,.83-.67,1.5-1.5,1.5s-1.5-.67-1.5-1.5C.96,4.91,3.83,2.04,7.35,2.04s6.38,2.86,6.38,6.38v6.33c0,.83-.67,1.5-1.5,1.5Z" fill="#9a8bff"/><path d="m11.97,2.02c-.83,0-1.61.16-2.34.45,1.33.51,2.45,1.46,3.18,2.67,1.46.38,2.54,1.69,2.54,3.24l-.17,9.13c-.02.83.64,1.51,1.47,1.53,0,0,.02,0,.03,0,.81,0,1.48-.65,1.5-1.47l.17-9.16c0-3.52-2.86-6.38-6.38-6.38Z" fill="#ff8bf5"/><path d="m16.65,1.99c-.84,0-1.65.17-2.39.47,1.31.51,2.41,1.44,3.14,2.62,1.5.34,2.63,1.68,2.63,3.27l-.18,12.14c-.01.83.65,1.51,1.48,1.52h.02c.82,0,1.49-.66,1.5-1.48l.18-12.16c0-3.52-2.86-6.38-6.38-6.38Z" fill="#6e85f8"/></svg>