<?xml version="1.0" encoding="UTF-8"?><svg id="a" xmlns="http://www.w3.org/2000/svg" viewBox="0 0 24 24"><g><rect x="2.49" y="7.31" width="19.02" height="15.7" rx="1.75" ry="1.75" fill="#ff8bf5"/><rect x="1.97" y="6.84" width="20.06" height="5.71" rx=".51" ry=".51" fill="#9a8bff"/></g><g><path d="M11.89,4.57L5.16,.68c-.67-.39-1.52,.1-1.52,.88v7.78c0,.78,.84,1.26,1.52,.88l6.74-3.89c.67-.39,.67-1.36,0-1.75Z" fill="#1785ff"/><path d="M12.11,4.57L18.84,.68c.67-.39,1.52,.1,1.52,.88v7.78c0,.78-.84,1.26-1.52,.88l-6.74-3.89c-.67-.39-.67-1.36,0-1.75Z" fill="#1785ff"/><path d="M11.99,3.11c.21-.12,.94-.6,2-.84,2.44-.56,3.38,2.13,1.94,4.16-1.29,1.48-2.62,2.15-3.94,3.03-1.32-.87-2.65-1.55-3.94-3.03-1.44-2.03-.5-4.72,1.94-4.16,1.06,.24,1.78,.72,2,.84" fill="#6ee4f8"/></g></svg>