<?xml version="1.0" encoding="UTF-8"?><svg id="a" xmlns="http://www.w3.org/2000/svg" viewBox="0 0 24 24"><g><rect x="3.75" y="7.91" width="16.5" height="13.62" rx="1.75" ry="1.75" fill="#5c5fff"/><rect x="3.3" y="7.5" width="17.4" height="4.95" rx=".51" ry=".51" fill="#ba5fff"/></g><g><path d="M11.71,5.42L6.26,2.27c-.67-.39-1.52,.1-1.52,.88v6.28c0,.78,.84,1.26,1.52,.88l5.44-3.14c.67-.39,.67-1.36,0-1.75Z" fill="#5c5fff"/><path d="M12.29,5.42l5.44-3.14c.67-.39,1.52,.1,1.52,.88v6.28c0,.78-.84,1.26-1.52,.88l-5.44-3.14c-.67-.39-.67-1.36,0-1.75Z" fill="#5c5fff"/><path d="M11.99,4.27c.19-.1,.82-.52,1.73-.73,2.12-.48,2.93,1.85,1.68,3.61-1.12,1.28-2.27,1.87-3.42,2.63-1.14-.76-2.3-1.35-3.42-2.63-1.25-1.76-.43-4.1,1.68-3.61,.92,.21,1.55,.62,1.73,.73" fill="#5c98ff"/></g></svg>