<?xml version="1.0" encoding="UTF-8"?><svg id="a" xmlns="http://www.w3.org/2000/svg" viewBox="0 0 24 24"><path d="M16.57,18.02c-1.87-.82-4.08-2.31-6.19-4.31-2.34-2.21-4.07-4.57-4.92-6.52-.87,1.09-1.45,2.41-1.63,3.86,1.2,1.63,2.68,3.31,4.4,4.94,1.53,1.44,3.09,2.7,4.61,3.74,1.41-.23,2.69-.83,3.74-1.71Z" fill="none"/><path d="M17.87,10.13s-.03,.02-.04,.02c2.91,3.4,4.24,6.74,3.01,8.04-.35,.37-.86,.54-1.51,.54-2.13,0-5.66-1.9-8.95-5.01C6.1,9.67,3.83,5.1,5.32,3.53c.35-.37,.86-.54,1.51-.54,1.23,0,2.93,.65,4.77,1.78,.06-.03,.13-.05,.19-.07C8.5,2.35,5.38,.99,3.25,.99c-.9,0-1.62,.24-2.11,.75C-.94,3.95,2.23,10.33,8.22,16c4.61,4.35,9.54,7.02,12.53,7.02,.9,0,1.62-.24,2.11-.75,1.83-1.93-.38-7.08-4.99-12.13Zm4.26,11.45c-.28,.29-.74,.44-1.38,.44-2.34,0-6.91-2.09-11.84-6.75-2.82-2.66-5.07-5.55-6.36-8.14-1.09-2.19-1.35-3.99-.68-4.7,.28-.29,.74-.44,1.38-.44,.55,0,1.23,.12,2.01,.36-.29,.15-.51,.33-.66,.5-.73,.77-1.29,2.32,.19,5.3,1.01,2.03,2.75,4.27,4.9,6.3,3.4,3.21,7.18,5.29,9.64,5.29,1.18,0,1.86-.46,2.23-.85,.19-.21,.35-.43,.46-.68,.58,1.58,.63,2.82,.1,3.38Z" fill="#ff8bf5"/><g><path d="M10.91,18.31c-2.88-.29-5.18-2.53-5.59-5.38-.54-.63-1.04-1.26-1.5-1.88-.04,.32-.07,.65-.07,.99,0,4.31,3.49,7.8,7.8,7.8,.43,0,.86-.04,1.27-.11-.63-.43-1.28-.91-1.92-1.42Z" fill="#6e8bf8"/><path d="M11.56,4.24c-2.47,0-4.67,1.15-6.1,2.95,.21,.48,.47,.98,.78,1.49,1.12-1.77,3.08-2.94,5.32-2.94,3.47,0,6.3,2.83,6.3,6.3,0,2.17-1.1,4.09-2.78,5.22,.51,.29,1.01,.55,1.49,.75,1.71-1.43,2.79-3.58,2.79-5.98,0-4.31-3.49-7.8-7.8-7.8Z" fill="#6e8bf8"/></g></svg>