<?xml version="1.0" encoding="UTF-8"?><svg id="a" xmlns="http://www.w3.org/2000/svg" viewBox="0 0 24 24"><path d="M5.84,3.27c-.03,14.17,11.14,4.37,11.14,17.46" fill="none" stroke="#5c98ff" stroke-linecap="round" stroke-miterlimit="11.34" stroke-width="4"/><path d="M15.85,4.29c0-.49-.37-.88-.83-.88H7.15c-.47,0-.85,.4-.85,.9v.19c0,.5,.38,.9,.85,.9h7.87c.46,0,.83-.39,.83-.88v-.22Z" fill="#9a8bff"/><path d="M16.45,8.13c0-.49-.37-.88-.83-.88H7.75c-.47,0-.85,.4-.85,.9v.19c0,.5,.38,.9,.85,.9h7.87c.46,0,.83-.39,.83-.88v-.22Z" fill="#9a8bff"/><path d="M15.85,16.12c0-.49-.37-.88-.83-.88H7.15c-.47,0-.85,.4-.85,.9v.19c0,.5,.38,.9,.85,.9h7.87c.46,0,.83-.39,.83-.88v-.22Z" fill="#9a8bff"/><path d="M16.45,19.58c0-.49-.37-.88-.83-.88H7.75c-.47,0-.85,.4-.85,.9v.19c0,.5,.38,.9,.85,.9h7.87c.46,0,.83-.39,.83-.88v-.22Z" fill="#9a8bff"/><path d="M16.97,3.27c.03,14.17-11.14,4.37-11.14,17.46" fill="none" stroke="#ff8bf5" stroke-linecap="round" stroke-miterlimit="11.34" stroke-width="4"/></svg>