<?xml version="1.0" encoding="UTF-8"?><svg id="a" xmlns="http://www.w3.org/2000/svg" viewBox="0 0 24 24"><rect x="3.89" y="2.84" width="12.61" height="6.53" rx="1.46" ry="1.46" transform="translate(20.34 12.3) rotate(-179.55)" fill="#1785ff"/><path d="M17.37,7.41c-3.85,1.23-15.55-2.38-16.39,.64-3.38,12.27,4.43,15.13,10.4,14.87,8.4-.28,11.8-6.98,10.36-15.33,1.98-.61,3.65-6.49,.14-6.6-1.76-.11-2.53,1.79-2.43,3.28,.02-1.65-1.25-3.61-3.01-3.12-2.66,.71-2.09,5.69,.92,6.25Z" fill="#9a8bff"/><path d="M10.38,12.73c-3.07,1.88-8.65,1.34-10.17-.35-.59,8.62,5.99,10.76,11.18,10.54,1.52-.05,2.88-.32,4.07-.76-5.18-1.92-5.88-5.37-5.08-9.43Z" fill="#ff8bf5"/><g><path d="M16.49,7.96v-.37c-3.13,.41-9.04-.89-12.61-.77v1.04c-.01,.81,.64,1.47,1.44,1.47l9.69,.08c.81,0,1.47-.64,1.47-1.45Z" fill="#9a8bff"/><path d="M16.5,7.08l.02-2.72c0-.81-.64-1.47-1.45-1.47h-.2c-.38,1.46,.21,3.39,1.63,4.2Z" fill="#9a8bff"/></g><path d="M16.5,7.09l.02-2.73c0-.81-.64-1.47-1.45-1.47h-.21c-.9,1.49-.23,3.77,1.64,4.21Z" fill="#1785ff"/></svg>