<?xml version="1.0" encoding="UTF-8"?><svg id="a" xmlns="http://www.w3.org/2000/svg" viewBox="0 0 24 24"><circle cx="11.96" cy="12" r="10.59" fill="none" stroke="#6e85f8" stroke-miterlimit="10" stroke-width="2.5"/><path d="M15.53,6.27c-.56,0-1.13,.21-1.56,.64l-1.97,1.97-1.97-1.97c-.43-.43-.99-.64-1.56-.64s-1.13,.21-1.56,.64h0c-.86,.86-.86,2.25,0,3.11l1.97,1.97-1.97,1.97c-.86,.86-.86,2.25,0,3.11h0c.43,.43,.99,.65,1.56,.65s1.13-.21,1.56-.64l1.97-1.97,1.97,1.97c.43,.43,.99,.64,1.56,.64s1.13-.21,1.56-.64h0c.86-.86,.86-2.25,0-3.11l-1.97-1.97,1.97-1.97c.86-.86,.86-2.25,0-3.11h0c-.43-.43-.99-.65-1.56-.65h0Z" fill="#ff8bf5"/></svg>