<?xml version="1.0" encoding="UTF-8"?><svg id="a" xmlns="http://www.w3.org/2000/svg" viewBox="0 0 24 24"><circle cx="11.96" cy="12" r="8.78" fill="none" stroke="#6e85f8" stroke-miterlimit="10" stroke-width="2.5"/><path d="M14.92,7.25c-.47,0-.93,.18-1.29,.53l-1.63,1.63-1.63-1.63c-.36-.36-.82-.53-1.29-.53s-.93,.18-1.29,.53h0c-.71,.71-.71,1.87,0,2.58l1.63,1.63-1.63,1.63c-.71,.71-.71,1.87,0,2.58h0c.36,.36,.82,.54,1.29,.54s.93-.18,1.29-.53l1.63-1.63,1.63,1.63c.36,.36,.82,.53,1.29,.53s.93-.18,1.29-.53h0c.71-.71,.71-1.87,0-2.58l-1.63-1.63,1.63-1.63c.71-.71,.71-1.87,0-2.58h0c-.36-.36-.82-.54-1.29-.54h0Z" fill="#ff8bf5"/></svg>