<?xml version="1.0" encoding="UTF-8"?><svg id="c" xmlns="http://www.w3.org/2000/svg" viewBox="0 0 24 24"><path d="m5.1,10.93l.9,1.65c.06.11.15.2.26.26l1.65.9c.46.25.46.91,0,1.16l-1.65.9c-.11.06-.2.15-.26.26l-.9,1.65c-.25.46-.91.46-1.16,0l-.9-1.65c-.06-.11-.15-.2-.26-.26l-1.65-.9c-.46-.25-.46-.91,0-1.16l1.65-.9c.11-.06.2-.15.26-.26l.9-1.65c.25-.46.91-.46,1.16,0Z" fill="#ff8bf5"/><path d="m20.07,10.93l.9,1.65c.06.11.15.2.26.26l1.65.9c.46.25.46.91,0,1.16l-1.65.9c-.11.06-.2.15-.26.26l-.9,1.65c-.25.46-.91.46-1.16,0l-.9-1.65c-.06-.11-.15-.2-.26-.26l-1.65-.9c-.46-.25-.46-.91,0-1.16l1.65-.9c.11-.06.2-.15.26-.26l.9-1.65c.25-.46.91-.46,1.16,0Z" fill="#ff8bf5"/><rect x="9.15" y="17.18" width="5.7" height="3.11" rx=".67" ry=".67" fill="#9a8bff"/><path d="m12.58,3.45l.9,1.65c.06.11.15.2.26.26l1.65.9c.46.25.46.91,0,1.16l-1.65.9c-.11.06-.2.15-.26.26l-.9,1.65c-.25.46-.91.46-1.16,0l-.9-1.65c-.06-.11-.15-.2-.26-.26l-1.65-.9c-.46-.25-.46-.91,0-1.16l1.65-.9c.11-.06.2-.15.26-.26l.9-1.65c.25-.46.91-.46,1.16,0Z" fill="#ff8bf5"/></svg>