<?xml version="1.0" encoding="UTF-8"?><svg id="a" xmlns="http://www.w3.org/2000/svg" viewBox="0 0 24 24"><path d="M11.17,1.24l-2.92,5.06c-.37,.64,.09,1.43,.83,1.43h5.85c.74,0,1.2-.8,.83-1.43L12.83,1.24c-.37-.64-1.29-.64-1.66,0Z" fill="#b08bff"/><path d="M14.22,15.13l-2.01-.59c-.13-.04-.28-.04-.41,0l-2.01,.59c-.56,.16-1.08-.35-.91-.91l.59-2.01c.04-.13,.04-.28,0-.41l-.59-2.01c-.16-.56,.35-1.08,.91-.91l2.01,.59c.13,.04,.28,.04,.41,0l2.01-.59c.56-.16,1.08,.35,.91,.91l-.59,2.01c-.04,.13-.04,.28,0,.41l.59,2.01c.16,.56-.35,1.08-.91,.91Z" fill="#b08bff"/><path d="M11.17,22.76l-2.92-5.06c-.37-.64,.09-1.43,.83-1.43h5.85c.74,0,1.2,.8,.83,1.43l-2.92,5.06c-.37,.64-1.29,.64-1.66,0Z" fill="#b08bff"/></svg>