<?xml version="1.0" encoding="UTF-8"?><svg id="a" xmlns="http://www.w3.org/2000/svg" viewBox="0 0 24 24"><path d="M16.85,21.32l-3.12-2.09c-.36-.24-.85-.16-1.11,.18l-2.31,2.96c-.44,.56-1.33,.35-1.47-.35l-.73-3.68c-.08-.43-.48-.71-.91-.66l-3.73,.46c-.7,.09-1.18-.69-.79-1.28l2.09-3.12c.24-.36,.16-.85-.18-1.11l-2.96-2.31c-.56-.44-.35-1.33,.35-1.47l3.68-.73c.43-.08,.71-.48,.66-.91l-.46-3.73c-.09-.7,.69-1.18,1.28-.79l3.12,2.09c.36,.24,.85,.16,1.11-.18l2.31-2.96c.44-.56,1.33-.35,1.47,.35l.73,3.68c.08,.43,.48,.71,.91,.66l3.73-.46c.7-.09,1.18,.69,.79,1.28l-2.09,3.12c-.24,.36-.16,.85,.18,1.11l2.96,2.31c.56,.44,.35,1.33-.35,1.47l-3.68,.73c-.43,.08-.71,.48-.66,.91l.46,3.73c.09,.7-.69,1.18-1.28,.79Z" fill="#f98bff"/></svg>