<?xml version="1.0" encoding="UTF-8"?><svg id="a" xmlns="http://www.w3.org/2000/svg" viewBox="0 0 24 24"><path d="M20.52,7.71c.81,0,1.48,.66,1.48,1.48v8.74c0,.81-.66,1.48-1.48,1.48H3.48c-.81,0-1.48-.66-1.48-1.48V9.19c0-.81,.66-1.48,1.48-1.48H20.52m0-2H3.48C1.56,5.71,0,7.27,0,9.19v8.74C0,19.85,1.56,21.41,3.48,21.41H20.52c1.92,0,3.48-1.56,3.48-3.48V9.19c0-1.92-1.56-3.48-3.48-3.48h0Z" fill="#6ee4f8"/><path d="M1.71,6.42v-1.71c0-.23,.18-.41,.41-.41H12.06c.23,0,.41,.18,.41,.41v1h1.71v-1c0-1.17-.95-2.12-2.12-2.12H2.12C.95,2.59,0,3.54,0,4.71v4.76s0,.06,0,.09c.04-1.3,.7-2.44,1.7-3.14Z" fill="#1785ff"/></svg>