<?xml version="1.0" encoding="UTF-8"?><svg id="a" xmlns="http://www.w3.org/2000/svg" viewBox="0 0 24 24"><path d="M12,15.46c.22-.12,.97-.62,2.07-.87,2.53-.58,3.51,2.21,2.01,4.32-1.33,1.53-2.72,2.24-4.09,3.14-1.37-.91-2.75-1.61-4.09-3.14-1.49-2.11-.52-4.9,2.01-4.32,1.1,.25,1.85,.75,2.07,.87" fill="#5c98ff"/><line x1="12.06" y1="10.49" x2="12.01" y2="2.16" fill="none" stroke="#5c98ff" stroke-linecap="round" stroke-miterlimit="11.34" stroke-width="4"/><g><rect x="10.91" y="6.2" width="2.36" height="6.97" transform="translate(21.73 -2.44) rotate(89.81)" fill="#7944e0"/><g><rect x="9.44" y="9.25" width="9.46" height="3.35" rx="1.01" ry="1.01" transform="translate(-3.56 13.27) rotate(-45.19)" fill="#1785ff"/><rect x="5.12" y="9.27" width="9.46" height="3.35" rx="1.01" ry="1.01" transform="translate(9.12 25.64) rotate(-135.19)" fill="#6ee4f8"/></g></g></svg>