<?xml version="1.0" encoding="UTF-8"?><svg id="c" xmlns="http://www.w3.org/2000/svg" viewBox="0 0 24 24"><rect x="4.01" y=".58" width="15.98" height="22.84" rx="2.65" ry="2.65" fill="#6e85f8"/><rect x="6.6" y="2.03" width="10.81" height="10.43" rx="1.65" ry="1.65" fill="#ff8bf5"/><path d="m9.69,19.12h1.38c.6,0,1.09-.49,1.09-1.09h0c0-.6-.49-1.09-1.09-1.09h-1.38v-1.38c0-.6-.49-1.09-1.09-1.09h0c-.6,0-1.09.49-1.09,1.09v1.38h-1.38c-.6,0-1.09.49-1.09,1.09h0c0,.6.49,1.09,1.09,1.09h1.38s0,1.38,0,1.38c0,.6.49,1.09,1.09,1.09h0c.6,0,1.09-.49,1.09-1.09v-1.38Z" fill="#73ff9d"/><circle cx="15.94" cy="18.03" r="2.93" fill="#73ff9d"/></svg>