<?xml version="1.0" encoding="UTF-8"?><svg id="c" xmlns="http://www.w3.org/2000/svg" viewBox="0 0 24 24"><ellipse cx="5.41" cy="19.8" rx="4.25" ry="3.53" fill="#ff8bf5"/><ellipse cx="11.97" cy="19.8" rx="5.71" ry="3.53" fill="#ff8bf5"/><ellipse cx="18.45" cy="19.8" rx="4.34" ry="3.53" fill="#ff8bf5"/><path d="m12.03.68C6.05.68,1.21,5.05,1.21,10.44v9.36h21.63v-9.36C22.84,5.05,18,.68,12.03.68Zm-7.28,7.81c0-1.76,1.43-3.19,3.19-3.19s3.19,1.43,3.19,3.19-1.43,3.19-3.19,3.19-3.19-1.43-3.19-3.19Zm9.32,5.66c-.23.24-.54.35-.85.35s-.61-.12-.84-.35c-.13-.13-.38-.19-.63-.2-.22,0-.43.07-.53.18-.46.47-1.22.49-1.69.03-.48-.46-.49-1.22-.03-1.69.55-.57,1.36-.9,2.23-.91.9.02,1.76.32,2.35.9.47.47.47,1.22,0,1.69Zm1.66-2.47c-1.76,0-3.19-1.43-3.19-3.19s1.43-3.19,3.19-3.19,3.19,1.43,3.19,3.19-1.43,3.19-3.19,3.19Z" fill="#ff8bf5"/></svg>