<?xml version="1.0" encoding="UTF-8"?><svg id="a" xmlns="http://www.w3.org/2000/svg" viewBox="0 0 24 24"><rect x="7.03" y="8.63" width="9.94" height="6.74" rx="1.39" ry="1.39" fill="#9a8bff"/><path d="M1.02,6.07L5.1,2.43c.28-.25,.73-.1,.8,.26l1.11,5.35c.08,.37-.27,.68-.63,.56L1.2,6.9c-.36-.12-.45-.58-.17-.83Z" fill="#ff8bf5"/><path d="M23.12,6.02l-4.19-3.74c-.28-.25-.73-.1-.8,.26l-1.15,5.5c-.08,.37,.27,.68,.63,.56l5.34-1.76c.36-.12,.45-.58,.17-.83Z" fill="#ff8bf5"/><path d="M.88,17.98l4.19,3.74c.28,.25,.73,.1,.8-.26l1.15-5.5c.08-.37-.27-.68-.63-.56l-5.34,1.76c-.36,.12-.45,.58-.17,.83Z" fill="#ff8bf5"/><path d="M23.03,17.96l-4.19,3.74c-.28,.25-.73,.1-.8-.26l-1.15-5.5c-.08-.37,.27-.68,.63-.56l5.34,1.76c.36,.12,.45,.58,.17,.83Z" fill="#ff8bf5"/></svg>