<?xml version="1.0" encoding="UTF-8"?><svg id="a" xmlns="http://www.w3.org/2000/svg" viewBox="0 0 24 24"><path d="M10.61,15.68c-.02-.09-.03-.19-.03-.28v-.28c0-.73,.1-1.38,.29-1.95s.44-1.09,.73-1.55c.29-.47,.61-.91,.95-1.32,.35-.41,.66-.83,.95-1.25s.53-.87,.73-1.34c.2-.48,.29-1.01,.29-1.61,0-.86-.26-1.58-.78-2.16-.52-.58-1.3-.87-2.32-.87-.63,0-1.16,.05-1.58,.14-.42,.09-.77,.21-1.05,.35-.28,.14-.5,.3-.67,.49-.17,.19-.32,.37-.45,.56,.45,.02,.83,.19,1.13,.52,.31,.33,.46,.74,.46,1.25,0,.56-.16,1.05-.49,1.46s-.86,.62-1.61,.62c-.6,0-1.08-.21-1.44-.63-.36-.42-.55-.95-.55-1.58,0-.52,.11-1.07,.32-1.65s.59-1.12,1.12-1.61c.53-.49,1.23-.91,2.11-1.23,.88-.33,1.98-.49,3.33-.49,.93,0,1.81,.07,2.63,.21s1.54,.39,2.15,.76c.61,.36,1.1,.85,1.45,1.46,.35,.61,.53,1.37,.53,2.28,0,.84-.15,1.55-.45,2.14-.3,.59-.67,1.11-1.13,1.57s-.95,.88-1.47,1.26c-.53,.38-1.04,.79-1.52,1.23-.48,.44-.9,.94-1.24,1.5-.35,.56-.56,1.23-.63,2.02,.03,.76-1.86,.63-1.76,0Zm3.22,4.84c0,.62-.21,1.14-.64,1.57-.43,.43-.95,.64-1.57,.64s-1.12-.21-1.55-.64c-.44-.43-.66-.95-.66-1.57s.22-1.12,.66-1.55,.96-.66,1.55-.66,1.14,.22,1.57,.66c.43,.44,.64,.96,.64,1.55Z" fill="#9a8bff"/></svg>