<?xml version="1.0" encoding="UTF-8"?><svg id="a" xmlns="http://www.w3.org/2000/svg" viewBox="0 0 24 24"><circle cx="12.35" cy="20.9" r="3.01" fill="#9a8bff"/><path d="M12.36,17.45c-1.26,0-2.34-.95-2.48-2.23-.36-3.3,1.96-5.39,3.83-7.07,.35-.32,.71-.64,1.05-.97,.18-.24,.54-.77,.38-.97-.67-.9-3.35-1.47-4.97-.83-.73,.29-.7,.58-.65,.94,.17,1.37-.81,2.62-2.18,2.79-1.38,.17-2.62-.81-2.79-2.18-.34-2.8,1.06-5.12,3.76-6.19,3.28-1.31,8.53-.61,10.84,2.49,1.56,2.1,1.34,4.78-.57,7.18l-.19,.22c-.43,.43-.89,.84-1.34,1.24-1.38,1.24-2.28,2.11-2.2,2.8,.15,1.37-.84,2.61-2.21,2.76-.09,.01-.19,.02-.28,.02Z" fill="#9a8bff"/></svg>