<?xml version="1.0" encoding="UTF-8"?><svg id="a" xmlns="http://www.w3.org/2000/svg" viewBox="0 0 24 24"><path d="M16.09,23.47h-1.02c-1.23,0-2.22-.99-2.22-2.22s.99-2.22,2.22-2.22h.98l2.78-4.79c.61-1.06,1.97-1.43,3.03-.81,1.06,.61,1.42,1.97,.81,3.03l-2.76,4.78c-.77,1.34-2.21,2.19-3.76,2.23-.02,0-.03,0-.06,0ZM3.26,10.85c-.38,0-.76-.1-1.11-.3-1.06-.61-1.42-1.97-.81-3.03L4.09,2.76c.78-1.36,2.25-2.21,3.82-2.23h0s.02,0,.03,0h.97c1.23,0,2.22,.99,2.22,2.22s-.99,2.22-2.22,2.22h-.96l-2.77,4.77c-.41,.71-1.16,1.11-1.92,1.11Z" fill="#9a8bff"/><path d="M8.22,23.47h-.27c-1.59,0-3.07-.85-3.86-2.23l-2.6-4.51s0,0,0,0l-.49-.84c-.61-1.06-.25-2.42,.81-3.03,1.06-.61,2.42-.25,3.03,.81l.49,.85s0,0,0,0l2.6,4.51h.29c1.23,.01,2.22,1,2.22,2.23s-.99,2.22-2.22,2.22Zm12.85-12.04c-.77,0-1.51-.4-1.92-1.11l-.49-.85s0,0,0,0l-2.59-4.49h-.31c-1.23-.01-2.22-1-2.22-2.23s.99-2.22,2.22-2.22h.29c1.59,0,3.07,.85,3.86,2.23l2.59,4.49s0,0,0,0l.49,.84c.61,1.06,.25,2.42-.81,3.03-.35,.2-.73,.3-1.11,.3Z" fill="#6e85f8"/></svg>