<?xml version="1.0" encoding="UTF-8"?><svg id="a" xmlns="http://www.w3.org/2000/svg" viewBox="0 0 24 24"><path d="M12.58,10.3l-1.41-2.57c-.31-.57-.3-1.25,.04-1.81l1.52-2.5c.33-.55,.94-.88,1.58-.87l2.93,.06c.65,.01,1.23,.37,1.54,.94l1.41,2.57c.31,.57,.3,1.25-.04,1.81l-1.52,2.5c-.33,.55-.94,.88-1.58,.87l-2.93-.06c-.65-.01-1.23-.37-1.54-.94Z" fill="#ff8bf5"/><path d="M12.36,20.31l-1.41-2.57c-.31-.57-.3-1.25,.04-1.81l1.52-2.5c.33-.55,.94-.88,1.58-.87l2.93,.06c.65,.01,1.23,.37,1.54,.94l1.41,2.57c.31,.57,.3,1.25-.04,1.81l-1.52,2.5c-.33,.55-.94,.88-1.58,.87l-2.93-.06c-.65-.01-1.23-.37-1.54-.94Z" fill="#ff8bf5"/><path d="M3.77,15.11l-1.41-2.57c-.31-.57-.3-1.25,.04-1.81l1.52-2.5c.33-.55,.94-.88,1.58-.87l2.93,.06c.65,.01,1.23,.37,1.54,.94l1.41,2.57c.31,.57,.3,1.25-.04,1.81l-1.52,2.5c-.33,.55-.94,.88-1.58,.87l-2.93-.06c-.65-.01-1.23-.37-1.54-.94Z" fill="#ff8bf5"/></svg>