<?xml version="1.0" encoding="UTF-8"?><svg id="c" xmlns="http://www.w3.org/2000/svg" viewBox="0 0 24 24"><path d="m15.79,22.62h-.94c-1.14,0-2.06-.92-2.06-2.06s.92-2.06,2.06-2.06h.91l2.57-4.44c.57-.98,1.82-1.32,2.81-.75.98.57,1.32,1.82.75,2.81l-2.56,4.43c-.72,1.24-2.05,2.03-3.49,2.06-.02,0-.03,0-.05,0ZM3.91,10.94c-.35,0-.7-.09-1.03-.28-.98-.57-1.32-1.82-.75-2.81l2.55-4.41c.73-1.26,2.08-2.05,3.54-2.07h0s.02,0,.02,0h.9c1.14,0,2.06.92,2.06,2.06s-.92,2.06-2.06,2.06h-.89l-2.56,4.42c-.38.66-1.07,1.03-1.78,1.03Z" fill="#9a8bff"/><path d="m8.5,22.62h-.25c-1.47,0-2.84-.79-3.58-2.07l-2.41-4.18s0,0,0,0l-.45-.78c-.57-.98-.23-2.24.75-2.81.98-.57,2.24-.23,2.81.75l.45.78s0,0,0,0l2.41,4.17h.27c1.14.01,2.06.93,2.06,2.07s-.92,2.06-2.06,2.06Zm11.9-11.15c-.71,0-1.4-.37-1.78-1.03l-.45-.78s0,0,0,0l-2.4-4.16h-.29c-1.14,0-2.06-.93-2.06-2.07s.92-2.06,2.06-2.06h.27c1.47,0,2.84.79,3.58,2.07l2.4,4.16s0,0,0,0l.45.78c.57.98.23,2.24-.75,2.81-.32.19-.68.28-1.02.28Z" fill="#6e85f8"/></svg>