<?xml version="1.0" encoding="UTF-8"?><svg id="a" xmlns="http://www.w3.org/2000/svg" viewBox="0 0 24 24"><path d="M13.72,10.16l-1.95-3.55c-.31-.57-.3-1.25,.04-1.81l2.1-3.46c.33-.55,.94-.88,1.58-.87l4.05,.09c.65,.01,1.23,.37,1.54,.94l1.95,3.55c.31,.57,.3,1.25-.04,1.81l-2.1,3.46c-.33,.55-.94,.88-1.58,.87l-4.05-.09c-.65-.01-1.23-.37-1.54-.94Z" fill="#ff8bf5"/><path d="M13.46,22.42l-1.95-3.55c-.31-.57-.3-1.25,.04-1.81l2.1-3.46c.33-.55,.94-.88,1.58-.87l4.05,.09c.65,.01,1.23,.37,1.54,.94l1.95,3.55c.31,.57,.3,1.25-.04,1.81l-2.1,3.46c-.33,.55-.94,.88-1.58,.87l-4.05-.09c-.65-.01-1.23-.37-1.54-.94Z" fill="#ff8bf5"/><path d="M2.93,16.05l-1.95-3.55c-.31-.57-.3-1.25,.04-1.81l2.1-3.46c.33-.55,.94-.88,1.58-.87l4.05,.09c.65,.01,1.23,.37,1.54,.94l1.95,3.55c.31,.57,.3,1.25-.04,1.81l-2.1,3.46c-.33,.55-.94,.88-1.58,.87l-4.05-.09c-.65-.01-1.23-.37-1.54-.94Z" fill="#ff8bf5"/></svg>