<?xml version="1.0" encoding="UTF-8"?><svg id="a" xmlns="http://www.w3.org/2000/svg" viewBox="0 0 24 24"><path d="M16.59,21.71l-3.87-2.03c-.46-.24-1.01-.24-1.46,0l-3.87,2.03c-1.15,.61-2.5-.37-2.28-1.66l.74-4.31c.09-.51-.08-1.03-.45-1.39l-3.13-3.05c-.93-.91-.42-2.5,.87-2.68l4.32-.63c.51-.07,.96-.4,1.18-.86l1.93-3.92c.58-1.17,2.24-1.17,2.82,0l1.93,3.92c.23,.46,.67,.79,1.18,.86l4.32,.63c1.29,.19,1.81,1.77,.87,2.68l-3.13,3.05c-.37,.36-.54,.88-.45,1.39l.74,4.31c.22,1.28-1.13,2.26-2.28,1.66Z" fill="none" stroke="#ff8bf5" stroke-dasharray="0 0 0 0 0 1 5 0 0 1" stroke-linecap="round" stroke-miterlimit="11.34" stroke-width="3"/></svg>