<?xml version="1.0" encoding="UTF-8"?><svg id="c" xmlns="http://www.w3.org/2000/svg" viewBox="0 0 24 24"><path d="m14.22,23.19h-.01c-1.7.88-3.75.79-5.36-.22l-.24-.16s-.06-.03-.08-.04c-.83-.6-1.06-1.75-.51-2.62.56-.87,1.8-1.15,2.67-.59l.24.15c.45.29,1.02.32,1.51.06l1.12-.59c.95-.49,2.12-.12,2.61.82.24.46.29.98.14,1.48-.17.49-.5.89-.96,1.13l-1.13.6Zm7.74-10.86c-.3.15-.63.22-.97.21-.68-.03-1.31-.43-1.64-1.04-.15-.3-.23-.64-.21-.97l.06-1.44c0-.27-.05-.52-.17-.75s-.3-.44-.54-.59l-.09-.06c-.29-.19-.51-.43-.68-.74-.31-.61-.29-1.35.09-1.93.02-.04.04-.08.07-.11.58-.79,1.77-1.01,2.59-.49.02,0,.02.02.04.02l.05.05c.81.5,1.46,1.22,1.9,2.08s.64,1.75.6,2.68l-.06,1.44c-.03.7-.43,1.33-1.05,1.65Zm-17.96-1.49c-.3.15-.63.22-.97.21-.7-.03-1.32-.42-1.64-1.04-.15-.3-.23-.64-.21-.98l.03-.68c.09-1.92,1.18-3.65,2.88-4.55l.77-.4c.14-.07.27-.12.41-.16.88-.24,1.77.17,2.2.97.47.92.15,2.04-.72,2.56l-.09.05-.77.4c-.48.25-.79.74-.81,1.27l-.03.7c-.02.69-.42,1.32-1.04,1.64Z" fill="#6e85f8"/><path d="m12,9.65c.22-.12.97-.62,2.07-.87,2.53-.58,3.51,2.21,2.01,4.32-1.33,1.53-2.72,2.24-4.09,3.14-1.37-.91-2.75-1.61-4.09-3.14-1.49-2.11-.52-4.9,2.01-4.32,1.1.25,1.85.75,2.07.87" fill="#ff8bf5"/><path d="m19.93,20.2h-.01c-.94.49-2.12.12-2.6-.82-.24-.47-.29-.98-.14-1.48.16-.49.5-.89.96-1.13.45-.25.75-.68.8-1.18t0-.03c.1-1.02,1.07-1.83,2.11-1.74.65.05,1.23.45,1.54,1.04.17.33.25.7.22,1.07-.18,1.82-1.25,3.41-2.86,4.27Zm-13.75-.08c-.61.31-1.33.28-1.92-.09l-.83-.52c-.8-.51-1.46-1.23-1.9-2.08s-.63-1.75-.59-2.69l.02-.58c.04-1.02.98-1.9,2.01-1.85.69.02,1.32.42,1.64,1.04.17.29.24.63.22.96l-.02.58c0,.27.04.53.16.76s.32.45.53.58l.84.53c.28.18.51.43.67.73.33.61.29,1.36-.07,1.94-.19.29-.44.52-.75.68ZM15.97,5.01c-.61.31-1.34.28-1.92-.09l-.97-.62c-.46-.28-1.03-.31-1.51-.06l-.36.18c-.95.49-2.13.12-2.61-.82-.5-.93-.15-2.07.77-2.59l.41-.21c1.71-.88,3.76-.79,5.37.22l.97.62c.29.19.51.43.67.74.32.6.29,1.35-.08,1.93-.18.3-.44.53-.75.69Z" fill="#9a8bff"/></svg>