<?xml version="1.0" encoding="UTF-8"?><svg id="a" xmlns="http://www.w3.org/2000/svg" viewBox="0 0 24 24"><rect x="2.6" y="3.98" width="6.44" height="4.54" rx=".81" ry=".81" fill="#1785ff"/><rect x="1.53" y="5.36" width="20.95" height="14.67" rx="2.65" ry="2.65" fill="#6ee4f8"/><circle cx="15.2" cy="12.7" r="4.48" fill="#8bff95"/><rect x="10.64" y="9.68" width="9.25" height="6.03" fill="#b08bff"/><path d="M15.2,6.71c-3.3,0-5.98,2.68-5.98,5.98s2.68,5.98,5.98,5.98,5.98-2.68,5.98-5.98-2.68-5.98-5.98-5.98Zm0,10.46c-2.47,0-4.48-2-4.48-4.48s2-4.48,4.48-4.48,4.48,2,4.48,4.48-2,4.48-4.48,4.48Z" fill="#1785ff"/><circle cx="15.2" cy="12.7" r="3.02" fill="#1785ff"/></svg>