<?xml version="1.0" encoding="UTF-8"?><svg id="c" xmlns="http://www.w3.org/2000/svg" viewBox="0 0 24 24"><line x1="12" y1="11.63" x2="12" y2="21.45" fill="none" stroke="#9a8bff" stroke-linecap="round" stroke-miterlimit="10" stroke-width="5"/><g><circle cx="12.04" cy="11.73" r="6.39" fill="#6e85f8"/><circle cx="12.04" cy="11.73" r="6.39" fill="#6e85f8"/></g><path d="m14.56,10.36C15.31,1.36-.21-.02,1.11,13.94c.32,4.16,3.47,5.45,3.93,0,.37-4.88,9.08,2.03,9.52-3.58Z" fill="#9a8bff"/><path d="m9.44,10.36C8.69,1.36,24.21-.02,22.89,13.94c-.32,4.16-3.47,5.45-3.93,0-.37-4.88-9.08,2.03-9.52-3.58Z" fill="#9a8bff"/><path d="m8.72,11.03C6.63.7,21.57-5.99,22.19,7.78c-.15,8.46-5.71-4.89-7.12,2.67-1.1,4.12-5.78,2.66-6.35.58Z" fill="#ff8bf5"/><circle cx="3.13" cy="17.56" r="1.99" fill="#ff8bf5"/><circle cx="20.98" cy="11.08" r="1.99" fill="#6ee4f8"/><circle cx="20.78" cy="18.11" r="1.99" fill="#ff8bf5"/></svg>