<?xml version="1.0" encoding="UTF-8"?><svg id="a" xmlns="http://www.w3.org/2000/svg" viewBox="0 0 24 24"><rect x="15.21" y="2.64" width="6.38" height="11.53" rx="1.5" ry="1.5" fill="#6e85f8"/><rect x="15.12" y="2.64" width="6.41" height="11.58" rx="1.5" ry="1.5" fill="#6f85f8"/><rect x="15.03" y="2.64" width="6.43" height="11.63" rx="1.5" ry="1.5" fill="#7085f8"/><rect x="14.94" y="2.64" width="6.46" height="11.68" rx="1.5" ry="1.5" fill="#7185f8"/><rect x="14.85" y="2.64" width="6.49" height="11.73" rx="1.5" ry="1.5" fill="#7285f8"/><rect x="14.76" y="2.64" width="6.51" height="11.79" rx="1.5" ry="1.5" fill="#7385f8"/><rect x="14.68" y="2.64" width="6.54" height="11.84" rx="1.5" ry="1.5" fill="#7485f8"/><rect x="14.59" y="2.64" width="6.56" height="11.89" rx="1.5" ry="1.5" fill="#7585f8"/><rect x="14.5" y="2.63" width="6.59" height="11.94" rx="1.5" ry="1.5" fill="#7685f8"/><rect x="14.41" y="2.63" width="6.61" height="11.99" rx="1.5" ry="1.5" fill="#7785f8"/><rect x="14.32" y="2.63" width="6.64" height="12.04" rx="1.5" ry="1.5" fill="#7885f8"/><rect x="14.23" y="2.63" width="6.66" height="12.1" rx="1.5" ry="1.5" fill="#7985f8"/><rect x="14.15" y="2.63" width="6.69" height="12.15" rx="1.5" ry="1.5" fill="#7a85f8"/><rect x="14.06" y="2.63" width="6.72" height="12.2" rx="1.5" ry="1.5" fill="#7b86f8"/><rect x="13.97" y="2.63" width="6.74" height="12.25" rx="1.5" ry="1.5" fill="#7c86f8"/><rect x="13.88" y="2.63" width="6.77" height="12.3" rx="1.5" ry="1.5" fill="#7d86f8"/><rect x="13.79" y="2.62" width="6.79" height="12.36" rx="1.5" ry="1.5" fill="#7e86f8"/><rect x="13.71" y="2.62" width="6.82" height="12.41" rx="1.5" ry="1.5" fill="#7f86f8"/><rect x="13.62" y="2.62" width="6.84" height="12.46" rx="1.5" ry="1.5" fill="#8086f8"/><rect x="13.53" y="2.62" width="6.87" height="12.51" rx="1.5" ry="1.5" fill="#8186f8"/><rect x="13.44" y="2.62" width="6.9" height="12.56" rx="1.5" ry="1.5" fill="#8286f8"/><rect x="13.35" y="2.62" width="6.92" height="12.62" rx="1.5" ry="1.5" fill="#8386f8"/><rect x="13.26" y="2.62" width="6.95" height="12.67" rx="1.5" ry="1.5" fill="#8486f8"/><rect x="13.18" y="2.62" width="6.97" height="12.72" rx="1.5" ry="1.5" fill="#8586f8"/><rect x="13.09" y="2.62" width="7" height="12.77" rx="1.5" ry="1.5" fill="#8686f8"/><rect x="13" y="2.61" width="7.02" height="12.82" rx="1.5" ry="1.5" fill="#8786f7"/><rect x="12.91" y="2.61" width="7.05" height="12.88" rx="1.5" ry="1.5" fill="#8886f7"/><rect x="12.82" y="2.61" width="7.08" height="12.93" rx="1.5" ry="1.5" fill="#8986f7"/><rect x="12.73" y="2.61" width="7.1" height="12.98" rx="1.5" ry="1.5" fill="#8a86f7"/><rect x="12.65" y="2.61" width="7.13" height="13.03" rx="1.5" ry="1.5" fill="#8b86f7"/><rect x="12.56" y="2.61" width="7.15" height="13.08" rx="1.5" ry="1.5" fill="#8c86f7"/><rect x="12.47" y="2.61" width="7.18" height="13.13" rx="1.5" ry="1.5" fill="#8d86f7"/><rect x="12.38" y="2.61" width="7.2" height="13.19" rx="1.5" ry="1.5" fill="#8e86f7"/><rect x="12.29" y="2.61" width="7.23" height="13.24" rx="1.5" ry="1.5" fill="#8f86f7"/><rect x="12.21" y="2.6" width="7.25" height="13.29" rx="1.5" ry="1.5" fill="#9086f7"/><rect x="12.12" y="2.6" width="7.28" height="13.34" rx="1.5" ry="1.5" fill="#9186f7"/><rect x="12.03" y="2.6" width="7.31" height="13.39" rx="1.5" ry="1.5" fill="#9286f7"/><rect x="11.94" y="2.6" width="7.33" height="13.45" rx="1.5" ry="1.5" fill="#9387f7"/><rect x="11.85" y="2.6" width="7.36" height="13.5" rx="1.5" ry="1.5" fill="#9487f7"/><rect x="11.76" y="2.6" width="7.38" height="13.55" rx="1.5" ry="1.5" fill="#9587f7"/><rect x="11.68" y="2.6" width="7.41" height="13.6" rx="1.5" ry="1.5" fill="#9687f7"/><rect x="11.59" y="2.6" width="7.43" height="13.65" rx="1.5" ry="1.5" fill="#9787f7"/><rect x="11.5" y="2.59" width="7.46" height="13.71" rx="1.5" ry="1.5" fill="#9887f7"/><rect x="11.41" y="2.59" width="7.49" height="13.76" rx="1.5" ry="1.5" fill="#9987f7"/><rect x="11.32" y="2.59" width="7.51" height="13.81" rx="1.5" ry="1.5" fill="#9a87f7"/><rect x="11.23" y="2.59" width="7.54" height="13.86" rx="1.5" ry="1.5" fill="#9b87f7"/><rect x="11.15" y="2.59" width="7.56" height="13.91" rx="1.5" ry="1.5" fill="#9c87f7"/><rect x="11.06" y="2.59" width="7.59" height="13.97" rx="1.5" ry="1.5" fill="#9d87f7"/><rect x="10.97" y="2.59" width="7.61" height="14.02" rx="1.5" ry="1.5" fill="#9e87f7"/><rect x="10.88" y="2.59" width="7.64" height="14.07" rx="1.5" ry="1.5" fill="#9f87f7"/><rect x="10.79" y="2.59" width="7.67" height="14.12" rx="1.5" ry="1.5" fill="#a087f7"/><rect x="10.71" y="2.58" width="7.69" height="14.17" rx="1.5" ry="1.5" fill="#a187f7"/><rect x="10.62" y="2.58" width="7.72" height="14.22" rx="1.5" ry="1.5" fill="#a287f7"/><rect x="10.53" y="2.58" width="7.74" height="14.28" rx="1.5" ry="1.5" fill="#a387f7"/><rect x="10.44" y="2.58" width="7.77" height="14.33" rx="1.5" ry="1.5" fill="#a487f7"/><rect x="10.35" y="2.58" width="7.79" height="14.38" rx="1.5" ry="1.5" fill="#a587f7"/><rect x="10.26" y="2.58" width="7.82" height="14.43" rx="1.5" ry="1.5" fill="#a687f7"/><rect x="10.18" y="2.58" width="7.84" height="14.48" rx="1.5" ry="1.5" fill="#a787f7"/><rect x="10.09" y="2.58" width="7.87" height="14.54" rx="1.5" ry="1.5" fill="#a887f7"/><rect x="10" y="2.57" width="7.9" height="14.59" rx="1.5" ry="1.5" fill="#a987f7"/><rect x="9.91" y="2.57" width="7.92" height="14.64" rx="1.5" ry="1.5" fill="#aa87f7"/><rect x="9.82" y="2.57" width="7.95" height="14.69" rx="1.5" ry="1.5" fill="#ab88f7"/><rect x="9.74" y="2.57" width="7.97" height="14.74" rx="1.5" ry="1.5" fill="#ac88f7"/><rect x="9.65" y="2.57" width="8" height="14.8" rx="1.5" ry="1.5" fill="#ad88f7"/><rect x="9.56" y="2.57" width="8.02" height="14.85" rx="1.5" ry="1.5" fill="#ae88f7"/><rect x="9.47" y="2.57" width="8.05" height="14.9" rx="1.5" ry="1.5" fill="#af88f7"/><rect x="9.38" y="2.57" width="8.08" height="14.95" rx="1.5" ry="1.5" fill="#b088f7"/><rect x="9.29" y="2.57" width="8.1" height="15" rx="1.5" ry="1.5" fill="#b188f7"/><rect x="9.21" y="2.56" width="8.13" height="15.05" rx="1.5" ry="1.5" fill="#b288f7"/><rect x="9.12" y="2.56" width="8.15" height="15.11" rx="1.5" ry="1.5" fill="#b388f7"/><rect x="9.03" y="2.56" width="8.18" height="15.16" rx="1.5" ry="1.5" fill="#b488f7"/><rect x="8.94" y="2.56" width="8.2" height="15.21" rx="1.5" ry="1.5" fill="#b588f7"/><rect x="8.85" y="2.56" width="8.23" height="15.26" rx="1.5" ry="1.5" fill="#b688f7"/><rect x="8.76" y="2.56" width="8.26" height="15.31" rx="1.5" ry="1.5" fill="#b788f6"/><rect x="8.68" y="2.56" width="8.28" height="15.37" rx="1.5" ry="1.5" fill="#b888f6"/><rect x="8.59" y="2.56" width="8.31" height="15.42" rx="1.5" ry="1.5" fill="#b988f6"/><rect x="8.5" y="2.56" width="8.33" height="15.47" rx="1.5" ry="1.5" fill="#ba88f6"/><rect x="8.41" y="2.55" width="8.36" height="15.52" rx="1.5" ry="1.5" fill="#bb88f6"/><rect x="8.32" y="2.55" width="8.38" height="15.57" rx="1.5" ry="1.5" fill="#bc88f6"/><rect x="8.24" y="2.55" width="8.41" height="15.63" rx="1.5" ry="1.5" fill="#bd88f6"/><rect x="8.15" y="2.55" width="8.43" height="15.68" rx="1.5" ry="1.5" fill="#be88f6"/><rect x="8.06" y="2.55" width="8.46" height="15.73" rx="1.5" ry="1.5" fill="#bf88f6"/><rect x="7.97" y="2.55" width="8.49" height="15.78" rx="1.5" ry="1.5" fill="#c088f6"/><rect x="7.88" y="2.55" width="8.51" height="15.83" rx="1.5" ry="1.5" fill="#c188f6"/><rect x="7.79" y="2.55" width="8.54" height="15.89" rx="1.5" ry="1.5" fill="#c288f6"/><rect x="7.71" y="2.54" width="8.56" height="15.94" rx="1.5" ry="1.5" fill="#c389f6"/><rect x="7.62" y="2.54" width="8.59" height="15.99" rx="1.5" ry="1.5" fill="#c489f6"/><rect x="7.53" y="2.54" width="8.61" height="16.04" rx="1.5" ry="1.5" fill="#c589f6"/><rect x="7.44" y="2.54" width="8.64" height="16.09" rx="1.5" ry="1.5" fill="#c689f6"/><rect x="7.35" y="2.54" width="8.67" height="16.14" rx="1.5" ry="1.5" fill="#c789f6"/><rect x="7.26" y="2.54" width="8.69" height="16.2" rx="1.5" ry="1.5" fill="#c889f6"/><rect x="7.18" y="2.54" width="8.72" height="16.25" rx="1.5" ry="1.5" fill="#c989f6"/><rect x="7.09" y="2.54" width="8.74" height="16.3" rx="1.5" ry="1.5" fill="#ca89f6"/><rect x="7" y="2.54" width="8.77" height="16.35" rx="1.5" ry="1.5" fill="#cb89f6"/><rect x="6.91" y="2.53" width="8.79" height="16.4" rx="1.5" ry="1.5" fill="#cc89f6"/><rect x="6.82" y="2.53" width="8.82" height="16.46" rx="1.5" ry="1.5" fill="#cd89f6"/><rect x="6.74" y="2.53" width="8.85" height="16.51" rx="1.5" ry="1.5" fill="#ce89f6"/><rect x="6.65" y="2.53" width="8.87" height="16.56" rx="1.5" ry="1.5" fill="#cf89f6"/><rect x="6.56" y="2.53" width="8.9" height="16.61" rx="1.5" ry="1.5" fill="#d089f6"/><rect x="6.47" y="2.53" width="8.92" height="16.66" rx="1.5" ry="1.5" fill="#d189f6"/><rect x="6.38" y="2.53" width="8.95" height="16.72" rx="1.5" ry="1.5" fill="#d289f6"/><rect x="6.29" y="2.53" width="8.97" height="16.77" rx="1.5" ry="1.5" fill="#d389f6"/><rect x="6.21" y="2.52" width="9" height="16.82" rx="1.5" ry="1.5" fill="#d489f6"/><rect x="6.12" y="2.52" width="9.02" height="16.87" rx="1.5" ry="1.5" fill="#d589f6"/><rect x="6.03" y="2.52" width="9.05" height="16.92" rx="1.5" ry="1.5" fill="#d689f6"/><rect x="5.94" y="2.52" width="9.08" height="16.97" rx="1.5" ry="1.5" fill="#d789f6"/><rect x="5.85" y="2.52" width="9.1" height="17.03" rx="1.5" ry="1.5" fill="#d889f6"/><rect x="5.76" y="2.52" width="9.13" height="17.08" rx="1.5" ry="1.5" fill="#d989f6"/><rect x="5.68" y="2.52" width="9.15" height="17.13" rx="1.5" ry="1.5" fill="#da89f6"/><rect x="5.59" y="2.52" width="9.18" height="17.18" rx="1.5" ry="1.5" fill="#db8af6"/><rect x="5.5" y="2.52" width="9.2" height="17.23" rx="1.5" ry="1.5" fill="#dc8af6"/><rect x="5.41" y="2.51" width="9.23" height="17.29" rx="1.5" ry="1.5" fill="#dd8af6"/><rect x="5.32" y="2.51" width="9.26" height="17.34" rx="1.5" ry="1.5" fill="#de8af6"/><rect x="5.24" y="2.51" width="9.28" height="17.39" rx="1.5" ry="1.5" fill="#df8af6"/><rect x="5.15" y="2.51" width="9.31" height="17.44" rx="1.5" ry="1.5" fill="#e08af6"/><rect x="5.06" y="2.51" width="9.33" height="17.49" rx="1.5" ry="1.5" fill="#e18af6"/><rect x="4.97" y="2.51" width="9.36" height="17.55" rx="1.5" ry="1.5" fill="#e28af6"/><rect x="4.88" y="2.51" width="9.38" height="17.6" rx="1.5" ry="1.5" fill="#e38af6"/><rect x="4.79" y="2.51" width="9.41" height="17.65" rx="1.5" ry="1.5" fill="#e48af6"/><rect x="4.71" y="2.5" width="9.44" height="17.7" rx="1.5" ry="1.5" fill="#e58af6"/><rect x="4.62" y="2.5" width="9.46" height="17.75" rx="1.5" ry="1.5" fill="#e68af6"/><rect x="4.53" y="2.5" width="9.49" height="17.81" rx="1.5" ry="1.5" fill="#e78af5"/><rect x="4.44" y="2.5" width="9.51" height="17.86" rx="1.5" ry="1.5" fill="#e88af5"/><rect x="4.35" y="2.5" width="9.54" height="17.91" rx="1.5" ry="1.5" fill="#e98af5"/><rect x="4.26" y="2.5" width="9.56" height="17.96" rx="1.5" ry="1.5" fill="#ea8af5"/><rect x="4.18" y="2.5" width="9.59" height="18.01" rx="1.5" ry="1.5" fill="#eb8af5"/><rect x="4.09" y="2.5" width="9.61" height="18.06" rx="1.5" ry="1.5" fill="#ec8af5"/><rect x="4" y="2.5" width="9.64" height="18.12" rx="1.5" ry="1.5" fill="#ed8af5"/><rect x="3.91" y="2.49" width="9.67" height="18.17" rx="1.5" ry="1.5" fill="#ee8af5"/><rect x="3.82" y="2.49" width="9.69" height="18.22" rx="1.5" ry="1.5" fill="#ef8af5"/><rect x="3.74" y="2.49" width="9.72" height="18.27" rx="1.5" ry="1.5" fill="#f08af5"/><rect x="3.65" y="2.49" width="9.74" height="18.32" rx="1.5" ry="1.5" fill="#f18af5"/><rect x="3.56" y="2.49" width="9.77" height="18.38" rx="1.5" ry="1.5" fill="#f28af5"/><rect x="3.47" y="2.49" width="9.79" height="18.43" rx="1.5" ry="1.5" fill="#f38bf5"/><rect x="3.38" y="2.49" width="9.82" height="18.48" rx="1.5" ry="1.5" fill="#f48bf5"/><rect x="3.29" y="2.49" width="9.85" height="18.53" rx="1.5" ry="1.5" fill="#f58bf5"/><rect x="3.21" y="2.49" width="9.87" height="18.58" rx="1.5" ry="1.5" fill="#f68bf5"/><rect x="3.12" y="2.48" width="9.9" height="18.64" rx="1.5" ry="1.5" fill="#f78bf5"/><rect x="3.03" y="2.48" width="9.92" height="18.69" rx="1.5" ry="1.5" fill="#f88bf5"/><rect x="2.94" y="2.48" width="9.95" height="18.74" rx="1.5" ry="1.5" fill="#f98bf5"/><rect x="2.85" y="2.48" width="9.97" height="18.79" rx="1.5" ry="1.5" fill="#fa8bf5"/><rect x="2.77" y="2.48" width="10" height="18.84" rx="1.5" ry="1.5" fill="#fb8bf5"/><rect x="2.68" y="2.48" width="10.03" height="18.89" rx="1.5" ry="1.5" fill="#fc8bf5"/><rect x="2.59" y="2.48" width="10.05" height="18.95" rx="1.5" ry="1.5" fill="#fd8bf5"/><rect x="2.5" y="2.48" width="10.08" height="19" rx="1.5" ry="1.5" fill="#fe8bf5"/><rect x="2.41" y="2.47" width="10.1" height="19.05" rx="1.5" ry="1.5" fill="#ff8bf5"/></svg>