<?xml version="1.0" encoding="UTF-8"?><svg id="a" xmlns="http://www.w3.org/2000/svg" viewBox="0 0 24 24"><g><path d="M22.3,2.9v5.92c0,1.02-1.17,1.71-2.24,1.33l-8.37-2.96c-1.36-.48-1.36-2.18,0-2.66L20.06,1.57c1.07-.38,2.24,.32,2.24,1.33Z" fill="none" stroke="#8ba2ff" stroke-miterlimit="10" stroke-width="1.5"/><path d="M22.3,2.9v5.92c0,1.02-1.17,1.71-2.24,1.33l-8.37-2.96c-1.36-.48-1.36-2.18,0-2.66L20.06,1.57c1.07-.38,2.24,.32,2.24,1.33Z" fill="none" stroke="#8ba2ff" stroke-miterlimit="10" stroke-width="1.5"/><path d="M22.3,2.9v5.92c0,1.02-1.17,1.71-2.24,1.33l-8.37-2.96c-1.36-.48-1.36-2.18,0-2.66L20.06,1.57c1.07-.38,2.24,.32,2.24,1.33Z" fill="none" stroke="#8ba2ff" stroke-miterlimit="10" stroke-width="1.5"/><path d="M22.3,2.9v5.92c0,1.02-1.17,1.71-2.24,1.33l-8.37-2.96c-1.36-.48-1.36-2.18,0-2.66L20.06,1.57c1.07-.38,2.24,.32,2.24,1.33Z" fill="none" stroke="#8ba2ff" stroke-miterlimit="10" stroke-width="1.5"/><path d="M22.3,2.9v5.92c0,1.02-1.17,1.71-2.24,1.33l-8.37-2.96c-1.36-.48-1.36-2.18,0-2.66L20.06,1.57c1.07-.38,2.24,.32,2.24,1.33Z" fill="none" stroke="#8ba2ff" stroke-miterlimit="10" stroke-width="1.5"/><path d="M22.3,2.9v5.92c0,1.02-1.17,1.71-2.24,1.33l-8.37-2.96c-1.36-.48-1.36-2.18,0-2.66L20.06,1.57c1.07-.38,2.24,.32,2.24,1.33Z" fill="none" stroke="#8ba2ff" stroke-miterlimit="10" stroke-width="1.5"/><path d="M22.3,2.9v5.92c0,1.02-1.17,1.71-2.24,1.33l-8.37-2.96c-1.36-.48-1.36-2.18,0-2.66L20.06,1.57c1.07-.38,2.24,.32,2.24,1.33Z" fill="none" stroke="#8ba2ff" stroke-miterlimit="10" stroke-width="1.5"/><path d="M22.3,2.9v5.92c0,1.02-1.17,1.71-2.24,1.33l-8.37-2.96c-1.36-.48-1.36-2.18,0-2.66L20.06,1.57c1.07-.38,2.24,.32,2.24,1.33Z" fill="none" stroke="#9a8bff" stroke-miterlimit="10" stroke-width="1.5"/></g><path d="M11.72,22.54H2.17c-.65,0-1.13-.65-.99-1.33l1.83-9.22c.1-.51,.51-.87,.99-.87h5.9c.48,0,.89,.36,.99,.87l1.82,9.22c.13,.68-.35,1.33-.99,1.33Z" fill="#ff8bf5"/><rect x="3.8" y="3.2" width="6.76" height="6.62" rx="1.13" ry="1.13" fill="none" stroke="#ff8bf5" stroke-miterlimit="10" stroke-width="2"/><rect x="5.78" y="5.05" width="2.81" height="3.74" rx=".56" ry=".56" fill="#ff8bf5"/><rect x="1.06" y="8.32" width="12.24" height="5.64" rx="1.52" ry="1.52" fill="#9a8bff"/></svg>