<?xml version="1.0" encoding="UTF-8"?><svg id="c" xmlns="http://www.w3.org/2000/svg" viewBox="0 0 24 24"><g><rect x="1.88" y="17.06" width="7.81" height="4.86" rx="1.29" ry="1.29" transform="translate(-12.41 10.43) rotate(-47)" fill="#9a8bff"/><path d="m11.24,22.11c-2.36,0-4.53-1.08-5.96-2.96-.67-.88-.5-2.13.38-2.8.88-.67,2.14-.5,2.8.38.67.88,1.68,1.38,2.77,1.38,1.92,0,3.48-1.56,3.48-3.48s-1.56-3.48-3.48-3.48c-1.1,0-2-.9-2-2s.9-2,2-2c4.13,0,7.48,3.36,7.48,7.48s-3.36,7.48-7.48,7.48Z" fill="#9a8bff"/></g><g><rect x="14.14" y="2.45" width="7.81" height="4.86" rx="1.29" ry="1.29" transform="translate(35.47 -1.89) rotate(143.64)" fill="#ff8bf5"/><path d="m10.78,16.04c-.12,0-.25-.01-.37-.03-4.05-.76-6.73-4.68-5.97-8.74C5.2,3.22,9.12.54,13.18,1.3c2.32.44,4.25,1.9,5.31,4.01.5.99.1,2.19-.89,2.68-.99.49-2.19.09-2.68-.89-.49-.98-1.39-1.66-2.47-1.87-1.89-.36-3.71.89-4.07,2.78-.35,1.89.89,3.71,2.78,4.06,1.09.2,1.8,1.25,1.6,2.33-.18.96-1.02,1.63-1.96,1.63Z" fill="#ff8bf5"/></g></svg>