<?xml version="1.0" encoding="UTF-8"?><svg id="c" xmlns="http://www.w3.org/2000/svg" viewBox="0 0 24 24"><g><path d="m18.07,18.31l5.38-5.07c.73-.68.73-1.8,0-2.48l-.2-.19c-.73-.68-1.91-.68-2.63,0l-5.38,5.07c-.73.68-.73,1.8,0,2.48l.2.19c.73.68,1.91.68,2.63,0Z" fill="#1785ff"/><path d="m18.07,5.69l5.38,5.07c.73.68.73,1.8,0,2.48l-.2.19c-.73.68-1.91.68-2.63,0l-5.38-5.07c-.73-.68-.73-1.8,0-2.48l.2-.19c.73-.68,1.91-.68,2.63,0Z" fill="#6ee4f8"/></g><g><path d="m5.93,5.69L.55,10.76c-.73.68-.73,1.8,0,2.48l.2.19c.73.68,1.91.68,2.63,0l5.38-5.07c.73-.68.73-1.8,0-2.48l-.2-.19c-.73-.68-1.91-.68-2.63,0Z" fill="#1785ff"/><path d="m5.93,18.31L.55,13.24c-.73-.68-.73-1.8,0-2.48l.2-.19c.73-.68,1.91-.68,2.63,0l5.38,5.07c.73.68.73,1.8,0,2.48l-.2.19c-.73.68-1.91.68-2.63,0Z" fill="#6ee4f8"/></g><rect x="3.26" y="9.99" width="17.49" height="4.01" rx="2.01" ry="2.01" transform="translate(-4.96 12) rotate(-45)" fill="#6ee4f8"/></svg>