<?xml version="1.0" encoding="UTF-8"?><svg id="c" xmlns="http://www.w3.org/2000/svg" viewBox="0 0 24 24"><path d="M18.8,10.85l.88,.18c.66,.24,1.31,.32,1.95,.24,2.4-1.37,3.02-3.24,1.27-4.79l-1.66-.03-2.68-1.22-2.89,2.06,3.14,3.56Z" fill="#6e85f8"/><path d="M22.9,6.48l-1.66-.03-2.62-1.19-.4,.61,2.86,1.75h1.88c.52,.41,.7,.98,.73,1.66,.43-.94,.2-1.92-.8-2.8Z" fill="#9a8bff"/><path d="M7.48,6.25c1.42-.06,2.7-.07,3.78-.06,3.01,.03,3.8,.22,4.36,.41,.88,.29,2.18,.73,3.04,1.99,.65,.95,.76,1.9,.81,2.5,.22,2.83-1.02,6.21-2.35,5.95-1.13,.4-2.02-1.1-4.08-2.08-1.6-.76-3.56-1.54-6.41-3.04-.2-.11-.46-.25-.66-.54-.95-1.38,.78-4.09,1.51-5.13Z" fill="#ff8bf5"/><path d="M19.27,9.55c-1.4-2.52-4.62-3.15-8.54-3.3l-6.34-.59c.33-.91,.97-1.05,1.13-1.75,.04-.56,.66-2.19,3.69-2.14,.92,.02,3.63,.35,5.91,1.2l4.32,4.87-.16,1.7Z" fill="#6e85f8"/><path d="M10.41,2.52c.28-.16,.63-.21,1.1-.28,.62,.16,1.23,.34,1.83,.54-1.08-.08-2.02-.35-2.8,.12l-.13-.38Z" fill="#73ff9d"/><path d="M13.86,14.33c.22-.29,.48-.55,.79-.75,.2-.18,.39-.3,.87-.08l1.96,1.06c.26,.13,.14,.51,.11,.91,0,.15-.07,.31-.05,.47,.04,.27,.29,.64,.38,.93l-.21,.79-3.11-1.12-.75-2.19Z" fill="#73ff9d"/><path d="M18.1,3.93c.23,.4,.46,.79,.68,1.19l-1.04,1.95c-4.84-1.05-6.42-.82-7.84-.76-1.2,.1-2.37,.12-2.45,.64-.09,.56-.16,1.18-.22,1.86,.45,.25,1.22,1.08,1.29,1.73v1.33c2.87,1.2,6.38,2.61,7.04,3.18l.09,1.31,1.82,.93c.25-.02,.41-.41,.56-.77,.41-.17,.84,.76,.73,1.81s-.76,2.19-2.04,2.91l-1.33,.82,.02-.27c-1.98,1.2-4.52-.95-5.22-1.77-1.32-1.67-3.89-2.84-4.7-3.01-1.3-.21-2.74-.31-2.96-.42-.97-.78-1.44-1.85-1.52-2.38,.02-.33,.33-.5,.3-.68-.96-.58-.49-1.02-.68-1.33-1.33-1.46,.25-5.26,1.72-5.92,2.94-1.04,6.3-2.41,7.4-2.63,3.11-.7,6.01-.87,8.39,.29Z" fill="#6e85f8"/><path d="M10.53,5.19c2.02-.7,4.9-.73,7.34,.09,.05,.07-.34,.46-.58,.75,1.34,.68,2.61,1.35,3.4,1.94,.63,.04,1.26-.03,1.9-.18,.76,.75,.91,2.07-1.37,3.31-.12,.11-1.6-.06-1.53-.19,.4-.78,.49-1.59,.19-2.19-1.01-2.05-5.49-2.97-9.03-2.81-.13,.06-.44-.65-.32-.72Z" fill="#73ff9d"/><path d="M4.38,10.69l-.07,2.6c.28,.64,.57,1.55,.87,2.53-.03-2.22,.46-4.48,.46-4.92-.09-.28-1.24-.37-1.26-.21Z" fill="#73ff9d"/><path d="M7.15,14.24c-.11,.1-.07,1.98,.16,2.73,.49,.12,2.79,.32,3.09,.22,.13-.07,.45-1.6,.39-1.69-.11-.18-3.3-1.35-3.64-1.26Z" fill="#73ff9d"/><path d="M2.52,14.97c-.08,.18,.02,.74,.11,1.19,.29-.11,1-.24,1.85-.23-.29-.53-.43-.82-.61-1.27-.24-.09-1.3,.16-1.36,.31Z" fill="#73ff9d"/><path d="M1.98,7.87c-1.37,.55-1.55,2.73-.9,2.91,.14-1.09,.33-1.91,.9-2.91Z" fill="#73ff9d"/><path d="M13.23,16.47c.47-.46,1.27-.27,1.8-.75-.57,2.01-1.39,2.98-1.77,4.58-.24-.99,.13-2.12,.49-2.65,.39-.68,.27-1.27-.51-1.18Z" fill="#73ff9d"/></svg>