<?xml version="1.0" encoding="UTF-8"?><svg id="a" xmlns="http://www.w3.org/2000/svg" viewBox="0 0 24 24"><rect x="2.84" y="15.04" width="3.69" height="8.92" rx="1.72" ry="1.72" transform="translate(13.62 1.55) rotate(39.95)" fill="#ff8bf5"/><path d="M10,15.33l-.45,1.1c-.05,.12,0,.28,.12,.37l1.06,.81c.18,.14,.18,.42,0,.49l-1.07,.41c-.12,.05-.17,.18-.12,.32l.43,1.26c.07,.22-.1,.4-.3,.32l-1.18-.47c-.13-.05-.26,0-.3,.13l-.4,1.13c-.07,.2-.33,.2-.46,0l-.75-1.13c-.08-.12-.23-.18-.34-.13l-1.04,.47c-.18,.08-.41-.1-.4-.32l.04-1.26c0-.14-.09-.28-.22-.32l-1.19-.41c-.21-.07-.29-.35-.15-.49l.81-.8c.09-.09,.09-.25,0-.37l-.79-1.1c-.14-.19-.04-.43,.16-.43l1.2,.03c.13,0,.23-.1,.23-.24v-1.27c-.02-.22,.21-.32,.39-.17l1.03,.85c.11,.09,.26,.09,.35,0l.77-.85c.13-.15,.39-.05,.46,.17l.38,1.27c.04,.14,.17,.24,.3,.24l1.19-.03c.21,0,.37,.24,.3,.43Z" fill="#9a8bff"/><ellipse cx="14.28" cy="9.23" rx="11.37" ry="4.4" transform="translate(-2.34 12.82) rotate(-45.06)" fill="#ff8bf5"/><path d="M6.36,15.44c1.77-4.36,5.43-8.13,9.51-10.33-1.9,1.35-3.67,2.98-5.15,4.8-1.47,1.76-2.82,4.05-4.36,5.53h0Z" fill="#9a8bff"/></svg>