<?xml version="1.0" encoding="UTF-8"?><svg id="a" xmlns="http://www.w3.org/2000/svg" viewBox="0 0 24 24"><path d="M3.12,4.69l1.6,7.17c.1,.45,.63,.65,1.01,.38l4.73-3.44c.38-.27,.35-.84-.05-1.08L4.08,4c-.49-.29-1.08,.14-.96,.7Z" fill="#b08bff"/><path d="M14.83,20.09h-5.71c-.4,0-.76-.26-.88-.64l-1.76-5.43c-.12-.38,.01-.8,.34-1.04l4.62-3.35c.33-.24,.77-.24,1.09,0l4.62,3.35c.33,.24,.46,.65,.34,1.04l-1.76,5.43c-.12,.38-.48,.64-.88,.64Z" fill="#b08bff"/><path d="M20.88,4.72l-1.62,7.17c-.1,.45-.64,.65-1.01,.38l-4.72-3.45c-.37-.27-.35-.84,.05-1.08l6.34-3.72c.49-.29,1.08,.15,.96,.7Z" fill="#ff8bf5"/><path d="M15.41,15.23c0,1.89-1.53,3.41-3.42,3.41-1.89,0-3.41-1.53-3.41-3.42,0-1.89,1.53-3.41,3.42-3.41,1.89,0,3.41,1.53,3.41,3.42Z" fill="#ff8bf5"/></svg>