<?xml version="1.0" encoding="UTF-8"?><svg id="a" xmlns="http://www.w3.org/2000/svg" viewBox="0 0 24 24"><path d="M1.47,4.51l.92,6.38c.13,.88,1.2,1.24,1.83,.63l5.42-5.25c.64-.62,.31-1.7-.57-1.85L2.74,3.28c-.73-.13-1.37,.49-1.27,1.23Z" fill="#ff8bf5"/><rect x="6.04" y="7.9" width="11.87" height="11.87" rx="2.3" ry="2.3" transform="translate(-6.28 12.52) rotate(-45)" fill="#6e85f8"/><path d="M22.18,4.88l-.64,5.95c-.1,.9-1.19,1.29-1.84,.66l-5.28-5.12c-.65-.63-.29-1.73,.6-1.86l5.93-.84c.7-.1,1.31,.49,1.23,1.19Z" fill="#6e85f8"/><path d="M9.49,16.32c-1.37-1.37-1.37-3.6,0-4.98h0c1.37-1.37,3.6-1.37,4.98,0h0c1.37,1.37,1.37,3.6,0,4.98-1.37,1.37-3.6,1.37-4.98,0Z" fill="#6e85f8"/></svg>