<?xml version="1.0" encoding="UTF-8"?><svg id="a" xmlns="http://www.w3.org/2000/svg" viewBox="0 0 24 24"><ellipse cx="11.97" cy="18.9" rx="3.25" ry="2.26" fill="#b398ff"/><rect x="3.43" y="11.54" width="17.13" height="7.35" rx="3.44" ry="3.44" fill="#5c98ff"/><path d="M16.08,2.34c.24-.13,1.05-.66,2.23-.93,2.72-.62,3.76,2.38,2.16,4.64-1.43,1.64-2.92,2.4-4.39,3.37-1.47-.97-2.95-1.73-4.39-3.37-1.6-2.26-.56-5.26,2.16-4.64,1.18,.27,1.99,.8,2.23,.93" fill="#ff5c9a"/><path d="M17.22,9.28c-.29,.18-.58,.37-.87,.56l-.28,.18-.28-.18c-.29-.19-.58-.38-.87-.56-1.19-.75-2.42-1.53-3.62-2.9-.77-1.07-1.03-2.32-.8-3.37-2.55,.6-4.45,2.89-4.45,5.62v2.75c0,3.19,2.59,5.78,5.78,5.78h.29c3.19,0,5.78-2.59,5.78-5.78v-2.55c-.24,.15-.47,.31-.71,.45Z" fill="#5c98ff"/></svg>