<?xml version="1.0" encoding="UTF-8"?><svg id="a" xmlns="http://www.w3.org/2000/svg" viewBox="0 0 24 24"><path d="M12.96,21.41c-1.38,0-2.5-.96-2.5-2.14v-6.6c0-1.18,1.12-1.5,2.5-1.5s2.5,.32,2.5,1.5v6.6c0,1.18-1.12,2.14-2.5,2.14Z" fill="#ff8bf5"/><path d="M16.55,4.81c1.48,0,2.67,1.2,2.67,2.67v9.11c0,1.48-1.2,2.67-2.67,2.67H7.45c-1.48,0-2.67-1.2-2.67-2.67V7.49c0-1.48,1.2-2.67,2.67-2.67h9.11m0-4H7.45C3.77,.81,.77,3.81,.77,7.49v9.11c0,3.68,2.99,6.67,6.67,6.67h9.11c3.68,0,6.67-2.99,6.67-6.67V7.49c0-3.68-2.99-6.67-6.67-6.67h0Z" fill="#6e85f8"/></svg>