<?xml version="1.0" encoding="UTF-8"?><svg id="a" xmlns="http://www.w3.org/2000/svg" viewBox="0 0 24 24"><path d="M21.09,18.76l-3.93,3.29c-.41,.34-.86,.61-1.36,.8-.79,.31-1.7,.08-2.26-.58-.14-.15-.25-.35-.33-.55-.39-1,.13-2.2,1.13-2.59,.1-.04,.18-.08,.25-.15l3.93-3.29h0c.18-.15,.3-.36,.32-.6,.1-1.06,1.12-1.9,2.18-1.8,.54,.05,1.01,.3,1.35,.71s.51,.93,.45,1.46c-.12,1.3-.74,2.47-1.73,3.3Zm-11.18,3.5c-.41,.34-.93,.51-1.47,.46-1.29-.12-2.47-.74-3.3-1.73l-3.29-3.93c-.34-.41-.6-.86-.8-1.35-.39-1,.12-2.2,1.12-2.6,.79-.31,1.7-.08,2.26,.57,.14,.17,.26,.36,.33,.55,.04,.1,.08,.18,.15,.25l3.29,3.93c.15,.18,.36,.3,.6,.32,.54,.05,1.02,.3,1.36,.72,.34,.41,.5,.92,.45,1.46-.04,.53-.29,1-.71,1.35Zm12.48-11.89c-.17,.14-.36,.26-.57,.33-.79,.31-1.7,.08-2.25-.58-.14-.17-.25-.35-.33-.56-.03-.09-.08-.18-.15-.25l-3.29-3.93c-.15-.18-.36-.3-.6-.32-.53-.05-1.02-.31-1.35-.72-.34-.41-.5-.92-.45-1.46,.11-1.07,1.12-1.9,2.18-1.8,1.29,.12,2.45,.74,3.29,1.73l3.29,3.93c.34,.41,.61,.87,.8,1.36h0c.31,.8,.08,1.72-.58,2.26Zm-17.93-.3c-.41,.34-.93,.51-1.46,.45-1.1-.1-1.91-1.07-1.82-2.17,0-.03,0-.06,0-.08,.14-1.27,.75-2.41,1.73-3.23L6.85,1.74c.41-.35,.88-.62,1.38-.82,.81-.31,1.71-.08,2.26,.58,.14,.17,.25,.36,.33,.56,.39,1.01-.13,2.2-1.15,2.59-.09,.03-.18,.08-.25,.15l-3.93,3.29c-.18,.15-.3,.36-.32,.6-.05,.54-.3,1.02-.71,1.36Z" fill="#6e85f8"/><path d="M16.84,15.55l-2.1,1.76c-.22,.18-.46,.32-.73,.43-.42,.17-.91,.04-1.2-.31-.08-.08-.13-.19-.18-.3-.21-.53,.07-1.17,.6-1.38,.05-.02,.09-.04,.14-.08l2.1-1.76h0c.1-.08,.16-.19,.17-.32,.05-.57,.6-1.01,1.16-.96,.29,.03,.54,.16,.72,.38s.27,.5,.24,.78c-.07,.69-.39,1.32-.92,1.76Zm-5.96,1.87c-.22,.18-.49,.27-.78,.24-.69-.06-1.32-.39-1.76-.92l-1.76-2.1c-.18-.22-.32-.46-.43-.72-.21-.53,.06-1.17,.6-1.38,.42-.17,.91-.04,1.21,.3,.08,.09,.14,.19,.18,.3,.02,.05,.04,.09,.08,.14l1.76,2.1c.08,.1,.19,.16,.32,.17,.29,.03,.54,.16,.72,.38,.18,.22,.27,.49,.24,.78-.02,.28-.16,.53-.38,.72Zm6.65-6.34c-.09,.08-.19,.14-.3,.18-.42,.17-.9,.04-1.2-.31-.08-.09-.13-.19-.18-.3-.02-.05-.04-.09-.08-.14l-1.76-2.1c-.08-.1-.19-.16-.32-.17-.28-.03-.54-.17-.72-.39-.18-.22-.27-.49-.24-.78,.06-.57,.6-1.01,1.16-.96,.69,.06,1.31,.39,1.75,.92l1.76,2.1c.18,.22,.33,.46,.43,.73h0c.17,.43,.04,.92-.31,1.21Zm-9.56-.16c-.22,.18-.5,.27-.78,.24-.59-.05-1.02-.57-.97-1.16,0-.02,0-.03,0-.04,.07-.67,.4-1.29,.92-1.72l2.1-1.76c.22-.18,.47-.33,.73-.43,.43-.17,.91-.04,1.21,.31,.08,.09,.13,.19,.17,.3,.21,.54-.07,1.17-.61,1.38-.05,.02-.09,.04-.14,.08l-2.1,1.76c-.1,.08-.16,.19-.17,.32-.03,.29-.16,.55-.38,.73Z" fill="#ff8bf5"/><circle cx="12.07" cy="11.98" r="1.85" fill="#9a8bff"/></svg>