<?xml version="1.0" encoding="UTF-8"?><svg id="a" xmlns="http://www.w3.org/2000/svg" viewBox="0 0 24 24"><path d="M18.21,22.95h-5.94c-1.17,0-2.14-.95-2.14-2.14s.96-2.14,2.14-2.14h5.91c.37,0,.65-.11,.93-.34h.01c.83-.78,2.24-.73,3.01,.11,.36,.38,.57,.9,.58,1.43,0,.6-.25,1.17-.68,1.58-1.02,.95-2.41,1.49-3.82,1.49Zm-14.35-.62c-.44,0-.86-.14-1.23-.4-1.51-1.06-2.41-2.8-2.42-4.64,0-.98,.27-1.96,.77-2.83l1.64-2.85c.57-.98,1.92-1.36,2.91-.79,.66,.38,1.07,1.1,1.07,1.86,0,.37-.1,.74-.29,1.07l-1.64,2.85c-.13,.22-.19,.45-.19,.69,0,.44,.23,.9,.61,1.15l.14,.1h-.01c.48,.4,.78,.99,.78,1.63,0,.45-.13,.87-.38,1.24-.4,.58-1.06,.92-1.75,.92Zm15.5-7.93c-.77,0-1.47-.41-1.86-1.07l-4.27-7.4c-.26-.45-.66-.68-1.21-.69-.52,.01-.94,.25-1.2,.69l-.25,.42c-.57,.98-1.92,1.36-2.91,.78-.66-.38-1.07-1.09-1.07-1.86,0-.36,.1-.74,.29-1.06l.24-.42c1-1.75,2.87-2.83,4.87-2.83h.07c2,0,3.87,1.08,4.87,2.83l4.27,7.4c.59,1.01,.23,2.33-.78,2.91-.33,.19-.69,.29-1.07,.29Z" fill="#9a8bff"/><circle cx="12" cy="13.7" r="3.61" fill="#ff8bf5"/></svg>