<?xml version="1.0" encoding="UTF-8"?><svg id="c" xmlns="http://www.w3.org/2000/svg" viewBox="0 0 24 24"><path d="m12,23.7h-.35c-2.02-.06-3.99-.65-5.72-1.69-.46-.28-.78-.72-.91-1.24-.12-.52-.04-1.05.23-1.51.56-.91,1.83-1.23,2.75-.68,1.14.69,2.44,1.08,3.77,1.12,1.28.06,2.51-.23,3.65-.8.06-.03.12-.06.17-.09.95-.5,2.21-.11,2.7.84.25.47.3,1.01.14,1.52-.15.51-.5.93-.97,1.18-.09.04-.17.09-.26.13-1.61.8-3.41,1.22-5.2,1.22Zm9.69-9.17h-.12c-1.1-.06-1.94-1.01-1.88-2.11,0-.15,0-.29,0-.43,0-1.19-.27-2.34-.81-3.41-.11-.23-.24-.46-.37-.67-.7-1.12-1.68-2.04-2.85-2.67h-.01c-.97-.54-1.33-1.75-.81-2.72.51-.94,1.76-1.32,2.71-.81,1.78.96,3.28,2.37,4.35,4.08.21.33.4.67.57,1.01.8,1.61,1.22,3.41,1.22,5.19,0,.23,0,.44-.02.65-.06,1.06-.93,1.89-1.99,1.89Zm-19.39-.58h-.02c-1.1-.01-1.99-.91-1.99-2.01.02-2.01.55-4,1.55-5.76,1.01-1.75,2.46-3.22,4.19-4.24.92-.55,2.2-.22,2.74.7.56.95.25,2.18-.7,2.74-1.14.67-2.09,1.64-2.75,2.79-.66,1.15-1.02,2.46-1.03,3.79h0c0,1.1-.9,1.99-1.99,1.99Z" fill="#6e85f8"/><path d="m15.42,18.9c.06-.03.12-.06.17-.09m4.57.42c-.38,0-.75-.1-1.07-.31-.93-.59-1.21-1.83-.61-2.76.57-.9,1.86-1.19,2.76-.61.45.29.76.73.88,1.26.11.52.02,1.05-.27,1.5l-.03.06h0c-.37.54-.98.86-1.65.86Zm-16.63-.49c-.72,0-1.39-.39-1.74-1.03-.26-.46-.33-1-.18-1.52.14-.51.48-.94.95-1.2.92-.51,2.18-.16,2.7.75l.02.02c.54.96.19,2.19-.77,2.72-.3.17-.64.26-.98.26ZM11.81,4.3c-1.08,0-1.98-.88-2-1.96-.02-1.1.86-2.02,1.96-2.04h.04c1.08,0,1.98.88,2,1.96,0,.54-.19,1.04-.56,1.43-.36.37-.85.59-1.37.61h-.07Z" fill="#9a8bff"/></svg>