<?xml version="1.0" encoding="UTF-8"?><svg id="c" xmlns="http://www.w3.org/2000/svg" xmlns:xlink="http://www.w3.org/1999/xlink" viewBox="0 0 24 24"><defs><linearGradient id="d" x1="11.95" y1="10.36" x2="19.1" y2="17.46" gradientUnits="userSpaceOnUse"><stop offset="0" stop-color="#ff8bf5"/><stop offset=".83" stop-color="#9a8bff"/></linearGradient><linearGradient id="e" x1="8.63" y1="17.25" x2="11.57" y2="9.31" xlink:href="#d"/><linearGradient id="f" x1="10.56" y1="11.8" x2="18.47" y2="17.83" xlink:href="#d"/></defs><path d="m15.05,7.26c-.79.33-1.39.71-1.78.95-.16.1-.29.18-.38.23-.8.44-1.82.15-2.26-.66-.44-.8-.15-1.82.66-2.26.06-.03.13-.08.22-.14.36-.23.92-.57,1.65-.92" fill="#ff8bf5"/><path d="m12,22.16c-.32,0-.64-.09-.92-.28-.55-.37-1.1-.72-1.66-1.07-2.33-1.47-4.74-2.99-7.1-5.7l-.1-.13C.13,12.04-.13,8.35,1.57,5.81c1.38-2.06,3.82-2.92,6.53-2.31,2.23.51,3.83,1.45,4.52,1.85l.18.11c.81.44,1.1,1.45.66,2.26-.44.81-1.45,1.1-2.26.66l-.26-.15c-.6-.35-1.85-1.08-3.58-1.48-.95-.22-2.25-.24-3.02.91-.77,1.15-.82,3.35.55,5.34,2.02,2.3,4.11,3.62,6.31,5.01.57.36,1.15.73,1.72,1.1.77.51.97,1.54.47,2.31-.32.48-.85.74-1.39.74Z" fill="#9a8bff"/><path d="m13.16,4.46c.74-.35,1.65-.71,2.74-.96,2.71-.62,5.15.24,6.53,2.31,1.7,2.54,1.44,6.23-.65,9.18-.03.05-.07.09-.1.13-2.36,2.71-4.77,4.23-7.1,5.7-.55.35-1.11.7-1.66,1.06-.28.19-.6.28-.92.28-.54,0-1.07-.26-1.39-.74-.51-.77-.3-1.8.47-2.31.57-.38,1.15-.74,1.72-1.1,2.2-1.39,4.29-2.71,6.31-5.01,1.38-1.99,1.33-4.19.55-5.34-.77-1.15-2.07-1.13-3.02-.91-.6.14-1.13.32-1.59.51" fill="#ff8bf5"/><path d="m17.71,15.08c-2.84-.14-4.42-2.11-4.96-3.9-.41-1.38-.15-2.47.3-2.8.69-.5.87-1.43.47-2.15.21.46.21,1.01-.05,1.48-.44.81-1.45,1.1-2.26.66l-.26-.15c-.28-.17-.72-.42-1.28-.68-.54,1.29-.6,2.91-.1,4.59.82,2.75,3.41,6.05,7.99,6.27.03,0,.06,0,.08,0,.88,0,1.62-.69,1.66-1.58.04-.92-.66-1.7-1.58-1.74Z" fill="url(#d)"/><path d="m6.39,18.29c-.06,0-.11,0-.17,0-.92-.03-1.64-.79-1.62-1.71.03-.92.79-1.64,1.71-1.62,1.96.07,4.67-1.9,5.43-3.94.42-1.13.16-2.02-.81-2.81-.71-.58-.82-1.63-.24-2.34.58-.71,1.63-.82,2.34-.24,2.08,1.69,2.74,4.08,1.82,6.55-1.23,3.3-5.16,6.11-8.48,6.11Z" fill="url(#e)"/><path d="m13.39,12.58s-.05-.09-.08-.13c-.01-.02-.03-.04-.04-.07-.36-.6-.92-1.55-1.36-2.72.08.41.03.86-.15,1.35-.31.84-.95,1.65-1.73,2.33.44.95,1.09,1.89,1.94,2.71.88-.72,1.64-1.57,2.21-2.49-.31-.31-.56-.64-.79-.99h0Z" fill="url(#f)"/></svg>