<?xml version="1.0" encoding="UTF-8"?><svg id="a" xmlns="http://www.w3.org/2000/svg" viewBox="0 0 24 24"><path d="M18.48,5.28l-4.84-3.19c-.98-.65-2.26-.65-3.24,0l-4.84,3.19c-.53,.35-.83,.87-.83,1.44v7.18c0,.57,.3,1.09,.83,1.44l4.32,2.84c.38,.25,.84-.06,.86-.46v-1.52c0-.18-.09-.34-.24-.44l-2.9-1.91c-.15-.1-.24-.26-.24-.44V7.2c0-.18,.09-.34,.24-.44l4.13-2.72c.17-.12,.4-.12,.58,0l4.13,2.72c.15,.1,.24,.26,.24,.44v6.23c0,.18-.09,.34-.24,.44l-2.92,1.92c-.15,.1-.24,.26-.24,.44v1.49c0,.39,.5,.7,.88,.47l4.32-2.85h0c.53-.35,.83-.88,.83-1.44V6.72c0-.57-.3-1.09-.83-1.44Z" fill="#6e85f8"/><path d="M19.71,6.56v9.6c0,.22-.1,.44-.28,.57l-3.38,2.62c-.18,.14-.28,.35-.28,.57v1.46c0,.61,.7,.95,1.17,.57l4.48-3.48c.52-.41,.84-1.05,.84-1.73V7.45c0-.22-.1-.43-.27-.57l-1.1-.89c-.48-.38-1.18-.05-1.18,.57Z" fill="#ff8bf5"/><path d="M7.93,19.34l-3.36-2.61c-.18-.14-.28-.35-.28-.57V6.51c0-.61-.71-.95-1.18-.57l-1.1,.89c-.17,.14-.27,.35-.27,.57v9.35c0,.68,.31,1.32,.84,1.73l4.46,3.46c.48,.37,1.17,.03,1.17-.57v-1.46c0-.22-.1-.44-.28-.57Z" fill="#ff8bf5"/><path d="M12,19.42c.13-.07,.56-.36,1.19-.5,1.46-.33,2.02,1.28,1.16,2.49-.77,.88-1.57,1.29-2.35,1.81-.79-.52-1.59-.93-2.35-1.81-.86-1.21-.3-2.82,1.16-2.49,.63,.14,1.07,.43,1.19,.5" fill="#6e85f8"/></svg>