<?xml version="1.0" encoding="UTF-8"?><svg id="a" xmlns="http://www.w3.org/2000/svg" viewBox="0 0 24 24"><path d="M10.77,13.76l-2.36-5.38c-.13-.31-.15-.65-.05-.97l.99-3.05c.18-.56,.71-.94,1.3-.94h2.73c.59,0,1.11,.38,1.3,.94l.99,3.05c.1,.32,.09,.66-.05,.97l-2.36,5.38c-.48,1.09-2.02,1.09-2.49,0Z" fill="#9a8bff"/><path d="M18.42,11.01l2.24,5.43c.13,.31,.14,.65,.03,.97l-1.06,3.03c-.19,.56-.73,.93-1.32,.91l-2.73-.06c-.59-.01-1.1-.4-1.27-.97l-.92-3.07c-.1-.32-.07-.66,.07-.97l2.47-5.33c.5-1.08,2.04-1.04,2.49,.05Z" fill="#ff8bf5"/><path d="M19.3,8.92l3.13-3.48c.47-.52,.2-1.35-.49-1.5l-4.58-.97c-.68-.15-1.27,.5-1.05,1.17l1.45,4.45c.22,.67,1.07,.85,1.54,.33Z" fill="#ff8bf5"/><path d="M5.68,11.01l-2.24,5.43c-.13,.31-.14,.65-.03,.97l1.06,3.03c.19,.56,.73,.93,1.32,.91l2.73-.06c.59-.01,1.1-.4,1.27-.97l.92-3.07c.1-.32,.07-.66-.07-.97l-2.47-5.33c-.5-1.08-2.04-1.04-2.49,.05Z" fill="#ff8bf5"/><path d="M4.81,8.92L1.68,5.44c-.47-.52-.2-1.35,.49-1.5l4.58-.97c.68-.15,1.27,.5,1.05,1.17l-1.45,4.45c-.22,.67-1.07,.85-1.54,.33Z" fill="#ff8bf5"/></svg>