<?xml version="1.0" encoding="UTF-8"?><svg id="a" xmlns="http://www.w3.org/2000/svg" viewBox="0 0 24 24"><path d="M8.6,15.14c.18-.1,.79-.5,1.67-.7,2.04-.47,2.83,1.78,1.62,3.48-1.08,1.23-2.19,1.8-3.29,2.53-1.1-.73-2.22-1.3-3.29-2.53-1.2-1.7-.42-3.95,1.62-3.48,.89,.2,1.49,.6,1.67,.7" fill="#5c98ff"/><line x1="17.24" y1="20.86" x2="17.27" y2="3.32" fill="none" stroke="#5c98ff" stroke-linecap="round" stroke-miterlimit="11.34" stroke-width="3"/><path d="M6.58,12.09c-2.08-4.22,1.08-6.59,4.9-5.69" fill="none" stroke="#6e85f8" stroke-linecap="round" stroke-miterlimit="11.34" stroke-width="2"/><g><rect x="10.78" y="4.29" width="1.42" height="4.2" transform="translate(.04 -.07) rotate(.37)" fill="#6e85f8"/><g><rect x="9.38" y="6.64" width="5.71" height="2.02" rx="1.01" ry="1.01" transform="translate(26.31 4.5) rotate(135.37)" fill="#6e85f8"/><rect x="9.4" y="4.03" width="5.71" height="2.02" rx="1.01" ry="1.01" transform="translate(17.27 17.3) rotate(-134.63)" fill="#6e85f8"/></g></g></svg>