<?xml version="1.0" encoding="UTF-8"?><svg id="c" xmlns="http://www.w3.org/2000/svg" viewBox="0 0 24 24"><path d="m11.88,2.1c-.76,0-1.53.07-2.28.19-2.02.35-2.39,1.09-2.39,2.45v1.8h4.77v.6h-6.57c-1.44-.03-2.7.98-2.98,2.39-.45,1.57-.45,3.23,0,4.8.13,1.32,1.21,2.34,2.54,2.39h1.64v-2.16c.05-1.62,1.36-2.92,2.98-2.93h4.77c.63,0,1.24-.25,1.69-.7.45-.45.7-1.06.7-1.69v-4.5c-.09-1.29-1.1-2.33-2.39-2.45-.82-.13-1.65-.2-2.49-.19Zm-2.58,1.45c.36,0,.69.22.83.55s.07.72-.19.98-.64.34-.98.2c-.34-.14-.56-.47-.56-.83,0-.5.4-.9.9-.9Z" fill="#9a8bff"/><path d="m17.35,7.15v2.1c-.03,1.64-1.34,2.96-2.98,2.99h-4.77c-1.32.02-2.38,1.08-2.39,2.4v4.5c.16,1.25,1.14,2.24,2.39,2.4,1.55.48,3.22.48,4.77,0,1.26-.15,2.24-1.14,2.39-2.4v-1.8h-4.77v-.6h7.16c1.39,0,1.9-.96,2.39-2.39.49-1.56.49-3.24,0-4.8-.08-1.29-1.1-2.31-2.39-2.39h-1.79Zm-2.68,11.39c.36,0,.69.22.83.55s.06.72-.19.98c-.26.26-.65.33-.98.2-.34-.14-.56-.47-.55-.83,0-.24.09-.47.26-.63.17-.17.4-.26.63-.26h0Z" fill="#ff8bf5"/></svg>