<?xml version="1.0" encoding="UTF-8"?><svg id="a" xmlns="http://www.w3.org/2000/svg" viewBox="0 0 24 24"><path d="M12,6.46c.44-.24,1.91-1.21,4.07-1.71,4.97-1.14,6.88,4.35,3.95,8.48-2.62,3.01-5.34,4.39-8.02,6.17-2.68-1.78-5.4-3.16-8.02-6.17C1.05,9.1,2.96,3.62,7.93,4.75c2.16,.49,3.63,1.46,4.07,1.71" fill="none" stroke="#ff8bf5" stroke-linecap="round" stroke-width="4"/><path d="M14.5,5.23c-1.3,.49-2.18,1.06-2.5,1.23-.44-.24-1.91-1.21-4.07-1.71C2.96,3.62,1.05,9.1,3.98,13.23c2.62,3.01,5.34,4.39,8.02,6.17,.83-.55,1.67-1.07,2.5-1.6V5.23Z" fill="#ff8bf5"/></svg>