<?xml version="1.0" encoding="UTF-8"?><svg id="a" xmlns="http://www.w3.org/2000/svg" viewBox="0 0 24 24"><path d="M6.72,17.76c-.35-.31-.67-.65-.97-1.02-2.72-3.44-2.13-8.44,1.31-11.16,3.44-2.72,8.44-2.13,11.16,1.31,2.72,3.44,2.13,8.44-1.31,11.16-1.42,1.12-3.11,1.68-4.8,1.71" fill="none" stroke="#5c98ff" stroke-linecap="round" stroke-miterlimit="11.34" stroke-width="2.5"/><g><rect x="5.49" y="15.28" width="1.42" height="4.2" transform="translate(15.99 1.75) rotate(51.7)" fill="#7944e0"/><g><rect x="2.83" y="17.74" width="5.71" height="2.02" rx="1.01" ry="1.01" transform="translate(9.13 38.03) rotate(-173.3)" fill="#1785ff"/><rect x="4.87" y="16.12" width="5.71" height="2.02" rx="1.01" ry="1.01" transform="translate(-10.19 22.81) rotate(-83.3)" fill="#6ee4f8"/></g></g><g><polygon points="11.11 10.24 13.5 11.57 11.15 12.97 11.11 10.24" fill="#6ee4f8"/><path d="M10.28,7.9c-.49,0-.94,.4-.94,.95l.08,5.56c0,.54,.45,.92,.94,.92,.16,0,.32-.04,.48-.13l4.77-2.85c.62-.37,.6-1.27-.02-1.62l-4.86-2.71c-.15-.08-.3-.12-.45-.12h0Z" fill="#6ee4f8"/></g></svg>