<?xml version="1.0" encoding="UTF-8"?><svg id="c" xmlns="http://www.w3.org/2000/svg" viewBox="0 0 24 24"><path d="m19.75,5.76l-6.22-3.59c-.95-.55-2.11-.55-3.06,0l-6.22,3.59c-.95.55-1.53,1.56-1.53,2.65v7.19c0,1.09.58,2.1,1.53,2.65l6.22,3.59c.95.55,2.11.55,3.06,0l6.22-3.59c.95-.55,1.53-1.56,1.53-2.65v-7.19c0-1.09-.58-2.1-1.53-2.65Zm-1.24,8.5c0,.93-.49,1.78-1.3,2.25l-3.91,2.26c-.8.46-1.79.46-2.6,0l-3.91-2.26c-.8-.46-1.3-1.32-1.3-2.25v-4.52c0-.93.49-1.78,1.3-2.25l3.91-2.26c.8-.46,1.79-.46,2.6,0l3.91,2.26c.8.46,1.3,1.32,1.3,2.25v4.52Z" fill="#6ee4f8"/><path d="m11.5,15.54l-2.32-1.34c-.31-.18-.5-.51-.5-.86v-2.68c0-.35.19-.68.5-.86l2.32-1.34c.31-.18.69-.18.99,0l2.32,1.34c.31.18.5.51.5.86v2.68c0,.35-.19.68-.5.86l-2.32,1.34c-.31.18-.69.18-.99,0Z" fill="#6ee4f8"/></svg>