<?xml version="1.0" encoding="UTF-8"?><svg id="a" xmlns="http://www.w3.org/2000/svg" viewBox="0 0 24 24"><g><path d="M18.37,7.55c-2.16-3.86-9.79-4.71-12.16,.47" fill="none" stroke="#6e85f8" stroke-linecap="round" stroke-miterlimit="11.34" stroke-width="3.5"/><g><rect x="5.07" y="4.65" width="2.28" height="6.75" transform="translate(16.35 8) rotate(127.6)" fill="#6e85f8"/><g><rect x="-.7" y="6.13" width="9.16" height="3.24" rx="1.33" ry="1.33" transform="translate(-3.31 12.6) rotate(-97.4)" fill="#6e85f8"/><rect x="2.61" y="8.69" width="9.16" height="3.24" rx="1.33" ry="1.33" transform="translate(-1.27 1.01) rotate(-7.4)" fill="#6e85f8"/></g></g></g><g><path d="M5.79,16.48c2.16,3.86,9.79,4.71,12.16-.47" fill="none" stroke="#ff8bf5" stroke-linecap="round" stroke-miterlimit="11.34" stroke-width="3.5"/><g><rect x="16.81" y="12.64" width="2.28" height="6.75" transform="translate(-5.69 20.46) rotate(-52.4)" fill="#ff8bf5"/><g><rect x="15.7" y="14.66" width="9.16" height="3.24" rx="1.33" ry="1.33" transform="translate(33.81 -5.92) rotate(82.6)" fill="#ff8bf5"/><rect x="12.38" y="12.1" width="9.16" height="3.24" rx="1.33" ry="1.33" transform="translate(35.55 25.14) rotate(172.6)" fill="#ff8bf5"/></g></g></g></svg>