<?xml version="1.0" encoding="UTF-8"?><svg id="a" xmlns="http://www.w3.org/2000/svg" viewBox="0 0 24 24"><g><path d="M6.21,9.77c-.24,0-.49-.05-.73-.16-.88-.4-1.27-1.44-.86-2.32,1.27-2.78,3.96-4.51,7.2-4.64,3.4-.14,6.65,1.49,8.08,4.05,.47,.84,.17,1.91-.67,2.38-.84,.47-1.91,.17-2.38-.67-.78-1.39-2.83-2.34-4.88-2.26-1.13,.05-3.17,.44-4.16,2.6-.29,.64-.93,1.02-1.59,1.02Z" fill="#6e85f8"/><g><rect x="5.07" y="4.65" width="2.28" height="6.75" transform="translate(16.35 8) rotate(127.6)" fill="#6e85f8"/><g><rect x="-.7" y="6.13" width="9.16" height="3.24" rx="1.33" ry="1.33" transform="translate(-3.31 12.6) rotate(-97.4)" fill="#6e85f8"/><rect x="2.61" y="8.69" width="9.16" height="3.24" rx="1.33" ry="1.33" transform="translate(-1.27 1.01) rotate(-7.4)" fill="#6e85f8"/></g></g></g><g><path d="M11.94,21.39c-3.25,0-6.3-1.6-7.68-4.06-.47-.84-.17-1.91,.67-2.38,.84-.47,1.91-.17,2.38,.67,.78,1.39,2.84,2.33,4.88,2.26,1.13-.05,3.17-.44,4.16-2.6,.4-.88,1.44-1.26,2.32-.86,.88,.4,1.27,1.44,.86,2.32-1.27,2.78-3.96,4.51-7.2,4.64-.13,0-.27,0-.4,0Z" fill="#ff8bf5"/><g><rect x="16.81" y="12.64" width="2.28" height="6.75" transform="translate(-5.69 20.46) rotate(-52.4)" fill="#ff8bf5"/><g><rect x="15.7" y="14.66" width="9.16" height="3.24" rx="1.33" ry="1.33" transform="translate(33.81 -5.92) rotate(82.6)" fill="#ff8bf5"/><rect x="12.38" y="12.1" width="9.16" height="3.24" rx="1.33" ry="1.33" transform="translate(35.55 25.14) rotate(172.6)" fill="#ff8bf5"/></g></g></g></svg>