<?xml version="1.0" encoding="UTF-8"?><svg id="a" xmlns="http://www.w3.org/2000/svg" viewBox="0 0 24 24"><path d="M12.14,9.65c.2-.11,.85-.54,1.82-.76,2.22-.51,3.07,1.94,1.76,3.78-1.17,1.34-2.38,1.96-3.58,2.75-1.2-.79-2.41-1.41-3.58-2.75-1.31-1.84-.46-4.29,1.76-3.78,.96,.22,1.62,.65,1.82,.76" fill="#5c98ff"/><path d="M5.67,18.64c-.42-.38-.82-.8-1.19-1.26C1.15,13.16,1.87,7.03,6.09,3.69c4.23-3.34,10.36-2.62,13.7,1.61,3.34,4.23,2.62,10.36-1.61,13.7-1.75,1.38-3.82,2.07-5.89,2.1" fill="none" stroke="#5c98ff" stroke-linecap="round" stroke-miterlimit="11.34" stroke-width="3"/><g><rect x="4.16" y="15.59" width="1.74" height="5.16" transform="translate(16.17 2.96) rotate(51.7)" fill="#7944e0"/><g><rect x=".89" y="18.61" width="7" height="2.48" rx="1.01" ry="1.01" transform="translate(6.45 40.08) rotate(-173.3)" fill="#1785ff"/><rect x="3.41" y="16.63" width="7" height="2.48" rx="1.01" ry="1.01" transform="translate(-11.64 22.65) rotate(-83.3)" fill="#6ee4f8"/></g></g></svg>