<?xml version="1.0" encoding="UTF-8"?><svg id="a" xmlns="http://www.w3.org/2000/svg" viewBox="0 0 24 24"><g><rect x="1.98" y="16.57" width="20" height="6" rx="1.3" ry="1.3" fill="#6e85f8"/><rect x="3.94" y="1.43" width="16.12" height="19.12" rx="3.69" ry="3.69" fill="#6e85f8"/></g><path d="M6.34,12.41V7.52c0-2.82,2.53-5.1,5.65-5.1h0c3.12,0,5.65,2.28,5.65,5.1v4.89H6.34Z" fill="#73ff9d"/><path d="M10.76,12.41c0,1.02-.99,1.84-2.22,1.84s-2.22-.82-2.22-1.84,.99-1.84,2.22-1.84,2.22,.82,2.22,1.84Z" fill="#73ff9d"/><path d="M14.95,12.41c0,1.02-1.34,1.84-2.98,1.84s-2.98-.82-2.98-1.84,1.34-1.84,2.98-1.84,2.98,.82,2.98,1.84Z" fill="#73ff9d"/><path d="M17.62,12.41c0,1.02-1.02,1.84-2.27,1.84s-2.27-.82-2.27-1.84,1.02-1.84,2.27-1.84,2.27,.82,2.27,1.84Z" fill="#73ff9d"/><circle cx="9.86" cy="6.5" r="1.67" fill="#6e85f8"/><circle cx="13.92" cy="6.5" r="1.67" fill="#6e85f8"/><path d="M11.11,9.01c.37-.38,1.12-.37,1.5,0" fill="none" stroke="#6e85f8" stroke-linecap="round" stroke-miterlimit="11.34" stroke-width="1.25"/></svg>