<?xml version="1.0" encoding="UTF-8"?><svg id="a" xmlns="http://www.w3.org/2000/svg" viewBox="0 0 24 24"><path d="M20.08,16.57V5.12c0-2.04-1.65-3.69-3.69-3.69H7.66c-2.04,0-3.69,1.65-3.69,3.69v11.45H20.08Z" fill="none" stroke="#6e85f8" stroke-miterlimit="10" stroke-width="2"/><rect x="2" y="16.57" width="20" height="6" rx="1.3" ry="1.3" fill="none" stroke="#6e85f8" stroke-miterlimit="10" stroke-width="2"/><ellipse cx="8.56" cy="12.41" rx="2.22" ry="1.84" fill="#ff8bf5"/><ellipse cx="11.99" cy="12.41" rx="2.98" ry="1.84" fill="#ff8bf5"/><ellipse cx="15.37" cy="12.41" rx="2.27" ry="1.84" fill="#ff8bf5"/><path d="M12.01,2.42c-3.12,0-5.65,2.28-5.65,5.1v4.89h11.3V7.52c0-2.82-2.53-5.1-5.65-5.1Zm-3.8,4.08c0-.92,.75-1.67,1.67-1.67s1.67,.75,1.67,1.67-.75,1.67-1.67,1.67-1.67-.75-1.67-1.67Zm4.87,2.96c-.12,.12-.28,.18-.44,.18s-.32-.06-.44-.18c-.07-.07-.2-.1-.33-.11-.12,0-.23,.04-.28,.09-.24,.25-.64,.26-.88,.02-.25-.24-.26-.63-.02-.88,.29-.3,.71-.47,1.17-.47,.47,0,.92,.17,1.23,.47,.24,.24,.25,.64,0,.88Zm.87-1.29c-.92,0-1.67-.75-1.67-1.67s.75-1.67,1.67-1.67,1.67,.75,1.67,1.67-.75,1.67-1.67,1.67Z" fill="#ff8bf5"/></svg>