<?xml version="1.0" encoding="UTF-8"?><svg id="a" xmlns="http://www.w3.org/2000/svg" viewBox="0 0 24 24"><g><rect x="3.66" y="1.68" width="16.68" height="20.65" rx="2.65" ry="2.65" fill="#6ee4f8"/><rect x="5.55" y="4.09" width="10.02" height="2.16" rx=".92" ry=".92" fill="#6e6cf8"/><rect x="5.55" y="7.26" width="11.67" height="2.16" rx=".92" ry=".92" fill="#6e6cf8"/><rect x="5.55" y="10.43" width="8.73" height="2.16" rx=".92" ry=".92" fill="#6e6cf8"/></g><path d="M18.13,1.6c.24-.13,1.05-.66,2.23-.93,2.72-.62,3.76,2.38,2.16,4.64-1.43,1.64-2.92,2.4-4.39,3.37-1.47-.97-2.95-1.73-4.39-3.37C12.14,3.04,13.19,.05,15.9,.67c1.18,.27,1.99,.8,2.23,.93" fill="#ff5c9a"/></svg>