<?xml version="1.0" encoding="UTF-8"?><svg id="a" xmlns="http://www.w3.org/2000/svg" viewBox="0 0 24 24"><g><rect x="3.66" y="1.68" width="16.68" height="20.65" rx="2.65" ry="2.65" fill="#6ee4f8"/><rect x="5.55" y="4.09" width="10.02" height="2.16" rx=".92" ry=".92" fill="#6e6cf8"/><rect x="5.55" y="7.26" width="11.67" height="2.16" rx=".92" ry=".92" fill="#6e6cf8"/><rect x="5.55" y="10.43" width="8.73" height="2.16" rx=".92" ry=".92" fill="#6e6cf8"/></g><path d="M17.23,1.51c.29-.16,1.27-.8,2.69-1.13,3.29-.75,4.55,2.87,2.61,5.61-1.73,1.99-3.53,2.9-5.3,4.08-1.77-1.18-3.57-2.09-5.3-4.08-1.94-2.73-.67-6.36,2.61-5.61,1.43,.33,2.4,.97,2.69,1.13" fill="#ff5c9a"/></svg>