<?xml version="1.0" encoding="UTF-8"?><svg id="a" xmlns="http://www.w3.org/2000/svg" viewBox="0 0 24 24"><circle cx="12" cy="12" r="11.14" fill="#5c98ff"/><circle cx="11.94" cy="11.94" r="9.96" fill="none" stroke="#6ee4f8" stroke-dasharray="0 0 .25 2" stroke-linecap="round" stroke-miterlimit="10"/><path d="M10.72,5.07l.65-1.43c.24-.53,1-.53,1.25,0l.65,1.43c.1,.22,.31,.37,.55,.4l1.57,.18c.58,.07,.82,.79,.39,1.19l-1.16,1.07c-.18,.16-.26,.41-.21,.64l.31,1.54c.12,.58-.5,1.02-1.01,.73l-1.37-.78c-.21-.12-.47-.12-.67,0l-1.37,.78c-.51,.29-1.13-.16-1.01-.73l.31-1.54c.05-.24-.03-.48-.21-.64l-1.16-1.07c-.43-.4-.2-1.12,.39-1.19l1.57-.18c.24-.03,.45-.18,.55-.4Z" fill="#6ee4f8"/><path d="M5.97,11.94l.65-1.43c.24-.53,1-.53,1.25,0l.65,1.43c.1,.22,.31,.37,.55,.4l1.57,.18c.58,.07,.82,.79,.39,1.19l-1.16,1.07c-.18,.16-.26,.41-.21,.64l.31,1.54c.12,.58-.5,1.02-1.01,.73l-1.37-.78c-.21-.12-.47-.12-.67,0l-1.37,.78c-.51,.29-1.13-.16-1.01-.73l.31-1.54c.05-.24-.03-.48-.21-.64l-1.16-1.07c-.43-.4-.2-1.12,.39-1.19l1.57-.18c.24-.03,.45-.18,.55-.4Z" fill="#6ee4f8"/><path d="M15.33,11.94l.65-1.43c.24-.53,1-.53,1.25,0l.65,1.43c.1,.22,.31,.37,.55,.4l1.57,.18c.58,.07,.82,.79,.39,1.19l-1.16,1.07c-.18,.16-.26,.41-.21,.64l.31,1.54c.12,.58-.5,1.02-1.01,.73l-1.37-.78c-.21-.12-.47-.12-.67,0l-1.37,.78c-.51,.29-1.13-.16-1.01-.73l.31-1.54c.05-.24-.03-.48-.21-.64l-1.16-1.07c-.43-.4-.2-1.12,.39-1.19l1.57-.18c.24-.03,.45-.18,.55-.4Z" fill="#6ee4f8"/></svg>