<?xml version="1.0" encoding="UTF-8"?><svg id="a" xmlns="http://www.w3.org/2000/svg" viewBox="0 0 24 24"><circle cx="12.21" cy="8.79" r="3.21" fill="#b08bff"/><rect x="4.56" y="4.56" width="14.87" height="14.87" rx="2" ry="2" transform="translate(12 -4.97) rotate(45)" fill="none" stroke="#b398ff" stroke-miterlimit="10" stroke-width="2.5"/><path d="M10.51,16.86l-1.18-.31c-.44-.12-.54-.7-.16-.95l1.01-.69c.15-.1,.24-.28,.23-.47l-.07-1.22c-.03-.45,.49-.73,.85-.45l.97,.75c.15,.11,.34,.14,.52,.07l1.14-.44c.42-.17,.85,.25,.69,.67l-.41,1.15c-.06,.18-.03,.37,.09,.52l.77,.95c.29,.35,.03,.88-.43,.87l-1.22-.04c-.19,0-.36,.09-.46,.24l-.66,1.03c-.25,.38-.83,.3-.96-.14l-.34-1.17c-.05-.18-.19-.32-.37-.36Z" fill="#b08bff"/></svg>