<?xml version="1.0" encoding="UTF-8"?><svg id="a" xmlns="http://www.w3.org/2000/svg" viewBox="0 0 24 24"><path d="M11.42,15.26L6.58,6.89c-.26-.45,.06-1.01,.58-1.01h9.66c.52,0,.84,.56,.58,1.01l-4.83,8.37c-.26,.45-.91,.45-1.17,0Z" fill="#ff8bf5"/><path d="M18.15,19.03l-2.63-4.55c-.26-.45,.06-1.01,.58-1.01h5.26c.52,0,.84,.56,.58,1.01l-2.63,4.55c-.26,.45-.91,.45-1.17,0Z" fill="#ff8bf5"/><path d="M4.68,19.21l-2.63-4.55c-.26-.45,.06-1.01,.58-1.01H7.9c.52,0,.84,.56,.58,1.01l-2.63,4.55c-.26,.45-.91,.45-1.17,0Z" fill="#ff8bf5"/></svg>