<?xml version="1.0" encoding="UTF-8"?><svg id="c" xmlns="http://www.w3.org/2000/svg" viewBox="0 0 24 24"><path d="m20.57,18.52c-.75.4-.68,1.03-.94,1.77-.3,1-3.06.89-3.06.89-.88.05-.34-1.62-.8-1.76-.35-.06-2.09-.13-2.2.47-.06.36.08,1.45-.84,1.45h-1.45c-.92,0-.78-1.09-.84-1.45-.11-.6-1.96-.53-2.3-.47-.46.14.07,1.81-.8,1.76,0,0-2.66.11-2.97-.89-.26-.74-.19-1.37-.94-1.77C-2.62,15.25,0,1.43,12,1.43s14.63,13.82,8.57,17.09Z" fill="#6e85f8"/><circle cx="6.96" cy="13.72" r="4.45" fill="#73ff9d"/><circle cx="17.04" cy="13.72" r="4.45" fill="#73ff9d"/></svg>