<?xml version="1.0" encoding="UTF-8"?><svg id="c" xmlns="http://www.w3.org/2000/svg" viewBox="0 0 24 24"><rect x="2.04" y="4.18" width="19.94" height="2.25" rx=".92" ry=".92" fill="#6e85f8"/><rect x="2.04" y="8.58" width="19.94" height="2.25" rx=".92" ry=".92" fill="#6e85f8"/><path d="m12.87,13.99c0-.55-.42-1-.94-1H2.99c-.53,0-.96.46-.96,1.02v.21c0,.56.43,1.02.96,1.02h8.93c.52,0,.94-.45.94-1v-.25Z" fill="#6e85f8"/><path d="m12.87,18.39c0-.55-.42-1-.95-1H2.99c-.53,0-.96.46-.96,1.02v.21c0,.56.43,1.02.96,1.02h8.93c.52,0,.95-.45.95-1v-.25Z" fill="#6e85f8"/><g><line x1="15.89" y1="16.23" x2="21.69" y2="16.27" fill="none" stroke="#6ee4f8" stroke-linecap="round" stroke-miterlimit="11.34" stroke-width="2.5"/><g><rect x="15.64" y="13.87" width="1.58" height="4.68" transform="translate(32.81 32.47) rotate(-179.81)" fill="#6ee4f8"/><g><rect x="12.43" y="13.69" width="6.35" height="2.25" rx="1.01" ry="1.01" transform="translate(-5.91 15.3) rotate(-44.81)" fill="#6ee4f8"/><rect x="12.41" y="16.59" width="6.35" height="2.25" rx="1.01" ry="1.01" transform="translate(17.17 -5.83) rotate(45.19)" fill="#6ee4f8"/></g></g></g></svg>