<?xml version="1.0" encoding="UTF-8"?><svg id="a" xmlns="http://www.w3.org/2000/svg" viewBox="0 0 24 24"><path d="M19.43,20.46H4.57c-1.39,0-2.45-1.25-2.22-2.62L4.4,5.43c.18-1.09,1.12-1.89,2.22-1.89h10.76c1.1,0,2.04,.8,2.22,1.89l2.05,12.41c.23,1.37-.83,2.62-2.22,2.62Z" fill="#6e85f8"/><path d="M15.07,8.47l1.16,7.06H7.77l1.16-7.06h6.14m.45-2h-7.04c-.72,0-1.34,.52-1.45,1.23l-1.34,8.11c-.15,.9,.54,1.71,1.45,1.71h9.71c.91,0,1.6-.82,1.45-1.71l-1.34-8.11c-.12-.71-.73-1.23-1.45-1.23h0Z" fill="#73ff9d"/></svg>