<?xml version="1.0" encoding="UTF-8"?><svg id="c" xmlns="http://www.w3.org/2000/svg" viewBox="0 0 24 24"><path d="m1.79,21.58l.15-19.27c.01-1.41,1.55-2.28,2.76-1.57l16.61,9.76c1.22.72,1.2,2.48-.02,3.18L4.53,23.19c-1.23.7-2.75-.2-2.74-1.61Z" fill="#6e85f8"/><path d="m3.75,15.68l.03-4.01c0-.83.68-1.49,1.51-1.49.83,0,1.52.71,1.49,1.51l-.03,4c0,.16.09.24.16.29.71.43.94,1.35.51,2.06-.43.71-1.35.94-2.06.51-1.01-.61-1.61-1.68-1.61-2.87Zm1.6-9.26c0-.71.48-1.33,1.2-1.46.2-.04.4-.05.6-.05.59,0,1.17.16,1.69.46l4.05,2.38c.71.42.95,1.34.53,2.05-.42.71-1.34.95-2.05.53l-4.05-2.38c-.06-.03-.11-.05-.17-.05-.81.15-1.63-.39-1.77-1.2-.02-.09-.03-.19-.03-.28Zm4.67,8.87c0-.52.27-1.03.76-1.31l2.96-1.68c.21-.12.19-.3.15-.41-.29-.78.1-1.64.88-1.93.78-.29,1.64.1,1.93.88.14.38.21.77.21,1.18,0,1.22-.63,2.3-1.69,2.9l-2.96,1.68c-.72.41-1.64.16-2.04-.56-.13-.23-.2-.49-.2-.74Z" fill="#73ff9d"/></svg>