<?xml version="1.0" encoding="UTF-8"?><svg id="c" xmlns="http://www.w3.org/2000/svg" viewBox="0 0 24 24"><rect x="1.91" y="7.27" width="22.11" height="9.47" rx="2.3" ry="2.3" transform="translate(-4.69 12.68) rotate(-45)" fill="#6e85f8"/><rect x="-.02" y="7.27" width="22.11" height="9.47" rx="2.3" ry="2.3" transform="translate(10.35 28.29) rotate(-135)" fill="#6e85f8"/><g><path d="m15.75,10.95v4c0,.27.11.52.3.71s.43.29.7.29c.27,0,.52-.1.71-.29s.29-.45.29-.71v-4c0-.25-.11-.52-.29-.7s-.45-.29-.71-.3c-.54,0-1,.47-1,1Z" fill="#73ff9d"/><path d="m6.22,10.95v4c0,.27.11.52.3.71s.43.29.7.29c.27,0,.52-.1.71-.29s.29-.45.29-.71v-4c0-.25-.11-.52-.29-.7s-.45-.29-.71-.3c-.54,0-1,.47-1,1Z" fill="#73ff9d"/><path d="m14.02,9.21c.27,0,.52-.1.71-.29.19-.18.29-.43.3-.7,0-.27-.09-.52-.28-.72s-.44-.29-.71-.3l-4-.03c-.25,0-.52.1-.7.28-.19.19-.29.44-.3.7,0,.54.46,1.01,1,1.01l4,.03Z" fill="#73ff9d"/><path d="m9.95,16.71c-.25,0-.52.1-.7.28-.19.19-.29.44-.3.7,0,.54.46,1.01,1,1.01l4,.03c.27,0,.52-.1.71-.29.19-.18.29-.43.3-.7,0-.27-.09-.52-.28-.72s-.44-.29-.71-.3l-4-.03Z" fill="#73ff9d"/></g></svg>