<?xml version="1.0" encoding="UTF-8"?><svg id="a" xmlns="http://www.w3.org/2000/svg" viewBox="0 0 24 24"><path d="M11.08,17.7l-1.54-2.84c-.09-.17-.24-.32-.41-.41l-2.83-1.56c-.72-.39-.71-1.42,0-1.81l2.84-1.54c.17-.09,.32-.24,.41-.41l1.56-2.83c.39-.72,1.42-.71,1.81,0l1.54,2.84c.09,.17,.24,.32,.41,.41l2.83,1.56c.72,.39,.71,1.42,0,1.81l-2.84,1.54c-.17,.09-.32,.24-.41,.41l-1.56,2.83c-.39,.72-1.42,.71-1.81,0Z" fill="#ff8bf5"/><rect x="2.47" y="3.8" width="6.59" height="3.92" rx=".71" ry=".71" transform="translate(5.76 13.91) rotate(-135)" fill="#b08bff"/><rect x="15.17" y="16.51" width="6.59" height="3.92" rx=".71" ry=".71" transform="translate(18.47 44.58) rotate(-135)" fill="#b08bff"/></svg>