<?xml version="1.0" encoding="UTF-8"?><svg id="c" xmlns="http://www.w3.org/2000/svg" viewBox="0 0 24 24"><path d="m5.15,15.62c-.39,0-.76-.15-1.04-.43l-.72-.7c-.12-.12-.22-.25-.3-.41-.15-.07-.29-.17-.42-.29l-1.44-1.41c-.6-.57-.94-1.37-.93-2.19,0-1.16.64-2.21,1.66-2.74.26-.14.56-.19.85-.16.18-.11.38-.18.59-.22l.99-.14c.81-.11,1.58.47,1.7,1.27.12.82-.45,1.58-1.27,1.7l-.99.14c-.12.02-.25.02-.38.01-.04.02-.08.05-.12.07h0s-.03.04-.03.07h0s0,0,0,0c0,0,0,.02.02.04l1.45,1.41c.12.12.22.26.3.41.15.07.29.17.41.28l.72.7c.3.29.46.68.45,1.09,0,.39-.15.76-.42,1.03-.29.3-.67.46-1.08.46Zm15.17-1.45c-.41,0-.79-.16-1.07-.45-.58-.6-.57-1.55.02-2.12l.72-.7c.12-.12.26-.22.42-.29.07-.14.15-.26.26-.38.02,0,.02-.02.02-.02v-.02c-.01-.07-.02-.07-.06-.08l-1.53-.22c-.17-.03-.33-.08-.48-.16-.17.03-.34.04-.51.02l-.99-.15c-.73-.11-1.28-.74-1.28-1.47-.01-.08,0-.15,0-.23.12-.8.89-1.39,1.7-1.27l.99.15c.17.02.33.07.48.15.17-.03.34-.03.51-.01l1.53.22c1.52.23,2.65,1.54,2.63,3.05,0,.78-.31,1.56-.86,2.12-.13.14-.28.25-.45.32-.07.16-.17.3-.3.42l-.71.7c-.28.27-.66.42-1.05.42Z" fill="#9a8bff"/><circle cx="12" cy="12.98" r="3.61" fill="#ff8bf5"/><path d="m17.32,23.4h0c-.49,0-.98-.13-1.42-.36l-.89-.46c-.36-.19-.62-.5-.74-.89-.11-.38-.08-.78.11-1.14.37-.71,1.31-1,2.03-.63l.88.47c.09.04.1-.03.11-.06h0s-.22-1.31-.22-1.31c-.03-.17-.03-.34,0-.51-.09-.15-.14-.31-.17-.48l-.17-.98c-.02-.09-.02-.18-.02-.27,0-.72.53-1.34,1.24-1.46.81-.16,1.6.41,1.73,1.22l.17.99c.03.17.03.34,0,.5.09.15.14.31.17.48l.22,1.29c.03.17.05.35.05.53-.02,1.72-1.37,3.06-3.08,3.07Zm-10.64,0h0c-1.3,0-2.44-.8-2.89-2.01,0-.04-.03-.08-.04-.12l-.02-.06h0c-.04-.14-.05-.28-.05-.42,0-.16.02-.31.07-.46-.08-.24-.11-.5-.06-.76l.17-.99c.13-.8.91-1.37,1.73-1.22.39.07.74.28.97.61s.32.73.25,1.12l-.17.99c-.01.07-.03.15-.05.22,0,.02.01.03.01.05h0s.04.05.06.05.03,0,.04,0l2-1.06c.15-.08.31-.13.48-.15.12-.13.25-.23.4-.31l.89-.46c.71-.38,1.65-.08,2.02.62.12.22.17.45.18.69,0,.56-.3,1.08-.81,1.34l-.88.46c-.15.08-.31.14-.48.16-.12.13-.25.23-.41.31l-1.99,1.05c-.45.23-.94.36-1.42.36Zm2.23-15.29c-.23,0-.46-.05-.66-.15-.52-.25-.85-.79-.84-1.36,0-.23.05-.45.16-.65l.44-.9c.07-.15.17-.29.29-.4.02-.17.07-.34.15-.49l.79-1.6c.51-1.04,1.57-1.71,2.72-1.71h.05c.97,0,1.88.46,2.46,1.24.14.2.24.43.27.67.14.12.24.27.33.43l.44.9c.18.36.2.77.07,1.15-.12.38-.39.68-.75.86-.73.36-1.66.04-2.01-.68l-.44-.9c-.07-.14-.12-.29-.14-.45-.07-.06-.14-.13-.19-.21t-.06-.02h0s-.03,0-.03,0c0,0-.02.03-.02.04l-.79,1.6c-.08.15-.18.29-.3.4-.02.17-.07.34-.14.49l-.44.9c-.26.51-.78.83-1.35.83Z" fill="#6e85f8"/></svg>