<?xml version="1.0" encoding="UTF-8"?><svg id="a" xmlns="http://www.w3.org/2000/svg" viewBox="0 0 24 24"><path d="M12,23.54c-.98,0-1.92-.29-2.73-.83l-.15-.11-.82-.59c-.89-.65-1.09-1.9-.44-2.79,.65-.9,1.9-1.09,2.79-.44l.85,.62c.46,.31,.76,.16,1.02-.02l.37-.26c.89-.65,2.14-.45,2.79,.44,.65,.89,.45,2.14-.44,2.79l-.37,.27c-.84,.61-1.84,.94-2.88,.94ZM19.38,7.46c-.84,0-1.63-.54-1.9-1.38l-.32-.97s0,0,0,0c-.12-.37-.46-.61-.85-.61h-.47c-1.1,0-2-.9-2-2S14.74,.49,15.84,.49h.47c2.11,0,3.98,1.35,4.64,3.35,0,.02,0,.03,.01,.04l.31,.96c.34,1.05-.23,2.18-1.28,2.52-.21,.07-.41,.1-.62,.1Zm-14.58-.53c-.21,0-.41-.03-.62-.1-1.05-.34-1.62-1.47-1.28-2.52l.14-.44C3.69,1.86,5.55,.5,7.66,.49c0,0,0,0,0,0h0s0,0,0,0h1.02c1.1,0,2,.9,2,2s-.9,2-2,2h-1.01c-.39,0-.72,.25-.84,.62l-.14,.44c-.27,.84-1.06,1.38-1.9,1.38Z" fill="#6e85f8"/><path d="M12.87,6.09l.86,1.75c.14,.29,.41,.48,.73,.53l1.93,.28c.79,.12,1.11,1.09,.54,1.65l-1.39,1.36c-.23,.22-.33,.54-.28,.86l.33,1.92c.14,.79-.69,1.39-1.4,1.02l-1.72-.91c-.28-.15-.62-.15-.9,0l-1.72,.91c-.71,.37-1.54-.23-1.4-1.02l.33-1.92c.05-.31-.05-.63-.28-.86l-1.39-1.36c-.57-.56-.26-1.53,.54-1.65l1.93-.28c.31-.05,.59-.24,.73-.53l.86-1.75c.35-.72,1.38-.72,1.73,0Z" fill="#ff8bf5"/><path d="M19.85,18.52c-.62,0-1.23-.29-1.62-.82-.65-.89-.45-2.14,.44-2.79l.79-.57s.03-.02,.05-.04c.22-.17,.35-.43,.35-.71,0-.09-.01-.19-.04-.28l-.14-.43c-.34-1.05,.23-2.18,1.28-2.52,1.05-.34,2.18,.23,2.52,1.28l.14,.43c.16,.49,.24,1,.24,1.51,0,1.55-.74,3.02-1.99,3.94,0,0-.02,.01-.02,.02l-.82,.6c-.35,.26-.77,.38-1.17,.38Zm-16.15-.33c-.41,0-.82-.12-1.17-.38l-.37-.27C.89,16.62,.14,15.14,.14,13.58c0-.5,.08-1,.23-1.48v-.03s.32-.96,.32-.96c.34-1.05,1.47-1.62,2.52-1.28,1.05,.34,1.63,1.47,1.28,2.52l-.31,.94s0,.02-.01,.03c-.03,.09-.04,.18-.04,.26,0,.29,.14,.56,.37,.72l.37,.27c.89,.65,1.09,1.9,.44,2.79-.39,.54-1,.83-1.62,.83Z" fill="#9a8bff"/></svg>