<?xml version="1.0" encoding="UTF-8"?><svg id="a" xmlns="http://www.w3.org/2000/svg" viewBox="0 0 24 24"><path d="M12,15.63c.22-.12,.97-.62,2.07-.87,2.53-.58,3.51,2.21,2.01,4.32-1.33,1.53-2.72,2.24-4.09,3.14-1.37-.91-2.75-1.61-4.09-3.14-1.49-2.11-.52-4.9,2.01-4.32,1.1,.25,1.85,.75,2.07,.87" fill="#ff8bf5"/><g><line x1="12.05" y1="3.67" x2="12" y2="11.53" fill="none" stroke="#6e85f8" stroke-linecap="round" stroke-miterlimit="11.34" stroke-width="3"/><g><rect x="11.19" y="1.67" width="1.76" height="5.22" transform="translate(7.75 16.33) rotate(-89.81)" fill="#6e85f8"/><g><rect x="10.08" y="2.09" width="7.08" height="2.51" rx="1.01" ry="1.01" transform="translate(6.4 -8.68) rotate(45.19)" fill="#6e85f8"/><rect x="6.85" y="2.08" width="7.08" height="2.51" rx="1.01" ry="1.01" transform="translate(20.1 -1.63) rotate(135.19)" fill="#6e85f8"/></g></g></g></svg>