<?xml version="1.0" encoding="UTF-8"?><svg id="a" xmlns="http://www.w3.org/2000/svg" viewBox="0 0 24 24"><path d="M2.54,11.78c1.38-2.56,3.66-4.55,6.56-5.39,4.33-1.26,8.85,.37,11.76,3.79" fill="none" stroke="#6e85f8" stroke-linecap="round" stroke-miterlimit="11.34" stroke-width="2.5"/><g><rect x="19.58" y="7" width="1.76" height="5.21" transform="translate(12.85 -11.68) rotate(45.19)" fill="#6e85f8"/><g><rect x="16.47" y="10.11" width="7.08" height="2.5" rx="1.01" ry="1.01" transform="translate(39.99 22.79) rotate(-179.81)" fill="#6e85f8"/><rect x="18.77" y="7.83" width="7.08" height="2.5" rx="1.01" ry="1.01" transform="translate(13.15 31.37) rotate(-89.81)" fill="#6e85f8"/></g></g><path d="M12,15.54c.22-.12,.97-.62,2.07-.87,2.53-.58,3.51,2.21,2.01,4.32-1.33,1.53-2.72,2.24-4.09,3.14-1.37-.91-2.75-1.61-4.09-3.14-1.49-2.11-.52-4.9,2.01-4.32,1.1,.25,1.85,.75,2.07,.87" fill="#5c98ff"/></svg>