<?xml version="1.0" encoding="UTF-8"?><svg id="c" xmlns="http://www.w3.org/2000/svg" viewBox="0 0 24 24"><path d="m12,15.43c.22-.12.97-.62,2.07-.87,2.53-.58,3.51,2.21,2.01,4.32-1.33,1.53-2.72,2.24-4.09,3.14-1.37-.91-2.75-1.61-4.09-3.14-1.49-2.11-.52-4.9,2.01-4.32,1.1.25,1.85.75,2.07.87" fill="#ff8bf5"/><g><line x1="12.05" y1="9.7" x2="12" y2="1.84" fill="none" stroke="#6e85f8" stroke-linecap="round" stroke-miterlimit="11.34" stroke-width="3"/><g><rect x="11.19" y="6.49" width="1.76" height="5.22" transform="translate(21.12 -3) rotate(89.81)" fill="#6e85f8"/><g><rect x="10.08" y="8.77" width="7.08" height="2.51" rx="1.01" ry="1.01" transform="translate(-3.09 12.62) rotate(-45.19)" fill="#6e85f8"/><rect x="6.85" y="8.78" width="7.08" height="2.51" rx="1.01" ry="1.01" transform="translate(10.68 24.48) rotate(-135.19)" fill="#6e85f8"/></g></g></g></svg>