<?xml version="1.0" encoding="UTF-8"?><svg id="a" xmlns="http://www.w3.org/2000/svg" viewBox="0 0 24 24"><path d="M19.13,7.86v8.28c0,4.07-3.19,7.36-7.13,7.36s-7.14-3.29-7.14-7.36V7.86C4.86,3.79,8.06,.5,12,.5s7.13,3.29,7.13,7.36Z" fill="#6ee4f8"/><path d="M16.96,7.2c0,2.51-2.22,2.94-4.96,2.94s-4.96-.43-4.96-2.94,2.22-4.54,4.96-4.54,4.96,2.03,4.96,4.54Z" fill="#5c98ff"/><path d="M16.96,17.54c0,2.38-2.22,2.79-4.96,2.79s-4.96-.41-4.96-2.79,2.22-4.31,4.96-4.31,4.96,1.93,4.96,4.31Z" fill="#5c98ff"/></svg>