<?xml version="1.0" encoding="UTF-8"?><svg id="a" xmlns="http://www.w3.org/2000/svg" viewBox="0 0 24 24"><path d="M12.33,14.5c2.49-2.69,6.53-3.04,9.32-1.86" fill="none" stroke="#ff8bf5" stroke-linecap="round" stroke-miterlimit="10" stroke-width="3"/><path d="M8.94,11.59c8.24-1.96,1.04-8.4,11.99-8.63" fill="none" stroke="#5c98ff" stroke-linecap="round" stroke-miterlimit="10" stroke-width="3"/><path d="M8.58,8.98c1.24-3.32,.72-5.89-1.33-7.04" fill="none" stroke="#6e85f8" stroke-linecap="round" stroke-linejoin="round" stroke-width="2"/><path d="M1.32,21.81L5.4,6.78c.2-.74,1.11-1.03,1.7-.54l9.9,8.15c.6,.49,.49,1.43-.21,1.77L2.82,23.04c-.82,.4-1.74-.35-1.5-1.23Z" fill="#b08bff"/><circle cx="3.22" cy="10.35" r="1.99" fill="#6e85f8"/><circle cx="19.87" cy="15.77" r="1.78" fill="#6ee4f8"/><circle cx="15.47" cy="19.44" r="1.71" fill="#ff8bf5"/><circle cx="11.78" cy="2.37" r="1.78" fill="#6ee4f8"/><circle cx="4.93" cy="4.34" r="1.71" fill="#ff8bf5"/><circle cx="19.87" cy="7.65" r="1.99" fill="#6e85f8"/><circle cx="10.99" cy="8.8" r="1.71" fill="#ff8bf5"/><circle cx="21.85" cy="20.23" r="1.99" fill="#6e85f8"/></svg>