<?xml version="1.0" encoding="UTF-8"?><svg id="a" xmlns="http://www.w3.org/2000/svg" viewBox="0 0 24 24"><rect x="5.49" y="3.46" width="11.76" height="16.21" rx="1.44" ry="1.44" transform="translate(27.6 11.32) rotate(133.63)" fill="#9a8bff"/><path d="M21.09,21.68l-8.15-.87c-.64-.07-.93-.85-.48-1.32l6.89-7.23c.45-.47,1.24-.22,1.34,.42l1.26,8.1c.08,.51-.34,.95-.86,.9Z" fill="#9a8bff"/><path d="M17.51,17.31c.03-.11,.09-.52,.33-.97,.57-1.04,1.82-.52,2.09,.63,.12,.92-.06,1.61-.17,2.35-.73,.19-1.39,.45-2.32,.44-1.17-.13-1.83-1.31-.86-2,.42-.3,.82-.4,.93-.44" fill="#ff8bf5"/></svg>