<?xml version="1.0" encoding="UTF-8"?><svg xmlns="http://www.w3.org/2000/svg" viewBox="0 0 24 24"><g id="a"><circle cx="12" cy="13.8" r="3.18" fill="#ff8bf5"/></g><g id="c"><path d="M15.62,8.99h-7.23c-.93,0-1.51-1.01-1.05-1.81L10.95,.92c.46-.81,1.63-.81,2.09,0l3.62,6.26c.46,.81-.12,1.81-1.05,1.81Z" fill="#6e85f8"/><path d="M6.07,13l3.62,6.26c.46,.81-.12,1.81-1.05,1.81H1.41c-.93,0-1.51-1.01-1.05-1.81l3.62-6.26c.46-.81,1.63-.81,2.09,0Z" fill="#6e85f8"/><path d="M20.01,12.95l3.62,6.26c.46,.81-.12,1.81-1.05,1.81h-7.23c-.93,0-1.51-1.01-1.05-1.81l3.62-6.26c.46-.81,1.63-.81,2.09,0Z" fill="#6e85f8"/></g></svg>