<?xml version="1.0" encoding="UTF-8"?><svg id="c" xmlns="http://www.w3.org/2000/svg" viewBox="0 0 24 24"><path d="m12,.04C5.37.04,0,5.41,0,12.04s5.37,12,12,12,12-5.37,12-12S18.63.04,12,.04Zm5.26,10.91l-.71.68c-.4.38-1.04.37-1.43-.04l-1.14-1.2h-.27s-.21,7.63-.21,7.63c-.01.45-.2.86-.5,1.15-.31.3-.74.49-1.21.47-.92-.03-1.65-.8-1.63-1.72l.21-7.63h-.37s-1.2,1.13-1.2,1.13c-.4.38-1.04.37-1.43-.04l-.68-.71c-.38-.4-.37-1.04.04-1.43l4.69-4.45c.4-.38,1.04-.37,1.43.04l.68.71s0,0,0,.01l3.77,3.97c.38.4.37,1.04-.04,1.43Z" fill="#6ee4f8"/></svg>