<?xml version="1.0" encoding="UTF-8"?><svg id="a" xmlns="http://www.w3.org/2000/svg" viewBox="0 0 24 24"><path d="M21.11,8.81l-1.31-.88c-.15-.1-.36-.07-.47,.08l-.97,1.25c-.18,.24-.56,.15-.62-.15l-.31-1.55c-.04-.18-.2-.3-.38-.28l-1.57,.19c-.3,.04-.5-.29-.33-.54l.88-1.31c.1-.15,.07-.36-.08-.47l-1.25-.97c-.24-.18-.15-.56,.15-.62l1.55-.31c.18-.04,.3-.2,.28-.38l-.19-1.57c-.04-.3,.29-.5,.54-.33l1.31,.88c.15,.1,.36,.07,.47-.08l.97-1.25c.18-.24,.56-.15,.62,.15l.31,1.55c.04,.18,.2,.3,.38,.28l1.57-.19c.3-.04,.5,.29,.33,.54l-.88,1.31c-.1,.15-.07,.36,.08,.47l1.25,.97c.24,.18,.15,.56-.15,.62l-1.55,.31c-.18,.04-.3,.2-.28,.38l.19,1.57c.04,.3-.29,.5-.54,.33Z" fill="#f98bff"/></svg>