<?xml version="1.0" encoding="UTF-8"?><svg id="b" xmlns="http://www.w3.org/2000/svg" viewBox="0 0 24 24"><path d="M21.76,8.35c-.06,.07-.11,.13-.17,.2-1.12,3.37-3.18,6.29-6.61,7.72l-.39,.45c1.85-.68,4.85-2.11,7.38-5.06,.87-1.01,1.53-2.01,2.03-2.92l-2.24-.4Z" fill="#e61b1b"/><path d="M3.53,11.44c-1.12,.87-1.89,3.54-1.44,4.04,1.44,1.22,9.24,1.88,11.49,1.28,4.32-1.17,6.77-4.45,8.04-8.28-5.56-1.42-14.51-.09-18.09,2.97Z" fill="#9a8bff"/><path d="M15.14,16.31c.24,.24,.44,.58,.56,.97-.44-.31-1.54-.45-2.4-.35-.8,.22-1.37,.88-1.5,1.03-.21-.11-.97-.52-2.05-.68-.37,0-1.06,.32-1.45,.59-.55-.51-.97-.76-2.04-1.15l.63,.15,2.02,.28,1.72-.02,1.93-.24,2.57-.58Z" fill="#6ed2f8"/><path d="M5.31,13.02c1.2,2.64,4.29,3.17,7.02,2.42,2.65-.72,4.79-2.78,3.86-6.33-.57-1.75-3.37-1.65-6.05-1.15-3.1,.59-6,1.93-4.82,5.05Z" fill="#5c98ff"/><path d="M5.04,16.46c.77,.06,1.78,.12,2.96,.18,2.42,.12,3.12,.09,3.56,.05,1.03-.07,1.9-.14,2.99-.52,1.01-.35,1.71-.79,2.12-1.06,.4-.26,1.71-1.13,2.93-2.73,.46-.6,1.04-1.48,1.54-2.65-.24,.67-.64,1.6-1.28,2.62-.55,.88-1.28,2-2.64,3.01-.39,.29-1.53,1.09-3.21,1.53-.94,.25-1.68,.29-2.53,.34-.26,.01-1.45,.07-3.05-.1-.9-.1-2.07-.29-3.4-.67Z" fill="#6ed2f8"/><g id="c"><g><ellipse cx="10.68" cy="11.42" rx="1.33" ry="1.4" transform="translate(-.27 .26) rotate(-1.35)" fill="#6ed2f8"/><path d="M11.93,9.65c1.1-.05,1.84,1.61,.65,3.23,.53-.89,.47-2.73-.65-3.23Z" fill="#6ed2f8"/><path d="M11.69,10.01c.88-.04,1.47,1.29,.52,2.58,.42-.71,.38-2.18-.52-2.58Z" fill="#6ed2f8"/><path d="M8.47,10.28c-.48,1.71-.12,2.8,1.17,3.17-1.07-.72-1.33-1.71-1.17-3.17Z" fill="#6ed2f8"/><path d="M8.92,10.5c-.38,1.37-.1,2.24,.94,2.53-.85-.57-1.07-1.37-.94-2.53Z" fill="#6ed2f8"/></g></g><g><path d="M.87,11.85c6.42-5.53,18.14-5.57,23.13-3.1-8.51-.51-18.03-.28-24,5.76,.63-1.22,1.92-2.56,3.15-3.69-.65,.16-1.4,.53-2.28,1.03Z" fill="#6ed2f8"/><path d="M19.07,6.44c-6.2-.96-11.86-.31-16.97,2.89,3.52-2.18,10.86-3.88,16.97-2.89Z" fill="#6ed2f8"/></g></svg>