<?xml version="1.0" encoding="UTF-8"?><svg id="a" xmlns="http://www.w3.org/2000/svg" viewBox="0 0 24 24"><path d="M11.86,4.71l8.23,13.92-16.17,.17L11.86,4.71m-.02-3.43c-.54,0-1.07,.27-1.37,.8L.96,18.97c-.59,1.05,.17,2.34,1.37,2.34,0,0,.01,0,.02,0l19.38-.21c1.21-.01,1.95-1.33,1.34-2.37L13.19,2.05c-.3-.52-.83-.77-1.35-.77h0Z" fill="#6e85f8"/><g><path d="M12,8.44c-.92,0-1.66,1.47-1.66,3.28s.74,3.28,1.66,3.28,1.66-1.47,1.66-3.28-.74-3.28-1.66-3.28h0Z" fill="#ff8bf5"/><path d="M12,15.6c-.69,0-1.25,.56-1.25,1.25s.56,1.25,1.25,1.25,1.25-.56,1.25-1.25-.56-1.25-1.25-1.25h0Z" fill="#ff8bf5"/></g></svg>