<?xml version="1.0" encoding="UTF-8"?><svg id="c" xmlns="http://www.w3.org/2000/svg" viewBox="0 0 24 24"><path id="d" d="m0,9.69v1.85h.92v.92h.92v.92h.92v.92h6.46v-.92h.92v-.92h.92v-1.85h1.85v1.85h.92v.92h.92v.92h6.46v-.92h.92v-.92h.92v-.92h.92v-1.85H0Z" fill="#9a8bff"/><path d="m1.51,10.58v.92h.92v.92h.92v.92h.92v-.92h.92v.92h.92v-.92h-.92v-.92h-.92v-.92h-.92v.92h-.92v-.92s-.92,0-.92,0Zm13.04,0v.92h.92v.92h.92v.92h.92v-.92h.92v.92h.92v-.92h-.92v-.92h-.92v-.92h-.92v.92h-.92v-.92s-.92,0-.92,0Zm-10.27.92v.92h-.92v-.92h.92Zm13.04,0v.92h-.92v-.92h.92Z" fill="#ff8bf5"/></svg>